<svg xmlns="http://www.w3.org/2000/svg" class="graphdiagram" viewBox="-6661.112891511066 -3613.410037787399 12681.118084169204 5587.617655837055"><g class="layer relationships"><g class="related-pair"><g class="relationship" transform="translate(-1100.3421347841636,-736.4637842847599) rotate(33.37385541838922)"><path class="relationship" d="M 108.24528049311195 4 L 1660.4049554768173 4 L 1660.4049554768173 16 L 1692.4049554768173 0 L 1660.4049554768173 -16 L 1660.4049554768173 -4 L 108.24528049311195 -4 Z" fill="rgb(0, 0, 0)" stroke="rgb(51, 51, 51)" stroke-width="0px"/><text class="type" text-anchor="middle" baseline-shift="30%" alignment-baseline="alphabetic" x="884.3251179849647" y="0" font-size="50px" font-family="&quot;Gill Sans&quot;, &quot;Gill Sans MT&quot;, Calibri, sans-serif">HAS_VIST_OCCURRENCE</text></g></g><g class="related-pair"><g class="relationship" transform="translate(-1100.3421347841636,-736.4637842847599) rotate(-55.70432361099601)"><path class="relationship" d="M 108.24528049311195 4 L 894.8408464466654 4 L 894.8408464466654 16 L 926.8408464466654 0 L 894.8408464466654 -16 L 894.8408464466654 -4 L 108.24528049311195 -4 Z" fill="rgb(0, 0, 0)" stroke="rgb(51, 51, 51)" stroke-width="0px"/><text class="type" text-anchor="middle" baseline-shift="30%" alignment-baseline="alphabetic" x="501.5430634698887" y="0" font-size="50px" font-family="&quot;Gill Sans&quot;, &quot;Gill Sans MT&quot;, Calibri, sans-serif">HAD_CONDITION_OCCURRENCE</text></g></g><g class="related-pair"><g class="relationship" transform="translate(-1100.3421347841636,-736.4637842847599) rotate(180)"><path class="relationship" d="M 108.24528049311195 4 L 1040.8767246421755 4 L 1040.8767246421755 16 L 1072.8767246421755 0 L 1040.8767246421755 -16 L 1040.8767246421755 -4 L 108.24528049311195 -4 Z" fill="rgb(0, 0, 0)" stroke="rgb(51, 51, 51)" stroke-width="0px"/><text class="type" text-anchor="middle" baseline-shift="30%" alignment-baseline="alphabetic" transform="rotate(180)" x="-574.5610025676438" y="0" font-size="50px" font-family="&quot;Gill Sans&quot;, &quot;Gill Sans MT&quot;, Calibri, sans-serif">HAS_OBSERVATION</text></g></g><g class="related-pair"><g class="relationship" transform="translate(-1100.3421347841636,-736.4637842847599) rotate(-144.9055394939011)"><path class="relationship" d="M 108.24528049311195 4 L 968.7859907609848 4 L 968.7859907609848 16 L 1000.7859907609848 0 L 968.7859907609848 -16 L 968.7859907609848 -4 L 108.24528049311195 -4 Z" fill="rgb(0, 0, 0)" stroke="rgb(51, 51, 51)" stroke-width="0px"/><text class="type" text-anchor="middle" baseline-shift="30%" alignment-baseline="alphabetic" x="-538.5156356270484" y="0" font-size="50px" font-family="&quot;Gill Sans&quot;, &quot;Gill Sans MT&quot;, Calibri, sans-serif" transform="rotate(180)">HAS_OBSERVATION_PERIOD</text></g></g><g class="related-pair"><g class="relationship" transform="translate(-1100.3421347841636,-736.4637842847599) rotate(-99.84200348596063)"><path class="relationship" d="M 108.24528049311195 4 L 788.4458065384539 4 L 788.4458065384539 16 L 820.4458065384539 0 L 788.4458065384539 -16 L 788.4458065384539 -4 L 108.24528049311195 -4 Z" fill="rgb(0, 0, 0)" stroke="rgb(51, 51, 51)" stroke-width="0px"/><text class="type" text-anchor="middle" baseline-shift="30%" alignment-baseline="alphabetic" x="-448.3455435157829" y="0" font-size="50px" font-family="&quot;Gill Sans&quot;, &quot;Gill Sans MT&quot;, Calibri, sans-serif" transform="rotate(180)">HAS_MEASUREMNET</text></g></g><g class="related-pair"><g class="relationship" transform="translate(-1100.3421347841636,-736.4637842847599) rotate(140.78205384193063)"><path class="relationship" d="M 108.24528049311195 4 L 1083.69464084417 4 L 1083.69464084417 16 L 1115.69464084417 0 L 1083.69464084417 -16 L 1083.69464084417 -4 L 108.24528049311195 -4 Z" fill="rgb(0, 0, 0)" stroke="rgb(51, 51, 51)" stroke-width="0px"/><text class="type" text-anchor="middle" baseline-shift="30%" alignment-baseline="alphabetic" x="-595.969960668641" y="0" font-size="50px" font-family="&quot;Gill Sans&quot;, &quot;Gill Sans MT&quot;, Calibri, sans-serif" transform="rotate(180)">HAS_DRUG_EXPOSURE</text></g></g><g class="related-pair"><g class="relationship" transform="translate(-1100.3421347841636,-736.4637842847599) rotate(-1.2953366571326896)"><path class="relationship" d="M 108.24528049311195 4 L 1501.706722322307 4 L 1501.706722322307 16 L 1533.706722322307 0 L 1501.706722322307 -16 L 1501.706722322307 -4 L 108.24528049311195 -4 Z" fill="rgb(0, 0, 0)" stroke="rgb(51, 51, 51)" stroke-width="0px"/><text class="type" text-anchor="middle" baseline-shift="30%" alignment-baseline="alphabetic" x="804.9760014077095" y="0" font-size="50px" font-family="&quot;Gill Sans&quot;, &quot;Gill Sans MT&quot;, Calibri, sans-serif">HAS_ETHNICITY</text></g></g><g class="related-pair"><g class="relationship" transform="translate(557.4728077443457,-773.9498682691348) rotate(-32.09898823550107)"><path class="relationship" d="M 124.53197887944957 4 L 617.4005789068449 4 L 617.4005789068449 16 L 649.4005789068449 0 L 617.4005789068449 -16 L 617.4005789068449 -4 L 124.53197887944957 -4 Z" fill="rgb(0, 0, 0)" stroke="rgb(51, 51, 51)" stroke-width="0px"/><text class="type" text-anchor="middle" baseline-shift="30%" alignment-baseline="alphabetic" x="370.9662788931472" y="0" font-size="50px" font-family="&quot;Gill Sans&quot;, &quot;Gill Sans MT&quot;, Calibri, sans-serif">HAS_RACE</text></g></g><g class="related-pair"><g class="relationship" transform="translate(-1100.3421347841636,-736.4637842847599) rotate(-25.092425548167714)"><path class="relationship" d="M 108.24528049311195 4 L 1206.2097902957041 4 L 1206.2097902957041 16 L 1238.2097902957041 0 L 1206.2097902957041 -16 L 1206.2097902957041 -4 L 108.24528049311195 -4 Z" fill="rgb(0, 0, 0)" stroke="rgb(51, 51, 51)" stroke-width="0px"/><text class="type" text-anchor="middle" baseline-shift="30%" alignment-baseline="alphabetic" x="657.227535394408" y="0" font-size="50px" font-family="&quot;Gill Sans&quot;, &quot;Gill Sans MT&quot;, Calibri, sans-serif">HAS_GENDER</text></g></g><g class="related-pair"><g class="relationship" transform="translate(481.10571179707983,305.2738728873563) rotate(-1.4629211509161069)"><path class="relationship" d="M 201.32011375231983 4 L 1065.7250847811574 4 L 1065.7250847811574 16 L 1097.7250847811574 0 L 1065.7250847811574 -16 L 1065.7250847811574 -4 L 201.32011375231983 -4 Z" fill="rgb(0, 0, 0)" stroke="rgb(51, 51, 51)" stroke-width="0px"/><text class="type" text-anchor="middle" baseline-shift="30%" alignment-baseline="alphabetic" x="633.5225992667387" y="0" font-size="50px" font-family="&quot;Gill Sans&quot;, &quot;Gill Sans MT&quot;, Calibri, sans-serif">HAS_PROCEDURE_OCCURRENCE</text></g></g></g><g class="layer nodes"><circle class="node node-id-0" r="109.15660753625487" fill="rgb(255, 255, 255)" stroke="rgb(0, 0, 0)" stroke-width="8px" cx="-692.8173181777596" cy="425.2150907852249"/><circle class="node node-id-1" r="93.24528049311195" fill="rgb(255, 255, 255)" stroke="rgb(0, 0, 0)" stroke-width="8px" cx="-1100.3421347841636" cy="-736.4637842847599"/><circle class="node node-id-2" r="186.32011375231983" fill="rgb(255, 255, 255)" stroke="rgb(0, 0, 0)" stroke-width="8px" cx="481.10571179707983" cy="305.2738728873563"/><circle class="node node-id-3" r="244.14716871956352" fill="rgb(255, 255, 255)" stroke="rgb(0, 0, 0)" stroke-width="8px" cx="-432.0809290176033" cy="-1716.25689151983"/><circle class="node node-id-4" r="148.47509157954997" fill="rgb(255, 255, 255)" stroke="rgb(0, 0, 0)" stroke-width="8px" cx="-2336.693951005889" cy="-736.4637842847599"/><circle class="node node-id-5" r="213.66618565121374" fill="rgb(255, 255, 255)" stroke="rgb(0, 0, 0)" stroke-width="8px" cx="-2106.286429604225" cy="-1443.3079890453716"/><circle class="node node-id-6" r="158.9824472263332" fill="rgb(255, 255, 255)" stroke="rgb(0, 0, 0)" stroke-width="8px" cx="-1270.321600897956" cy="-1716.25689151983"/><circle class="node node-id-7" r="167.7227279442085" fill="rgb(255, 255, 255)" stroke="rgb(0, 0, 0)" stroke-width="8px" cx="-2106.286429604225" cy="84.48916155946175"/><circle class="node node-id-8" r="247.16817286622137" fill="rgb(255, 255, 255)" stroke="rgb(0, 0, 0)" stroke-width="8px" cx="1840.5557204041017" cy="270.55577539961473"/><circle class="node node-id-9" r="109.53197887944957" fill="rgb(255, 255, 255)" stroke="rgb(0, 0, 0)" stroke-width="8px" cx="557.4728077443457" cy="-773.9498682691348"/><circle class="node node-id-10" r="73.73655816335261" fill="rgb(255, 255, 255)" stroke="rgb(0, 0, 0)" stroke-width="8px" cx="1182.7718839518236" cy="-1166.1838525390629"/><circle class="node node-id-11" r="100.52775696816107" fill="rgb(255, 255, 255)" stroke="rgb(0, 0, 0)" stroke-width="8px" cx="125.63625532150284" cy="-1310.5564021313091"/><g class="caption"><text class="caption node" text-anchor="middle" alignment-baseline="central" x="-692.8173181777596" y="425.2150907852249" fill="rgb(51, 51, 51)" font-size="50px" font-family="&quot;Gill Sans&quot;, &quot;Gill Sans MT&quot;, Calibri, sans-serif">Provider</text></g><g class="caption"><text class="caption node" text-anchor="middle" alignment-baseline="central" x="-1100.3421347841636" y="-736.4637842847599" fill="rgb(51, 51, 51)" font-size="50px" font-family="&quot;Gill Sans&quot;, &quot;Gill Sans MT&quot;, Calibri, sans-serif">Person</text></g><g class="caption"><text class="caption node" text-anchor="middle" alignment-baseline="central" x="481.10571179707983" y="305.2738728873563" fill="rgb(51, 51, 51)" font-size="50px" font-family="&quot;Gill Sans&quot;, &quot;Gill Sans MT&quot;, Calibri, sans-serif">VisitOccurrence</text></g><g class="caption"><text class="caption node" text-anchor="middle" alignment-baseline="central" x="-432.0809290176033" y="-1716.25689151983" fill="rgb(51, 51, 51)" font-size="50px" font-family="&quot;Gill Sans&quot;, &quot;Gill Sans MT&quot;, Calibri, sans-serif">ConditionOccurrence</text></g><g class="caption"><text class="caption node" text-anchor="middle" alignment-baseline="central" x="-2336.693951005889" y="-736.4637842847599" fill="rgb(51, 51, 51)" font-size="50px" font-family="&quot;Gill Sans&quot;, &quot;Gill Sans MT&quot;, Calibri, sans-serif">Observation</text></g><g class="caption"><text class="caption node" text-anchor="middle" alignment-baseline="central" x="-2106.286429604225" y="-1443.3079890453716" fill="rgb(51, 51, 51)" font-size="50px" font-family="&quot;Gill Sans&quot;, &quot;Gill Sans MT&quot;, Calibri, sans-serif">ObservationPeriod</text></g><g class="caption"><text class="caption node" text-anchor="middle" alignment-baseline="central" x="-1270.321600897956" y="-1716.25689151983" fill="rgb(51, 51, 51)" font-size="50px" font-family="&quot;Gill Sans&quot;, &quot;Gill Sans MT&quot;, Calibri, sans-serif">Measurement</text></g><g class="caption"><text class="caption node" text-anchor="middle" alignment-baseline="central" x="-2106.286429604225" y="84.48916155946175" fill="rgb(51, 51, 51)" font-size="50px" font-family="&quot;Gill Sans&quot;, &quot;Gill Sans MT&quot;, Calibri, sans-serif">DrugExposure</text></g><g class="caption"><text class="caption node" text-anchor="middle" alignment-baseline="central" x="1840.5557204041017" y="270.55577539961473" fill="rgb(51, 51, 51)" font-size="50px" font-family="&quot;Gill Sans&quot;, &quot;Gill Sans MT&quot;, Calibri, sans-serif">ProcedureOccurrence</text></g><g class="caption"><text class="caption node" text-anchor="middle" alignment-baseline="central" x="557.4728077443457" y="-773.9498682691348" fill="rgb(51, 51, 51)" font-size="50px" font-family="&quot;Gill Sans&quot;, &quot;Gill Sans MT&quot;, Calibri, sans-serif">Ethnicity</text></g><g class="caption"><text class="caption node" text-anchor="middle" alignment-baseline="central" x="1182.7718839518236" y="-1166.1838525390629" fill="rgb(51, 51, 51)" font-size="50px" font-family="&quot;Gill Sans&quot;, &quot;Gill Sans MT&quot;, Calibri, sans-serif">Race</text></g><g class="caption"><text class="caption node" text-anchor="middle" alignment-baseline="central" x="125.63625532150284" y="-1310.5564021313091" fill="rgb(51, 51, 51)" font-size="50px" font-family="&quot;Gill Sans&quot;, &quot;Gill Sans MT&quot;, Calibri, sans-serif">Gender</text></g></g><g class="layer properties"><g class="speech-bubble node-speech-bubble" transform="translate(-801.9739257140145,425.2150907852249) "><path class="speech-bubble-outline" transform="scale(-1,1) " d="M 0 0 L 20 -10 L 20 -75 A 10 10 0 0 1 30 -85 L 311.9580078125 -85 A 10 10 0 0 1 321.9580078125 -75 L 321.9580078125 75 A 10 10 0 0 1 311.9580078125 85 L 30 85 A 10 10 0 0 1 20 75 L 20 10 Z" fill="rgb(255, 255, 255)" stroke="rgb(0, 0, 0)" stroke-width="3px"/><text class="speech-bubble-content property-key" x="-145.576171875" y="-50" alignment-baseline="central" text-anchor="end" font-size="50px" font-family="&quot;Gill Sans&quot;, &quot;Gill Sans MT&quot;, Calibri, sans-serif" xml:space="preserve">id: </text><text class="speech-bubble-content property-key" x="-145.576171875" y="0" alignment-baseline="central" text-anchor="end" font-size="50px" font-family="&quot;Gill Sans&quot;, &quot;Gill Sans MT&quot;, Calibri, sans-serif" xml:space="preserve">name: </text><text class="speech-bubble-content property-key" x="-145.576171875" y="50" alignment-baseline="central" text-anchor="end" font-size="50px" font-family="&quot;Gill Sans&quot;, &quot;Gill Sans MT&quot;, Calibri, sans-serif" xml:space="preserve">gender: </text><text class="speech-bubble-content property-value" x="-145.576171875" y="-50" alignment-baseline="central" font-size="50px" font-family="&quot;Gill Sans&quot;, &quot;Gill Sans MT&quot;, Calibri, sans-serif">0001</text><text class="speech-bubble-content property-value" x="-145.576171875" y="0" alignment-baseline="central" font-size="50px" font-family="&quot;Gill Sans&quot;, &quot;Gill Sans MT&quot;, Calibri, sans-serif">James</text><text class="speech-bubble-content property-value" x="-145.576171875" y="50" alignment-baseline="central" font-size="50px" font-family="&quot;Gill Sans&quot;, &quot;Gill Sans MT&quot;, Calibri, sans-serif">Male</text></g><g class="speech-bubble node-speech-bubble" transform="translate(-1100.3421347841636,-643.2185037916479) "><path class="speech-bubble-outline" transform="scale(1,1) " d="M 0 0 L -10 20 L -153.91845703125 20 A 10 10 0 0 0 -163.91845703125 30 L -163.91845703125 130 A 10 10 0 0 0 -153.91845703125 140 L 153.91845703125 140 A 10 10 0 0 0 163.91845703125 130 L 163.91845703125 30 A 10 10 0 0 0 153.91845703125 20 L 10 20 Z" fill="rgb(255, 255, 255)" stroke="rgb(0, 0, 0)" stroke-width="3px"/><text class="speech-bubble-content property-key" x="12.46337890625" y="55" alignment-baseline="central" text-anchor="end" font-size="50px" font-family="&quot;Gill Sans&quot;, &quot;Gill Sans MT&quot;, Calibri, sans-serif" xml:space="preserve">id: </text><text class="speech-bubble-content property-key" x="12.46337890625" y="105" alignment-baseline="central" text-anchor="end" font-size="50px" font-family="&quot;Gill Sans&quot;, &quot;Gill Sans MT&quot;, Calibri, sans-serif" xml:space="preserve">gender: </text><text class="speech-bubble-content property-value" x="12.46337890625" y="55" alignment-baseline="central" font-size="50px" font-family="&quot;Gill Sans&quot;, &quot;Gill Sans MT&quot;, Calibri, sans-serif">0001</text><text class="speech-bubble-content property-value" x="12.46337890625" y="105" alignment-baseline="central" font-size="50px" font-family="&quot;Gill Sans&quot;, &quot;Gill Sans MT&quot;, Calibri, sans-serif">Female</text></g><g class="speech-bubble node-speech-bubble" transform="translate(481.10571179707983,491.59398663967613) "><path class="speech-bubble-outline" transform="scale(1,1) " d="M 0 0 L -10 20 L -80.65185546875 20 A 10 10 0 0 0 -90.65185546875 30 L -90.65185546875 80 A 10 10 0 0 0 -80.65185546875 90 L 80.65185546875 90 A 10 10 0 0 0 90.65185546875 80 L 90.65185546875 30 A 10 10 0 0 0 80.65185546875 20 L 10 20 Z" fill="rgb(255, 255, 255)" stroke="rgb(0, 0, 0)" stroke-width="3px"/><text class="speech-bubble-content property-key" x="-19.34814453125" y="55" alignment-baseline="central" text-anchor="end" font-size="50px" font-family="&quot;Gill Sans&quot;, &quot;Gill Sans MT&quot;, Calibri, sans-serif" xml:space="preserve">id: </text><text class="speech-bubble-content property-value" x="-19.34814453125" y="55" alignment-baseline="central" font-size="50px" font-family="&quot;Gill Sans&quot;, &quot;Gill Sans MT&quot;, Calibri, sans-serif">0001</text></g><g class="speech-bubble node-speech-bubble" transform="translate(-259.44281040850376,-1888.8950101289297) "><path class="speech-bubble-outline" transform="scale(1,-1) " d="M 0 0 L 30 20 L 191.3037109375 20 A 10 10 0 0 1 201.3037109375 30 L 201.3037109375 80 A 10 10 0 0 1 191.3037109375 90 L 30 90 A 10 10 0 0 1 20 80 L 20 30 Z" fill="rgb(255, 255, 255)" stroke="rgb(0, 0, 0)" stroke-width="3px"/><text class="speech-bubble-content property-key" x="91.3037109375" y="-55" alignment-baseline="central" text-anchor="end" font-size="50px" font-family="&quot;Gill Sans&quot;, &quot;Gill Sans MT&quot;, Calibri, sans-serif" xml:space="preserve">id: </text><text class="speech-bubble-content property-value" x="91.3037109375" y="-55" alignment-baseline="central" font-size="50px" font-family="&quot;Gill Sans&quot;, &quot;Gill Sans MT&quot;, Calibri, sans-serif">0001</text></g><g class="speech-bubble node-speech-bubble" transform="translate(-2485.169042585439,-736.4637842847599) "><path class="speech-bubble-outline" transform="scale(-1,1) " d="M 0 0 L 20 -10 L 20 -25 A 10 10 0 0 1 30 -35 L 191.3037109375 -35 A 10 10 0 0 1 201.3037109375 -25 L 201.3037109375 25 A 10 10 0 0 1 191.3037109375 35 L 30 35 A 10 10 0 0 1 20 25 L 20 10 Z" fill="rgb(255, 255, 255)" stroke="rgb(0, 0, 0)" stroke-width="3px"/><text class="speech-bubble-content property-key" x="-130" y="0" alignment-baseline="central" text-anchor="end" font-size="50px" font-family="&quot;Gill Sans&quot;, &quot;Gill Sans MT&quot;, Calibri, sans-serif" xml:space="preserve">id: </text><text class="speech-bubble-content property-value" x="-130" y="0" alignment-baseline="central" font-size="50px" font-family="&quot;Gill Sans&quot;, &quot;Gill Sans MT&quot;, Calibri, sans-serif">0001</text></g><g class="speech-bubble node-speech-bubble" transform="translate(-2257.3712383884617,-1594.3927978296088) "><path class="speech-bubble-outline" transform="scale(-1,-1) " d="M 0 0 L 30 20 L 191.3037109375 20 A 10 10 0 0 1 201.3037109375 30 L 201.3037109375 80 A 10 10 0 0 1 191.3037109375 90 L 30 90 A 10 10 0 0 1 20 80 L 20 30 Z" fill="rgb(255, 255, 255)" stroke="rgb(0, 0, 0)" stroke-width="3px"/><text class="speech-bubble-content property-key" x="-130" y="-55" alignment-baseline="central" text-anchor="end" font-size="50px" font-family="&quot;Gill Sans&quot;, &quot;Gill Sans MT&quot;, Calibri, sans-serif" xml:space="preserve">id: </text><text class="speech-bubble-content property-value" x="-130" y="-55" alignment-baseline="central" font-size="50px" font-family="&quot;Gill Sans&quot;, &quot;Gill Sans MT&quot;, Calibri, sans-serif">0001</text></g><g class="speech-bubble node-speech-bubble" transform="translate(-1270.321600897956,-1875.2393387461634) "><path class="speech-bubble-outline" transform="scale(1,-1) " d="M 0 0 L -10 20 L -80.65185546875 20 A 10 10 0 0 0 -90.65185546875 30 L -90.65185546875 80 A 10 10 0 0 0 -80.65185546875 90 L 80.65185546875 90 A 10 10 0 0 0 90.65185546875 80 L 90.65185546875 30 A 10 10 0 0 0 80.65185546875 20 L 10 20 Z" fill="rgb(255, 255, 255)" stroke="rgb(0, 0, 0)" stroke-width="3px"/><text class="speech-bubble-content property-key" x="-19.34814453125" y="-55" alignment-baseline="central" text-anchor="end" font-size="50px" font-family="&quot;Gill Sans&quot;, &quot;Gill Sans MT&quot;, Calibri, sans-serif" xml:space="preserve">id: </text><text class="speech-bubble-content property-value" x="-19.34814453125" y="-55" alignment-baseline="central" font-size="50px" font-family="&quot;Gill Sans&quot;, &quot;Gill Sans MT&quot;, Calibri, sans-serif">0001</text></g><g class="speech-bubble node-speech-bubble" transform="translate(-2224.884307892681,203.08703984791802) "><path class="speech-bubble-outline" transform="scale(-1,1) " d="M 0 0 L 30 20 L 191.3037109375 20 A 10 10 0 0 1 201.3037109375 30 L 201.3037109375 80 A 10 10 0 0 1 191.3037109375 90 L 30 90 A 10 10 0 0 1 20 80 L 20 30 Z" fill="rgb(255, 255, 255)" stroke="rgb(0, 0, 0)" stroke-width="3px"/><text class="speech-bubble-content property-key" x="-130" y="55" alignment-baseline="central" text-anchor="end" font-size="50px" font-family="&quot;Gill Sans&quot;, &quot;Gill Sans MT&quot;, Calibri, sans-serif" xml:space="preserve">id: </text><text class="speech-bubble-content property-value" x="-130" y="55" alignment-baseline="central" font-size="50px" font-family="&quot;Gill Sans&quot;, &quot;Gill Sans MT&quot;, Calibri, sans-serif">0001</text></g><g class="speech-bubble node-speech-bubble" transform="translate(2087.723893270323,270.55577539961473) "><path class="speech-bubble-outline" transform="scale(1,1) " d="M 0 0 L 20 -10 L 20 -25 A 10 10 0 0 1 30 -35 L 191.3037109375 -35 A 10 10 0 0 1 201.3037109375 -25 L 201.3037109375 25 A 10 10 0 0 1 191.3037109375 35 L 30 35 A 10 10 0 0 1 20 25 L 20 10 Z" fill="rgb(255, 255, 255)" stroke="rgb(0, 0, 0)" stroke-width="3px"/><text class="speech-bubble-content property-key" x="91.3037109375" y="0" alignment-baseline="central" text-anchor="end" font-size="50px" font-family="&quot;Gill Sans&quot;, &quot;Gill Sans MT&quot;, Calibri, sans-serif" xml:space="preserve">id: </text><text class="speech-bubble-content property-value" x="91.3037109375" y="0" alignment-baseline="central" font-size="50px" font-family="&quot;Gill Sans&quot;, &quot;Gill Sans MT&quot;, Calibri, sans-serif">0001</text></g><g class="speech-bubble node-speech-bubble" transform="translate(557.4728077443457,-664.4178893896852) "><path class="speech-bubble-outline" transform="scale(1,1) " d="M 0 0 L -10 20 L -360.16845703125 20 A 10 10 0 0 0 -370.16845703125 30 L -370.16845703125 280 A 10 10 0 0 0 -360.16845703125 290 L 360.16845703125 290 A 10 10 0 0 0 370.16845703125 280 L 370.16845703125 30 A 10 10 0 0 0 360.16845703125 20 L 10 20 Z" fill="rgb(255, 255, 255)" stroke="rgb(0, 0, 0)" stroke-width="3px"/><text class="speech-bubble-content property-key" x="327.47802734375" y="55" alignment-baseline="central" text-anchor="end" font-size="50px" font-family="&quot;Gill Sans&quot;, &quot;Gill Sans MT&quot;, Calibri, sans-serif" xml:space="preserve">ethnicity_concept_id: </text><text class="speech-bubble-content property-key" x="327.47802734375" y="105" alignment-baseline="central" text-anchor="end" font-size="50px" font-family="&quot;Gill Sans&quot;, &quot;Gill Sans MT&quot;, Calibri, sans-serif" xml:space="preserve">ethnicity_concept_name: </text><text class="speech-bubble-content property-value" x="327.47802734375" y="55" alignment-baseline="central" font-size="50px" font-family="&quot;Gill Sans&quot;, &quot;Gill Sans MT&quot;, Calibri, sans-serif">' '</text><text class="speech-bubble-content property-value" x="327.47802734375" y="105" alignment-baseline="central" font-size="50px" font-family="&quot;Gill Sans&quot;, &quot;Gill Sans MT&quot;, Calibri, sans-serif">' '</text><text class="speech-bubble-content property-key" x="327.47802734375" y="155" alignment-baseline="central" text-anchor="end" font-size="50px" font-family="&quot;Gill Sans&quot;, &quot;Gill Sans MT&quot;, Calibri, sans-serif" xml:space="preserve">ethnicity_source_value: </text><text class="speech-bubble-content property-key" x="327.47802734375" y="205" alignment-baseline="central" text-anchor="end" font-size="50px" font-family="&quot;Gill Sans&quot;, &quot;Gill Sans MT&quot;, Calibri, sans-serif" xml:space="preserve">ethnicity_source_concept_id: </text><text class="speech-bubble-content property-key" x="327.47802734375" y="255" alignment-baseline="central" text-anchor="end" font-size="50px" font-family="&quot;Gill Sans&quot;, &quot;Gill Sans MT&quot;, Calibri, sans-serif" xml:space="preserve">ethnicity_source_concept_name: </text><text class="speech-bubble-content property-value" x="327.47802734375" y="155" alignment-baseline="central" font-size="50px" font-family="&quot;Gill Sans&quot;, &quot;Gill Sans MT&quot;, Calibri, sans-serif">' '</text><text class="speech-bubble-content property-value" x="327.47802734375" y="205" alignment-baseline="central" font-size="50px" font-family="&quot;Gill Sans&quot;, &quot;Gill Sans MT&quot;, Calibri, sans-serif">' '</text><text class="speech-bubble-content property-value" x="327.47802734375" y="255" alignment-baseline="central" font-size="50px" font-family="&quot;Gill Sans&quot;, &quot;Gill Sans MT&quot;, Calibri, sans-serif">' '</text></g><g class="speech-bubble node-speech-bubble" transform="translate(1234.9115042504866,-1218.3234728377258) "><path class="speech-bubble-outline" transform="scale(1,-1) " d="M 0 0 L 30 20 L 664.3505859375 20 A 10 10 0 0 1 674.3505859375 30 L 674.3505859375 280 A 10 10 0 0 1 664.3505859375 290 L 30 290 A 10 10 0 0 1 20 280 L 20 30 Z" fill="rgb(255, 255, 255)" stroke="rgb(0, 0, 0)" stroke-width="3px"/><text class="speech-bubble-content property-key" x="631.66015625" y="-255" alignment-baseline="central" text-anchor="end" font-size="50px" font-family="&quot;Gill Sans&quot;, &quot;Gill Sans MT&quot;, Calibri, sans-serif" xml:space="preserve">race_concept_id: </text><text class="speech-bubble-content property-key" x="631.66015625" y="-205" alignment-baseline="central" text-anchor="end" font-size="50px" font-family="&quot;Gill Sans&quot;, &quot;Gill Sans MT&quot;, Calibri, sans-serif" xml:space="preserve">race_concept_name: </text><text class="speech-bubble-content property-value" x="631.66015625" y="-255" alignment-baseline="central" font-size="50px" font-family="&quot;Gill Sans&quot;, &quot;Gill Sans MT&quot;, Calibri, sans-serif">' '</text><text class="speech-bubble-content property-value" x="631.66015625" y="-205" alignment-baseline="central" font-size="50px" font-family="&quot;Gill Sans&quot;, &quot;Gill Sans MT&quot;, Calibri, sans-serif">' '</text><text class="speech-bubble-content property-key" x="631.66015625" y="-155" alignment-baseline="central" text-anchor="end" font-size="50px" font-family="&quot;Gill Sans&quot;, &quot;Gill Sans MT&quot;, Calibri, sans-serif" xml:space="preserve">race_source_value: </text><text class="speech-bubble-content property-key" x="631.66015625" y="-105" alignment-baseline="central" text-anchor="end" font-size="50px" font-family="&quot;Gill Sans&quot;, &quot;Gill Sans MT&quot;, Calibri, sans-serif" xml:space="preserve">race_source_concept_id: </text><text class="speech-bubble-content property-key" x="631.66015625" y="-55" alignment-baseline="central" text-anchor="end" font-size="50px" font-family="&quot;Gill Sans&quot;, &quot;Gill Sans MT&quot;, Calibri, sans-serif" xml:space="preserve">race_source_concept_name: </text><text class="speech-bubble-content property-value" x="631.66015625" y="-155" alignment-baseline="central" font-size="50px" font-family="&quot;Gill Sans&quot;, &quot;Gill Sans MT&quot;, Calibri, sans-serif">' '</text><text class="speech-bubble-content property-value" x="631.66015625" y="-105" alignment-baseline="central" font-size="50px" font-family="&quot;Gill Sans&quot;, &quot;Gill Sans MT&quot;, Calibri, sans-serif">' '</text><text class="speech-bubble-content property-value" x="631.66015625" y="-55" alignment-baseline="central" font-size="50px" font-family="&quot;Gill Sans&quot;, &quot;Gill Sans MT&quot;, Calibri, sans-serif">' '</text></g><g class="speech-bubble node-speech-bubble" transform="translate(196.72011397116273,-1381.6402607809691) "><path class="speech-bubble-outline" transform="scale(1,-1) " d="M 0 0 L 30 20 L 716.8896484375 20 A 10 10 0 0 1 726.8896484375 30 L 726.8896484375 280 A 10 10 0 0 1 716.8896484375 290 L 30 290 A 10 10 0 0 1 20 280 L 20 30 Z" fill="rgb(255, 255, 255)" stroke="rgb(0, 0, 0)" stroke-width="3px"/><text class="speech-bubble-content property-key" x="684.19921875" y="-255" alignment-baseline="central" text-anchor="end" font-size="50px" font-family="&quot;Gill Sans&quot;, &quot;Gill Sans MT&quot;, Calibri, sans-serif" xml:space="preserve">gender_concept_id: </text><text class="speech-bubble-content property-key" x="684.19921875" y="-205" alignment-baseline="central" text-anchor="end" font-size="50px" font-family="&quot;Gill Sans&quot;, &quot;Gill Sans MT&quot;, Calibri, sans-serif" xml:space="preserve">gender_concept_name: </text><text class="speech-bubble-content property-value" x="684.19921875" y="-255" alignment-baseline="central" font-size="50px" font-family="&quot;Gill Sans&quot;, &quot;Gill Sans MT&quot;, Calibri, sans-serif">' '</text><text class="speech-bubble-content property-value" x="684.19921875" y="-205" alignment-baseline="central" font-size="50px" font-family="&quot;Gill Sans&quot;, &quot;Gill Sans MT&quot;, Calibri, sans-serif">' '</text><text class="speech-bubble-content property-key" x="684.19921875" y="-155" alignment-baseline="central" text-anchor="end" font-size="50px" font-family="&quot;Gill Sans&quot;, &quot;Gill Sans MT&quot;, Calibri, sans-serif" xml:space="preserve">gender_source_value: </text><text class="speech-bubble-content property-value" x="684.19921875" y="-155" alignment-baseline="central" font-size="50px" font-family="&quot;Gill Sans&quot;, &quot;Gill Sans MT&quot;, Calibri, sans-serif">' '</text><text class="speech-bubble-content property-key" x="684.19921875" y="-105" alignment-baseline="central" text-anchor="end" font-size="50px" font-family="&quot;Gill Sans&quot;, &quot;Gill Sans MT&quot;, Calibri, sans-serif" xml:space="preserve">gender_source_concept_id: </text><text class="speech-bubble-content property-key" x="684.19921875" y="-55" alignment-baseline="central" text-anchor="end" font-size="50px" font-family="&quot;Gill Sans&quot;, &quot;Gill Sans MT&quot;, Calibri, sans-serif" xml:space="preserve">gender_source_concept_name: </text><text class="speech-bubble-content property-value" x="684.19921875" y="-105" alignment-baseline="central" font-size="50px" font-family="&quot;Gill Sans&quot;, &quot;Gill Sans MT&quot;, Calibri, sans-serif">' '</text><text class="speech-bubble-content property-value" x="684.19921875" y="-55" alignment-baseline="central" font-size="50px" font-family="&quot;Gill Sans&quot;, &quot;Gill Sans MT&quot;, Calibri, sans-serif">' '</text></g><g class="speech-bubble relationship-speech-bubble" transform="translate(-361.84314343675123,-249.99677196226293) "><path class="speech-bubble-outline" transform="scale(-1,1) " d="M 0 0 L 30 20 L 586.982421875 20 A 10 10 0 0 1 596.982421875 30 L 596.982421875 130 A 10 10 0 0 1 586.982421875 140 L 30 140 A 10 10 0 0 1 20 130 L 20 30 Z" fill="rgb(255, 255, 255)" stroke="rgb(0, 0, 0)" stroke-width="3px"/><text class="speech-bubble-content property-key" x="-262.32421875" y="55" alignment-baseline="central" text-anchor="end" font-size="50px" font-family="&quot;Gill Sans&quot;, &quot;Gill Sans MT&quot;, Calibri, sans-serif" xml:space="preserve">start_datetime: </text><text class="speech-bubble-content property-key" x="-262.32421875" y="105" alignment-baseline="central" text-anchor="end" font-size="50px" font-family="&quot;Gill Sans&quot;, &quot;Gill Sans MT&quot;, Calibri, sans-serif" xml:space="preserve">end_datetime: </text><text class="speech-bubble-content property-value" x="-262.32421875" y="55" alignment-baseline="central" font-size="50px" font-family="&quot;Gill Sans&quot;, &quot;Gill Sans MT&quot;, Calibri, sans-serif">01-01-2090</text><text class="speech-bubble-content property-value" x="-262.32421875" y="105" alignment-baseline="central" font-size="50px" font-family="&quot;Gill Sans&quot;, &quot;Gill Sans MT&quot;, Calibri, sans-serif">01-01-2090</text></g><g class="speech-bubble relationship-speech-bubble" transform="translate(-817.7408200556451,-1150.808980260861) "><path class="speech-bubble-outline" transform="scale(1,1) " d="M 0 0 L 30 20 L 586.982421875 20 A 10 10 0 0 1 596.982421875 30 L 596.982421875 130 A 10 10 0 0 1 586.982421875 140 L 30 140 A 10 10 0 0 1 20 130 L 20 30 Z" fill="rgb(255, 255, 255)" stroke="rgb(0, 0, 0)" stroke-width="3px"/><text class="speech-bubble-content property-key" x="354.658203125" y="55" alignment-baseline="central" text-anchor="end" font-size="50px" font-family="&quot;Gill Sans&quot;, &quot;Gill Sans MT&quot;, Calibri, sans-serif" xml:space="preserve">start_datetime: </text><text class="speech-bubble-content property-key" x="354.658203125" y="105" alignment-baseline="central" text-anchor="end" font-size="50px" font-family="&quot;Gill Sans&quot;, &quot;Gill Sans MT&quot;, Calibri, sans-serif" xml:space="preserve">end_datetime: </text><text class="speech-bubble-content property-value" x="354.658203125" y="55" alignment-baseline="central" font-size="50px" font-family="&quot;Gill Sans&quot;, &quot;Gill Sans MT&quot;, Calibri, sans-serif">01-01-2090</text><text class="speech-bubble-content property-value" x="354.658203125" y="105" alignment-baseline="central" font-size="50px" font-family="&quot;Gill Sans&quot;, &quot;Gill Sans MT&quot;, Calibri, sans-serif">01-01-2090</text></g><g class="speech-bubble relationship-speech-bubble" transform="translate(-1674.9031373518073,-736.4637842847599) "><path class="speech-bubble-outline" transform="scale(1,1) " d="M 0 0 L -10 20 L -217.3583984375 20 A 10 10 0 0 0 -227.3583984375 30 L -227.3583984375 80 A 10 10 0 0 0 -217.3583984375 90 L 217.3583984375 90 A 10 10 0 0 0 227.3583984375 80 L 227.3583984375 30 A 10 10 0 0 0 217.3583984375 20 L 10 20 Z" fill="rgb(255, 255, 255)" stroke="rgb(0, 0, 0)" stroke-width="3px"/><text class="speech-bubble-content property-key" x="-14.9658203125" y="55" alignment-baseline="central" text-anchor="end" font-size="50px" font-family="&quot;Gill Sans&quot;, &quot;Gill Sans MT&quot;, Calibri, sans-serif" xml:space="preserve">datetime: </text><text class="speech-bubble-content property-value" x="-14.9658203125" y="55" alignment-baseline="central" font-size="50px" font-family="&quot;Gill Sans&quot;, &quot;Gill Sans MT&quot;, Calibri, sans-serif">01-01-2090</text></g><g class="speech-bubble relationship-speech-bubble" transform="translate(-1540.9584854837672,-1046.0705046752705) "><path class="speech-bubble-outline" transform="scale(-1,1) " d="M 0 0 L 30 20 L 464.716796875 20 A 10 10 0 0 1 474.716796875 30 L 474.716796875 80 A 10 10 0 0 1 464.716796875 90 L 30 90 A 10 10 0 0 1 20 80 L 20 30 Z" fill="rgb(255, 255, 255)" stroke="rgb(0, 0, 0)" stroke-width="3px"/><text class="speech-bubble-content property-key" x="-262.32421875" y="55" alignment-baseline="central" text-anchor="end" font-size="50px" font-family="&quot;Gill Sans&quot;, &quot;Gill Sans MT&quot;, Calibri, sans-serif" xml:space="preserve">datetime: </text><text class="speech-bubble-content property-value" x="-262.32421875" y="55" alignment-baseline="central" font-size="50px" font-family="&quot;Gill Sans&quot;, &quot;Gill Sans MT&quot;, Calibri, sans-serif">01-01-2090</text></g><g class="speech-bubble relationship-speech-bubble" transform="translate(-1176.978670233343,-1178.2109606479025) "><path class="speech-bubble-outline" transform="scale(-1,1) " d="M 0 0 L 30 20 L 464.716796875 20 A 10 10 0 0 1 474.716796875 30 L 474.716796875 80 A 10 10 0 0 1 464.716796875 90 L 30 90 A 10 10 0 0 1 20 80 L 20 30 Z" fill="rgb(255, 255, 255)" stroke="rgb(0, 0, 0)" stroke-width="3px"/><text class="speech-bubble-content property-key" x="-262.32421875" y="55" alignment-baseline="central" text-anchor="end" font-size="50px" font-family="&quot;Gill Sans&quot;, &quot;Gill Sans MT&quot;, Calibri, sans-serif" xml:space="preserve">datetime: </text><text class="speech-bubble-content property-value" x="-262.32421875" y="55" alignment-baseline="central" font-size="50px" font-family="&quot;Gill Sans&quot;, &quot;Gill Sans MT&quot;, Calibri, sans-serif">01-01-2090</text></g><g class="speech-bubble relationship-speech-bubble" transform="translate(-1562.0677680281124,-359.64866565911865) "><path class="speech-bubble-outline" transform="scale(1,1) " d="M 0 0 L 30 20 L 586.982421875 20 A 10 10 0 0 1 596.982421875 30 L 596.982421875 130 A 10 10 0 0 1 586.982421875 140 L 30 140 A 10 10 0 0 1 20 130 L 20 30 Z" fill="rgb(255, 255, 255)" stroke="rgb(0, 0, 0)" stroke-width="3px"/><text class="speech-bubble-content property-key" x="354.658203125" y="55" alignment-baseline="central" text-anchor="end" font-size="50px" font-family="&quot;Gill Sans&quot;, &quot;Gill Sans MT&quot;, Calibri, sans-serif" xml:space="preserve">start_datetime: </text><text class="speech-bubble-content property-key" x="354.658203125" y="105" alignment-baseline="central" text-anchor="end" font-size="50px" font-family="&quot;Gill Sans&quot;, &quot;Gill Sans MT&quot;, Calibri, sans-serif" xml:space="preserve">end_datetime: </text><text class="speech-bubble-content property-value" x="354.658203125" y="55" alignment-baseline="central" font-size="50px" font-family="&quot;Gill Sans&quot;, &quot;Gill Sans MT&quot;, Calibri, sans-serif">01-01-2090</text><text class="speech-bubble-content property-value" x="354.658203125" y="105" alignment-baseline="central" font-size="50px" font-family="&quot;Gill Sans&quot;, &quot;Gill Sans MT&quot;, Calibri, sans-serif">01-01-2090</text></g><g class="speech-bubble relationship-speech-bubble" transform="translate(1114.42181817727,289.10003039027606) "><path class="speech-bubble-outline" transform="scale(1,1) " d="M 0 0 L -10 20 L -217.3583984375 20 A 10 10 0 0 0 -227.3583984375 30 L -227.3583984375 80 A 10 10 0 0 0 -217.3583984375 90 L 217.3583984375 90 A 10 10 0 0 0 227.3583984375 80 L 227.3583984375 30 A 10 10 0 0 0 217.3583984375 20 L 10 20 Z" fill="rgb(255, 255, 255)" stroke="rgb(0, 0, 0)" stroke-width="3px"/><text class="speech-bubble-content property-key" x="-14.9658203125" y="55" alignment-baseline="central" text-anchor="end" font-size="50px" font-family="&quot;Gill Sans&quot;, &quot;Gill Sans MT&quot;, Calibri, sans-serif" xml:space="preserve">datetime: </text><text class="speech-bubble-content property-value" x="-14.9658203125" y="55" alignment-baseline="central" font-size="50px" font-family="&quot;Gill Sans&quot;, &quot;Gill Sans MT&quot;, Calibri, sans-serif">01-01-2090</text></g></g><g class="layer overlay"><circle class="node overlay" r="113.15660753625487" stroke="none" fill="rgba(255, 255, 255, 0)" cx="-692.8173181777596" cy="425.2150907852249"/><circle class="node overlay" r="97.24528049311195" stroke="none" fill="rgba(255, 255, 255, 0)" cx="-1100.3421347841636" cy="-736.4637842847599"/><circle class="node overlay" r="190.32011375231983" stroke="none" fill="rgba(255, 255, 255, 0)" cx="481.10571179707983" cy="305.2738728873563"/><circle class="node overlay" r="248.14716871956352" stroke="none" fill="rgba(255, 255, 255, 0)" cx="-432.0809290176033" cy="-1716.25689151983"/><circle class="node overlay" r="152.47509157954997" stroke="none" fill="rgba(255, 255, 255, 0)" cx="-2336.693951005889" cy="-736.4637842847599"/><circle class="node overlay" r="217.66618565121374" stroke="none" fill="rgba(255, 255, 255, 0)" cx="-2106.286429604225" cy="-1443.3079890453716"/><circle class="node overlay" r="162.9824472263332" stroke="none" fill="rgba(255, 255, 255, 0)" cx="-1270.321600897956" cy="-1716.25689151983"/><circle class="node overlay" r="171.7227279442085" stroke="none" fill="rgba(255, 255, 255, 0)" cx="-2106.286429604225" cy="84.48916155946175"/><circle class="node overlay" r="251.16817286622137" stroke="none" fill="rgba(255, 255, 255, 0)" cx="1840.5557204041017" cy="270.55577539961473"/><circle class="node overlay" r="113.53197887944957" stroke="none" fill="rgba(255, 255, 255, 0)" cx="557.4728077443457" cy="-773.9498682691348"/><circle class="node overlay" r="77.73655816335261" stroke="none" fill="rgba(255, 255, 255, 0)" cx="1182.7718839518236" cy="-1166.1838525390629"/><circle class="node overlay" r="104.52775696816107" stroke="none" fill="rgba(255, 255, 255, 0)" cx="125.63625532150284" cy="-1310.5564021313091"/><circle class="node ring" r="118.15660753625487" fill="none" stroke="rgba(255, 255, 255, 0)" stroke-width="10px" cx="-692.8173181777596" cy="425.2150907852249"/><circle class="node ring" r="102.24528049311195" fill="none" stroke="rgba(255, 255, 255, 0)" stroke-width="10px" cx="-1100.3421347841636" cy="-736.4637842847599"/><circle class="node ring" r="195.32011375231983" fill="none" stroke="rgba(255, 255, 255, 0)" stroke-width="10px" cx="481.10571179707983" cy="305.2738728873563"/><circle class="node ring" r="253.14716871956352" fill="none" stroke="rgba(255, 255, 255, 0)" stroke-width="10px" cx="-432.0809290176033" cy="-1716.25689151983"/><circle class="node ring" r="157.47509157954997" fill="none" stroke="rgba(255, 255, 255, 0)" stroke-width="10px" cx="-2336.693951005889" cy="-736.4637842847599"/><circle class="node ring" r="222.66618565121374" fill="none" stroke="rgba(255, 255, 255, 0)" stroke-width="10px" cx="-2106.286429604225" cy="-1443.3079890453716"/><circle class="node ring" r="167.9824472263332" fill="none" stroke="rgba(255, 255, 255, 0)" stroke-width="10px" cx="-1270.321600897956" cy="-1716.25689151983"/><circle class="node ring" r="176.7227279442085" fill="none" stroke="rgba(255, 255, 255, 0)" stroke-width="10px" cx="-2106.286429604225" cy="84.48916155946175"/><circle class="node ring" r="256.16817286622137" fill="none" stroke="rgba(255, 255, 255, 0)" stroke-width="10px" cx="1840.5557204041017" cy="270.55577539961473"/><circle class="node ring" r="118.53197887944957" fill="none" stroke="rgba(255, 255, 255, 0)" stroke-width="10px" cx="557.4728077443457" cy="-773.9498682691348"/><circle class="node ring" r="82.73655816335261" fill="none" stroke="rgba(255, 255, 255, 0)" stroke-width="10px" cx="1182.7718839518236" cy="-1166.1838525390629"/><circle class="node ring" r="109.52775696816107" fill="none" stroke="rgba(255, 255, 255, 0)" stroke-width="10px" cx="125.63625532150284" cy="-1310.5564021313091"/><path class="relationship overlay" fill="rgba(255, 255, 255, 0)" stroke="rgba(255, 255, 255, 0)" stroke-width="10px" transform="translate(-1100.3421347841636,-736.4637842847599) rotate(33.37385541838922)" d="M 108.24528049311195 4 L 1660.4049554768173 4 L 1660.4049554768173 16 L 1692.4049554768173 0 L 1660.4049554768173 -16 L 1660.4049554768173 -4 L 108.24528049311195 -4 Z"/><path class="relationship overlay" fill="rgba(255, 255, 255, 0)" stroke="rgba(255, 255, 255, 0)" stroke-width="10px" transform="translate(-1100.3421347841636,-736.4637842847599) rotate(-55.70432361099601)" d="M 108.24528049311195 4 L 894.8408464466654 4 L 894.8408464466654 16 L 926.8408464466654 0 L 894.8408464466654 -16 L 894.8408464466654 -4 L 108.24528049311195 -4 Z"/><path class="relationship overlay" fill="rgba(255, 255, 255, 0)" stroke="rgba(255, 255, 255, 0)" stroke-width="10px" transform="translate(-1100.3421347841636,-736.4637842847599) rotate(180)" d="M 108.24528049311195 4 L 1040.8767246421755 4 L 1040.8767246421755 16 L 1072.8767246421755 0 L 1040.8767246421755 -16 L 1040.8767246421755 -4 L 108.24528049311195 -4 Z"/><path class="relationship overlay" fill="rgba(255, 255, 255, 0)" stroke="rgba(255, 255, 255, 0)" stroke-width="10px" transform="translate(-1100.3421347841636,-736.4637842847599) rotate(-144.9055394939011)" d="M 108.24528049311195 4 L 968.7859907609848 4 L 968.7859907609848 16 L 1000.7859907609848 0 L 968.7859907609848 -16 L 968.7859907609848 -4 L 108.24528049311195 -4 Z"/><path class="relationship overlay" fill="rgba(255, 255, 255, 0)" stroke="rgba(255, 255, 255, 0)" stroke-width="10px" transform="translate(-1100.3421347841636,-736.4637842847599) rotate(-99.84200348596063)" d="M 108.24528049311195 4 L 788.4458065384539 4 L 788.4458065384539 16 L 820.4458065384539 0 L 788.4458065384539 -16 L 788.4458065384539 -4 L 108.24528049311195 -4 Z"/><path class="relationship overlay" fill="rgba(255, 255, 255, 0)" stroke="rgba(255, 255, 255, 0)" stroke-width="10px" transform="translate(-1100.3421347841636,-736.4637842847599) rotate(140.78205384193063)" d="M 108.24528049311195 4 L 1083.69464084417 4 L 1083.69464084417 16 L 1115.69464084417 0 L 1083.69464084417 -16 L 1083.69464084417 -4 L 108.24528049311195 -4 Z"/><path class="relationship overlay" fill="rgba(255, 255, 255, 0)" stroke="rgba(255, 255, 255, 0)" stroke-width="10px" transform="translate(-1100.3421347841636,-736.4637842847599) rotate(-1.2953366571326896)" d="M 108.24528049311195 4 L 1501.706722322307 4 L 1501.706722322307 16 L 1533.706722322307 0 L 1501.706722322307 -16 L 1501.706722322307 -4 L 108.24528049311195 -4 Z"/><path class="relationship overlay" fill="rgba(255, 255, 255, 0)" stroke="rgba(255, 255, 255, 0)" stroke-width="10px" transform="translate(557.4728077443457,-773.9498682691348) rotate(-32.09898823550107)" d="M 124.53197887944957 4 L 617.4005789068449 4 L 617.4005789068449 16 L 649.4005789068449 0 L 617.4005789068449 -16 L 617.4005789068449 -4 L 124.53197887944957 -4 Z"/><path class="relationship overlay" fill="rgba(255, 255, 255, 0)" stroke="rgba(255, 255, 255, 0)" stroke-width="10px" transform="translate(-1100.3421347841636,-736.4637842847599) rotate(-25.092425548167714)" d="M 108.24528049311195 4 L 1206.2097902957041 4 L 1206.2097902957041 16 L 1238.2097902957041 0 L 1206.2097902957041 -16 L 1206.2097902957041 -4 L 108.24528049311195 -4 Z"/><path class="relationship overlay" fill="rgba(255, 255, 255, 0)" stroke="rgba(255, 255, 255, 0)" stroke-width="10px" transform="translate(481.10571179707983,305.2738728873563) rotate(-1.4629211509161069)" d="M 201.32011375231983 4 L 1065.7250847811574 4 L 1065.7250847811574 16 L 1097.7250847811574 0 L 1065.7250847811574 -16 L 1065.7250847811574 -4 L 201.32011375231983 -4 Z"/></g></svg>