<?xml version="1.0" standalone="no"?>
<svg xmlns:xlink="http://www.w3.org/1999/xlink" xmlns="http://www.w3.org/2000/svg" width="1464" height="576"><defs><marker id="canvasArrow" viewBox="0 -5 10 10" refX="5" refY="0" markerWidth="4" markerHeight="4" orient="auto"><path d="M0,-5L10,0L0,5" class="arrowHead"/></marker></defs><g transform="translate(604.7999633789059,123.3999988555907) scale(0.4)"><g class="grid"/><g id="relationshiptype_Rel1" class="relationshipType"><path class="relationshipLine arrow" d="M92.57359312880715,417.42640687119285C81.08442598403856,432.04044836546717,69.59525883926997,446.6544898597416,57.69895466372631,438.43932841636456C45.80265048818264,430.2241669729875,33.4992092818639,399.1798025919588,35.48152733278033,384.80171403295606C37.463845383696764,370.42362547395334,53.73192269184838,372.71181273697664,70,375" marker-end="url(#canvasArrow)" style="fill: none; stroke: gray; stroke-width: 2;"/><title class="relationshipTypeTooltip">NEXT</title><text class="displayText" x="39.199204738163026" y="414.68198868358104" text-anchor="middle" baseline-shift="30%" alignment-baseline="alphabetic" font-family="Roboto, sans-serif" font-size="14" style="fill: black;" transform="rotate(-112.50000000000003 39.199204738163026 414.68198868358104)">NEXT</text></g><g id="relationshiptype_Rel80" class="relationshipType"><path class="relationshipLine arrow" d="M-347.42640687119285,37.42640687119285C-358.9155740159615,52.04044836546725,-370.40474116073005,66.65448985974166,-382.30104533627366,58.43932841636454C-394.19734951181727,50.22416697298742,-406.5007907181361,19.17980259195876,-404.51847266721967,4.801714032956081C-402.53615461630324,-9.576374526046598,-386.26807730815165,-7.288187263023299,-370,-5" marker-end="url(#canvasArrow)" style="fill: none; stroke: gray; stroke-width: 2;"/><title class="relationshipTypeTooltip">RELATED_TO</title><text class="displayText" x="-400.800795261837" y="34.68198868358103" text-anchor="middle" baseline-shift="30%" alignment-baseline="alphabetic" font-family="Roboto, sans-serif" font-size="14" style="fill: black;" transform="rotate(-112.49999999999994 -400.800795261837 34.68198868358103)">RELATED_TO</text></g><g id="relationshiptype_Rel79" class="relationshipType"><path class="relationshipLine arrow" d="M-634.7920092327466,-56.53872276496096C-588.3573321185106,-62.21336395792348,-541.9226550042745,-67.88800515088599,-497.3422335516664,-61.20094193299479C-452.7618120990583,-54.51387871510358,-410.0356463080784,-35.46511108635866,-367.3094805170985,-16.416343457613742" marker-end="url(#canvasArrow)" style="fill: none; stroke: gray; stroke-width: 2;"/><title class="relationshipTypeTooltip">HAS_CONCEPT</title><text class="displayText" x="-495.36436084592987" y="-60.9042610271343" text-anchor="middle" baseline-shift="30%" alignment-baseline="alphabetic" font-family="Roboto, sans-serif" font-size="14" style="fill: black;" transform="rotate(8.530765609948133 -495.36436084592987 -60.9042610271343)">HAS_CONCEPT</text></g><g id="relationshiptype_Rel78" class="relationshipType"><path class="relationshipLine arrow" d="M-623.932580126539,146.52602609887748C-586.1338045043994,114.78989814521356,-548.3350288822598,83.05377019154966,-505.18517395088224,62.61436522405499C-462.03531901950464,42.174960256560325,-413.5343847788889,33.032278275234894,-365.0334505382732,23.889596293909463" marker-end="url(#canvasArrow)" style="fill: none; stroke: gray; stroke-width: 2;"/><title class="relationshipTypeTooltip">HAS_CONCEPT</title><text class="displayText" x="-503.3776982730952" y="61.75819253457692" text-anchor="middle" baseline-shift="30%" alignment-baseline="alphabetic" font-family="Roboto, sans-serif" font-size="14" style="fill: black;" transform="rotate(-25.34617594194669 -503.3776982730952 61.75819253457692)">HAS_CONCEPT</text></g><g id="relationshiptype_Rel52" class="relationshipType"><path class="relationshipLine arrow" d="M1198.1181435164578,720.1094032731471C1032.713448051829,666.9436083023734,867.3087525871997,613.7778133315996,701.9040571225705,560.6120183608261C536.4993616579413,507.4462233900526,371.09466619331226,454.2804284192789,205.68997072868325,401.1146334485053" marker-end="url(#canvasArrow)" style="fill: none; stroke: gray; stroke-width: 2;"/><title class="relationshipTypeTooltip">ASSOCIATED_DURING_VISIT</title><text class="displayText" x="700" y="560" text-anchor="middle" baseline-shift="30%" alignment-baseline="alphabetic" font-family="Roboto, sans-serif" font-size="14" style="fill: black;" transform="rotate(17.818888914522773 700 560)">ASSOCIATED_DURING_VISIT</text></g><g id="relationshiptype_Rel73" class="relationshipType"><path class="relationshipLine arrow" d="M776.7497813131494,205.01968504785117C671.815241067093,180.1667676211536,566.8807008210365,155.31385019445605,461.94616057498,130.46093276775844C357.0116203289235,105.60801534106083,252.0770800828671,80.75509791436326,147.14253983681067,55.90218048766568" marker-end="url(#canvasArrow)" style="fill: none; stroke: gray; stroke-width: 2;"/><title class="relationshipTypeTooltip">HAS_MEASUREMENT</title><text class="displayText" x="460" y="130" text-anchor="middle" baseline-shift="30%" alignment-baseline="alphabetic" font-family="Roboto, sans-serif" font-size="14" style="fill: black;" transform="rotate(13.324531261890769 460 130)">HAS_MEASUREMENT</text></g><g id="relationshiptype_Rel69" class="relationshipType"><path class="relationshipLine arrow" d="M798.528838791229,270.05140145886156C716.1112377706528,369.5209199319707,633.6936367500766,468.9904384050798,551.2760357295006,568.4599568781889C468.8584347089245,667.929475351298,386.4408336883484,767.3989938244072,304.0232326677723,866.8685122975162" marker-end="url(#canvasArrow)" style="fill: none; stroke: gray; stroke-width: 2;"/><title class="relationshipTypeTooltip">HAS_PROCEDURE_OCCURRENCE</title><text class="displayText" x="550" y="570" text-anchor="middle" baseline-shift="30%" alignment-baseline="alphabetic" font-family="Roboto, sans-serif" font-size="14" style="fill: black;" transform="rotate(-50.35582504285517 550 570)">HAS_PROCEDURE_OCCURRENCE</text></g><g id="relationshiptype_Rel75" class="relationshipType"><path class="relationshipLine arrow" d="M874.0663326681818,164.64220941420464C889.0281568283451,140.32924515393947,903.9899809885081,116.01628089367428,918.9518051486714,91.70331663340909C933.9136293088346,67.3903523731439,948.8754534689978,43.07738811287871,963.8372776291609,18.764423852613525" marker-end="url(#canvasArrow)" style="fill: none; stroke: gray; stroke-width: 2;"/><title class="relationshipTypeTooltip">HAS_RACE</title><text class="displayText" x="920" y="90" text-anchor="middle" baseline-shift="30%" alignment-baseline="alphabetic" font-family="Roboto, sans-serif" font-size="14" style="fill: black;" transform="rotate(-58.3924977537511 920 90)">HAS_RACE</text></g><g id="relationshiptype_Rel72" class="relationshipType"><path class="relationshipLine arrow" d="M823.2519277135784,157.19472892591898C815.673060242759,128.7739759103468,808.0941927719399,100.35322289477466,800.5153253011207,71.93246987920249C792.9364578303015,43.51171686363032,785.3575903594822,15.090963848058156,777.778722888663,-13.329789167514008" marker-end="url(#canvasArrow)" style="fill: none; stroke: gray; stroke-width: 2;"/><title class="relationshipTypeTooltip">HAS_GENDER</title><text class="displayText" x="800" y="70" text-anchor="middle" baseline-shift="30%" alignment-baseline="alphabetic" font-family="Roboto, sans-serif" font-size="14" style="fill: black;" transform="rotate(75.06858282186245 800 70)">HAS_GENDER</text></g><g id="relationshiptype_Rel62" class="relationshipType"><path class="relationshipLine arrow" d="M939.9062993839742,874.7762949962214C982.6564426725575,856.7762346641864,1025.4065859611408,838.7761743321513,1068.1567292497239,820.7761140001162C1110.906872538307,802.7760536680811,1153.65701582689,784.7759933360461,1196.4071591154734,766.7759330040111" marker-end="url(#canvasArrow)" style="fill: none; stroke: gray; stroke-width: 2;"/><title class="relationshipTypeTooltip">RESPONSIBLE_FOR</title><text class="displayText" x="1070" y="820" text-anchor="middle" baseline-shift="30%" alignment-baseline="alphabetic" font-family="Roboto, sans-serif" font-size="14" style="fill: black;" transform="rotate(-22.83365417791754 1070 820)">RESPONSIBLE_FOR</text></g><g id="relationshiptype_Rel65" class="relationshipType"><path class="relationshipLine arrow" d="M815.3225826363507,893.5322582636351C670.8784132177071,879.0878413217706,526.4342437990636,864.6434243799062,381.99007438041997,850.1990074380419C237.5459049617764,835.7545904961777,93.10173554313282,821.3101735543132,-51.34243387551075,806.8657566124489" marker-end="url(#canvasArrow)" style="fill: none; stroke: gray; stroke-width: 2;"/><title class="relationshipTypeTooltip">INITIATED</title><text class="displayText" x="380" y="850" text-anchor="middle" baseline-shift="30%" alignment-baseline="alphabetic" font-family="Roboto, sans-serif" font-size="14" style="fill: black;" transform="rotate(5.710593137499643 380 850)">INITIATED</text></g><g id="relationshiptype_Rel63" class="relationshipType"><path class="relationshipLine arrow" d="M835.7282437389763,852.4078620193995C717.6062317876358,725.4266991717084,599.4842198362951,598.4455363240172,481.36220788495456,471.46437347632616C363.24019593361396,344.48321062863505,245.1181839822734,217.5020477809439,126.99617203093283,90.52088493325277" marker-end="url(#canvasArrow)" style="fill: none; stroke: gray; stroke-width: 2;"/><title class="relationshipTypeTooltip">RESPONSIBLE_FOR</title><text class="displayText" x="480" y="470" text-anchor="middle" baseline-shift="30%" alignment-baseline="alphabetic" font-family="Roboto, sans-serif" font-size="14" style="fill: black;" transform="rotate(47.0700306530411 480 470)">RESPONSIBLE_FOR</text></g><g id="relationshiptype_Rel54" class="relationshipType"><path class="relationshipLine arrow" d="M-85.7869500499408,744.7327654652889C-54.2088697763714,693.7220204079845,-22.630789502801996,642.71127535068,8.94729077076741,591.7005302933757C40.525371044336815,540.6897852360713,72.10345131790622,489.67904017876685,103.68153159147562,438.66829512146245" marker-end="url(#canvasArrow)" style="fill: none; stroke: gray; stroke-width: 2;"/><title class="relationshipTypeTooltip">ASSOCIATED_DURING_VISIT</title><text class="displayText" x="10" y="590" text-anchor="middle" baseline-shift="30%" alignment-baseline="alphabetic" font-family="Roboto, sans-serif" font-size="14" style="fill: black;" transform="rotate(-58.240519915187214 10 590)">ASSOCIATED_DURING_VISIT</text></g><g id="relationshiptype_Rel76" class="relationshipType"><path class="relationshipLine arrow" d="M785.162003297413,185.10309300744464C730.6704431900966,150.42664566642517,676.1788830827805,115.75019832540576,621.6873229754642,81.07375098438632C567.1957628681479,46.39730364336689,512.7042027608317,11.720856302347446,458.2126426535154,-22.955591038671997" marker-end="url(#canvasArrow)" style="fill: none; stroke: gray; stroke-width: 2;"/><title class="relationshipTypeTooltip">HAS_CONDITION_OCCURRENCE</title><text class="displayText" x="620" y="80" text-anchor="middle" baseline-shift="30%" alignment-baseline="alphabetic" font-family="Roboto, sans-serif" font-size="14" style="fill: black;" transform="rotate(32.47119229084848 620 80)">HAS_CONDITION_OCCURRENCE</text></g><g id="relationshiptype_Rel64" class="relationshipType"><path class="relationshipLine arrow" d="M815.0337925679195,902.0956841107123C734.0221817881728,904.7089618778009,653.010571008426,907.3222396448895,571.9989602286794,909.9355174119781C490.9873494489327,912.5487951790668,409.975738669186,915.1620729461554,328.9641278894393,917.7753507132439" marker-end="url(#canvasArrow)" style="fill: none; stroke: gray; stroke-width: 2;"/><title class="relationshipTypeTooltip">RESPONSIBLE_FOR</title><text class="displayText" x="570" y="910" text-anchor="middle" baseline-shift="30%" alignment-baseline="alphabetic" font-family="Roboto, sans-serif" font-size="14" style="fill: black;" transform="rotate(-1.8476102659946037 570 910)">RESPONSIBLE_FOR</text></g><g id="relationshiptype_Rel74" class="relationshipType"><path class="relationshipLine arrow" d="M902.805271074081,203.2519277135784C931.2260240896533,195.6730602427591,959.6467771052254,188.09419277193987,988.0675301207975,180.51532530112067C1016.4882831363697,172.93645783030146,1044.9090361519418,165.3575903594822,1073.329789167514,157.77872288866294" marker-end="url(#canvasArrow)" style="fill: none; stroke: gray; stroke-width: 2;"/><title class="relationshipTypeTooltip">HAS_ETHNICITY</title><text class="displayText" x="990" y="180" text-anchor="middle" baseline-shift="30%" alignment-baseline="alphabetic" font-family="Roboto, sans-serif" font-size="14" style="fill: black;" transform="rotate(-14.931417178137552 990 180)">HAS_ETHNICITY</text></g><g id="relationshiptype_Rel67" class="relationshipType"><path class="relationshipLine arrow" d="M245.89952024178734,856.547841088043C230.74430046640396,788.3493520988181,215.58908069102063,720.150863109593,200.4338609156373,651.952374120368C185.27864114025397,583.7538851311429,170.12342136487064,515.5553961419178,154.96820158948728,447.35690715269277" marker-end="url(#canvasArrow)" style="fill: none; stroke: gray; stroke-width: 2;"/><title class="relationshipTypeTooltip">ASSOCIATED_DURING_VISIT</title><text class="displayText" x="200" y="650" text-anchor="middle" baseline-shift="30%" alignment-baseline="alphabetic" font-family="Roboto, sans-serif" font-size="14" style="fill: black;" transform="rotate(77.47119229084848 200 650)">ASSOCIATED_DURING_VISIT</text></g><g id="relationshiptype_Rel55" class="relationshipType"><path class="relationshipLine arrow" d="M15.357145560108606,33.19548900632721C-25.765565991313323,28.866782527230164,-66.88827754273527,24.53807604813312,-108.0109890941572,20.209369569036085C-149.13370064557913,15.880663089939047,-190.25641219700105,11.551956610842005,-231.37912374842298,7.223250131744963" marker-end="url(#canvasArrow)" style="fill: none; stroke: gray; stroke-width: 2;"/><title class="relationshipTypeTooltip">HAS_CONCEPT</title><text class="displayText" x="-110" y="20" text-anchor="middle" baseline-shift="30%" alignment-baseline="alphabetic" font-family="Roboto, sans-serif" font-size="14" style="fill: black;" transform="rotate(6.009005957494537 -110 20)">HAS_CONCEPT</text></g><g id="relationshiptype_Rel77" class="relationshipType"><path class="relationshipLine arrow" d="M776.6341970728287,234.48361209763917C681.739370386267,256.1738581974247,586.8445436997054,277.86410429721025,491.94971701314375,299.55435039699574C397.05489032658215,321.24459649678124,302.1600636400205,342.9348425965668,207.26523695345884,364.6250886963523" marker-end="url(#canvasArrow)" style="fill: none; stroke: gray; stroke-width: 2;"/><title class="relationshipTypeTooltip">HAS_VISIT_OCCURRENCE</title><text class="displayText" x="490" y="300" text-anchor="middle" baseline-shift="30%" alignment-baseline="alphabetic" font-family="Roboto, sans-serif" font-size="14" style="fill: black;" transform="rotate(-12.875001559612457 490 300)">HAS_VISIT_OCCURRENCE</text></g><g id="relationshiptype_Rel56" class="relationshipType"><path class="relationshipLine arrow" d="M91.2960467040881,104.01093132316589C97.41484091345268,138.68409850956527,103.5336351228173,173.3572656959647,109.65242933218191,208.03043288236412C115.77122354154652,242.70360006876354,121.89001775091111,277.3767672551629,128.00881196027572,312.04993444156236" marker-end="url(#canvasArrow)" style="fill: none; stroke: gray; stroke-width: 2;"/><title class="relationshipTypeTooltip">ASSOCIATED_DURING_VISIT</title><text class="displayText" x="110" y="210" text-anchor="middle" baseline-shift="30%" alignment-baseline="alphabetic" font-family="Roboto, sans-serif" font-size="14" style="fill: black;" transform="rotate(79.99202019855866 110 210)">ASSOCIATED_DURING_VISIT</text></g><g id="relationshiptype_Rel60" class="relationshipType"><path class="relationshipLine arrow" d="M850.9311162925028,841.8622325850055C780.9188865920019,701.8377731840035,710.906656891501,561.8133137830016,640.894427191,421.78885438199984C570.8821974904989,281.764394980998,500.869967789998,141.73993557999611,430.8577380894971,1.7154761789941944" marker-end="url(#canvasArrow)" style="fill: none; stroke: gray; stroke-width: 2;"/><title class="relationshipTypeTooltip">CAPTURED</title><text class="displayText" x="640" y="420" text-anchor="middle" baseline-shift="30%" alignment-baseline="alphabetic" font-family="Roboto, sans-serif" font-size="14" style="fill: black;" transform="rotate(63.43494882292201 640 420)">CAPTURED</text></g><g id="relationshiptype_Rel71" class="relationshipType"><path class="relationshipLine arrow" d="M784.3654897735237,253.61251659516282C643.4809368769797,338.7302673034914,502.5963839804356,423.84801801182005,361.7118310838916,508.96576872014884C220.82727818734756,594.0835194284776,79.94272529080355,679.2012701368062,-60.941827605740464,764.3190208451349" marker-end="url(#canvasArrow)" style="fill: none; stroke: gray; stroke-width: 2;"/><title class="relationshipTypeTooltip">HAS_DRUG_EXPOSURE</title><text class="displayText" x="360" y="510" text-anchor="middle" baseline-shift="30%" alignment-baseline="alphabetic" font-family="Roboto, sans-serif" font-size="14" style="fill: black;" transform="rotate(-31.13897243697886 360 510)">HAS_DRUG_EXPOSURE</text></g><g id="relationshiptype_Rel61" class="relationshipType"><path class="relationshipLine arrow" d="M826.8175397040567,862.6285414136614C721.7571542672782,788.8023246202496,616.6967688304999,714.9761078268377,511.6363833937213,641.1498910334258C406.5759979569428,567.3236742400138,301.5156125201644,493.49745744660197,196.45522708338595,419.6712406531901" marker-end="url(#canvasArrow)" style="fill: none; stroke: gray; stroke-width: 2;"/><title class="relationshipTypeTooltip">ASSOCIATED_WITH</title><text class="displayText" x="510" y="640" text-anchor="middle" baseline-shift="30%" alignment-baseline="alphabetic" font-family="Roboto, sans-serif" font-size="14" style="fill: black;" transform="rotate(35.09581678702611 510 640)">ASSOCIATED_WITH</text></g><g id="relationshiptype_Rel70" class="relationshipType"><path class="relationshipLine arrow" d="M899.9062993839742,245.22370500377863C942.6564426725575,263.22376533581365,985.4065859611408,281.2238256678487,1028.1567292497239,299.22388599988375C1070.906872538307,317.2239463319188,1113.65701582689,335.2240066639538,1156.4071591154734,353.22406699598884" marker-end="url(#canvasArrow)" style="fill: none; stroke: gray; stroke-width: 2;"/><title class="relationshipTypeTooltip">HAS_OBSERVATION_PERIOD</title><text class="displayText" x="1030" y="300" text-anchor="middle" baseline-shift="30%" alignment-baseline="alphabetic" font-family="Roboto, sans-serif" font-size="14" style="fill: black;" transform="rotate(22.83365417791754 1030 300)">HAS_OBSERVATION_PERIOD</text></g><g id="relationshiptype_Rel58" class="relationshipType"><path class="relationshipLine arrow" d="M366.93259471176833,-4.039775666069488C334.9608826825966,50.06619853714413,302.98917065342494,104.17217274035775,271.01745862425327,158.27814694357136C239.04574659508157,212.38412114678496,207.0740345659099,266.49009534999857,175.10232253673823,320.5960695532122" marker-end="url(#canvasArrow)" style="fill: none; stroke: gray; stroke-width: 2;"/><title class="relationshipTypeTooltip">ASSOCIATED_DURING_VISIT</title><text class="displayText" x="270" y="160" text-anchor="middle" baseline-shift="30%" alignment-baseline="alphabetic" font-family="Roboto, sans-serif" font-size="14" style="fill: black;" transform="rotate(-59.420773127510984 270 160)">ASSOCIATED_DURING_VISIT</text></g><g id="relationshiptype_Rel68" class="relationshipType"><path class="relationshipLine arrow" d="M880.8419119606954,270.56617671324193C936.809049902405,339.8588236886922,992.7761878441149,409.1514706641424,1048.7433257858247,478.44411763959255C1104.7104637275345,547.7367646150427,1160.6776016692443,617.0294115904929,1216.644739610954,686.3220585659432" marker-end="url(#canvasArrow)" style="fill: none; stroke: gray; stroke-width: 2;"/><title class="relationshipTypeTooltip">HAS_OBSERVATION_OCCURRENCE</title><text class="displayText" x="1050" y="480" text-anchor="middle" baseline-shift="30%" alignment-baseline="alphabetic" font-family="Roboto, sans-serif" font-size="14" style="fill: black;" transform="rotate(51.0724564072077 1050 480)">HAS_OBSERVATION_OCCURRENCE</text></g><g id="relationshiptype_Rel0" class="relationshipType"><path class="relationshipLine arrow" d="M90.80650449500462,337.514708427504C34.37555166851584,288.7788855319,-22.055401157972938,240.0430626362961,-78.48635398446169,191.30723974069218C-134.91730681095044,142.57141684508827,-191.3482596374392,93.83559394948432,-247.779212463928,45.09977105388037" marker-end="url(#canvasArrow)" style="fill: none; stroke: gray; stroke-width: 2;"/><title class="relationshipTypeTooltip">HAS_CONCEPT</title><text class="displayText" x="-80" y="190" text-anchor="middle" baseline-shift="30%" alignment-baseline="alphabetic" font-family="Roboto, sans-serif" font-size="14" style="fill: black;" transform="rotate(40.815083874881566 -80 190)">HAS_CONCEPT</text></g><g id="relationshiptype_Rel2" class="relationshipType"><path class="relationshipLine arrow" d="M-134.26829268292684,736.5853658536586C-159.3658536585366,625.040650406504,-184.46341463414635,513.4959349593496,-209.5609756097561,401.95121951219517C-234.65853658536585,290.40650406504074,-259.7560975609756,178.86178861788622,-284.8536585365853,67.3170731707317" marker-end="url(#canvasArrow)" style="fill: none; stroke: gray; stroke-width: 2;"/><title class="relationshipTypeTooltip">HAS_CONCEPT</title><text class="displayText" x="-210" y="400" text-anchor="middle" baseline-shift="30%" alignment-baseline="alphabetic" font-family="Roboto, sans-serif" font-size="14" style="fill: black;" transform="rotate(77.31961650818018 -210 400)">HAS_CONCEPT</text></g><g id="relationshiptype_Rel3" class="relationshipType"><path class="relationshipLine arrow" d="M226.20344845177658,864.4770938850615C144.48226359911487,730.2208616271173,62.76107874645318,595.9646293691732,-18.960106106208514,461.7083971112289C-100.6812909588702,327.45216485328467,-182.4024758115319,193.19593259534048,-264.1236606641936,58.93970033739626" marker-end="url(#canvasArrow)" style="fill: none; stroke: gray; stroke-width: 2;"/><title class="relationshipTypeTooltip">HAS_CONCEPT</title><text class="displayText" x="-20" y="460" text-anchor="middle" baseline-shift="30%" alignment-baseline="alphabetic" font-family="Roboto, sans-serif" font-size="14" style="fill: black;" transform="rotate(58.671307132195835 -20 460)">HAS_CONCEPT</text></g><g id="relationshiptype_Rel4" class="relationshipType"><path class="relationshipLine arrow" d="M335.2374678122862,-54.44892581248168C240.82254297421863,-46.35621796921875,146.40761813615106,-38.263510125955804,51.99269329808351,-30.170802282692872C-42.42223153998405,-22.078094439429936,-136.83715637805162,-13.985386596166997,-231.25208121611917,-5.892678752904059" marker-end="url(#canvasArrow)" style="fill: none; stroke: gray; stroke-width: 2;"/><title class="relationshipTypeTooltip">HAS_CONCEPT</title><text class="displayText" x="50" y="-30" text-anchor="middle" baseline-shift="30%" alignment-baseline="alphabetic" font-family="Roboto, sans-serif" font-size="14" style="fill: black;" transform="rotate(-4.899092453787745 50 -30)">HAS_CONCEPT</text></g><g id="relationshiptype_Rel5" class="relationshipType"><path class="relationshipLine arrow" d="M1201.27238030157,712.1420265533087C961.4505880953895,598.3804071734539,721.6287958892091,484.6187877935991,481.8070036830287,370.8571684137443C241.98521147684832,257.09554903388954,2.1634192706678874,143.33392965403473,-237.65837293551255,29.572310274179927" marker-end="url(#canvasArrow)" style="fill: none; stroke: gray; stroke-width: 2;"/><title class="relationshipTypeTooltip">HAS_CONCEPT</title><text class="displayText" x="480" y="370" text-anchor="middle" baseline-shift="30%" alignment-baseline="alphabetic" font-family="Roboto, sans-serif" font-size="14" style="fill: black;" transform="rotate(25.37774386134916 480 370)">HAS_CONCEPT</text></g><g id="relationshiptype_Rel53" class="relationshipType"><path class="relationshipLine arrow" d="M-328.5612391541837,58.72238174646467C-342.9161660223954,106.18387924641227,-357.2710928906071,153.64537674635986,-382.29204267946835,194.5887491281328C-407.3129924683296,235.53212150990575,-442.9999651778403,269.95736877350396,-478.68693788735095,304.3826160371022" marker-end="url(#canvasArrow)" style="fill: none; stroke: gray; stroke-width: 2;"/><title class="relationshipTypeTooltip">IN_DOMAIN</title><text class="displayText" x="-383.33494269837627" y="196.2953127954367" text-anchor="middle" baseline-shift="30%" alignment-baseline="alphabetic" font-family="Roboto, sans-serif" font-size="14" style="fill: black;" transform="rotate(-58.57043438516146 -383.33494269837627 196.2953127954367)">IN_DOMAIN</text></g><g id="relationshiptype_Rel57" class="relationshipType"><path class="relationshipLine arrow" d="M-356.067419873461,33.47397390112251C-393.86619549560055,65.21010185478642,-431.66497111774015,96.94622980845034,-474.81482604911776,117.38563477594501C-517.9646809804954,137.82503974343967,-566.4656152211111,146.9677217247651,-614.9665494617268,156.11040370609055" marker-end="url(#canvasArrow)" style="fill: none; stroke: gray; stroke-width: 2;"/><title class="relationshipTypeTooltip">USES_VOCABULARY</title><text class="displayText" x="-476.6223017269049" y="118.24180746542308" text-anchor="middle" baseline-shift="30%" alignment-baseline="alphabetic" font-family="Roboto, sans-serif" font-size="14" style="fill: black;" transform="rotate(-25.346175941946683 -476.6223017269049 118.24180746542308)">USES_VOCABULARY</text></g><g id="relationshiptype_Rel59" class="relationshipType"><path class="relationshipLine arrow" d="M-365.20799076725336,-3.4612772350390433C-411.64266788148944,2.2133639579234736,-458.0773449957255,7.8880051508859905,-502.6577664483336,1.2009419329947875C-547.2381879009416,-5.486121284896416,-589.9643536919216,-24.534888913641336,-632.6905194829015,-43.58365654238626" marker-end="url(#canvasArrow)" style="fill: none; stroke: gray; stroke-width: 2;"/><title class="relationshipTypeTooltip">BELONGS_TO_CLASS</title><text class="displayText" x="-504.63563915407013" y="0.9042610271342966" text-anchor="middle" baseline-shift="30%" alignment-baseline="alphabetic" font-family="Roboto, sans-serif" font-size="14" style="fill: black;" transform="rotate(8.530765609948133 -504.63563915407013 0.9042610271342966)">BELONGS_TO_CLASS</text></g><g id="relationshiptype_Rel66" class="relationshipType"><path class="relationshipLine arrow" d="M-491.4387608458164,301.2776182535353C-477.0838339776046,253.81612075358774,-462.7289071093929,206.3546232536401,-437.70795732053165,165.4112508718672C-412.6870075316704,124.46787849009426,-377.0000348221597,90.04263122649604,-341.313062112649,55.61738396289783" marker-end="url(#canvasArrow)" style="fill: none; stroke: gray; stroke-width: 2;"/><title class="relationshipTypeTooltip">HAS_COCEPT</title><text class="displayText" x="-436.66505730162373" y="163.70468720456327" text-anchor="middle" baseline-shift="30%" alignment-baseline="alphabetic" font-family="Roboto, sans-serif" font-size="14" style="fill: black;" transform="rotate(-58.57043438516149 -436.66505730162373 163.70468720456327)">HAS_COCEPT</text></g><g id="nodelabel_Node0" class="nodeLabel"><circle class="hoverCircle" cy="740" cx="1260" r="80" style="opacity: 0; fill: lightgray;"/><circle class="displayCircle" cy="740" cx="1260" r="60" style="fill: rgb(255, 235, 59); stroke: rgb(168, 156, 0); stroke-width: 4;"/><text class="displayText" x="1260" y="740" pointer-events="none" text-anchor="middle" alignment-baseline="central" font-family="Roboto, sans-serif" font-size="14" style="fill: black;"><tspan x="1260" y="740" dy="0.00em">Observation</tspan><tspan x="1260" y="740" dy="1.10em">Occurrence</tspan></text><g class="annotation" transform="translate(1333,710.8)"><path class="annotationBubble" stroke-width="2" d="M10,0L158.9892578125,0,C162.15592447916669,0.16666666666666674,165.32259114583334,0.3333333333333335,166.9892578125,2C168.65592447916666,3.6666666666666665,168.82259114583331,6.833333333333333,168.9892578125,10,L168.9892578125,48.4,C168.82259114583331,51.56666666666666,168.65592447916666,54.733333333333334,166.9892578125,56.4C165.32259114583334,58.06666666666666,162.15592447916669,58.233333333333334,158.9892578125,58.4,L10,58.4,C6.833333333333333,58.233333333333334,3.6666666666666665,58.06666666666667,2,56.4C0.3333333333333333,54.73333333333333,0.16666666666666666,51.56666666666666,0,48.4,L0,37.2L-8,29.2L0,21.2L0,10,C0.16666666666666674,6.833333333333333,0.3333333333333335,3.6666666666666665,2,2C3.6666666666666665,0.3333333333333333,6.833333333333333,0.16666666666666666,10,0Z" style="fill: white; stroke: black;"/><text class="annotationText" x="10" y="22" pointer-events="none" text-anchor="middle" alignment-baseline="central" font-family="Roboto, sans-serif" font-size="14" style="fill: black;"><tspan x="10" text-anchor="start" y="24" dy="0em">observationDate : String</tspan><tspan x="10" text-anchor="start" y="24" dy="1.2em">observationId : String</tspan></text></g></g><g id="nodelabel_Node14" class="nodeLabel"><circle class="hoverCircle" cy="-80" cx="760" r="80" style="opacity: 0; fill: lightgray;"/><circle class="displayCircle" cy="-80" cx="760" r="60" style="fill: rgb(0, 188, 212); stroke: rgb(0, 112, 134); stroke-width: 4;"/><text class="displayText" x="760" y="-80" pointer-events="none" text-anchor="middle" alignment-baseline="central" font-family="Roboto, sans-serif" font-size="14" style="fill: white;"><tspan x="760" y="-80" dy="0.34em">Gender</tspan></text><g class="annotation" transform="translate(660.380859375,-211.4)"><path class="annotationBubble" stroke-width="2" d="M10,0L189.23828125,0,C192.40494791666669,0.16666666666666674,195.57161458333334,0.3333333333333335,197.23828125,2C198.90494791666666,3.6666666666666665,199.07161458333331,6.833333333333333,199.23828125,10,L199.23828125,48.4,C199.07161458333331,51.56666666666666,198.90494791666666,54.733333333333334,197.23828125,56.4C195.57161458333334,58.06666666666666,192.40494791666669,58.233333333333334,189.23828125,58.4,L107.619140625,58.4L99.619140625,66.4L91.619140625,58.4L10,58.4,C6.833333333333333,58.233333333333334,3.6666666666666665,58.06666666666667,2,56.4C0.3333333333333333,54.73333333333333,0.16666666666666666,51.56666666666666,0,48.4,L0,10,C0.16666666666666674,6.833333333333333,0.3333333333333335,3.6666666666666665,2,2C3.6666666666666665,0.3333333333333333,6.833333333333333,0.16666666666666666,10,0Z" style="fill: white; stroke: black;"/><text class="annotationText" x="10" y="22" pointer-events="none" text-anchor="middle" alignment-baseline="central" font-family="Roboto, sans-serif" font-size="14" style="fill: black;"><tspan x="10" text-anchor="start" y="24" dy="0em">genderConceptId : String</tspan><tspan x="10" text-anchor="start" y="24" dy="1.2em">genderConceptName : String</tspan></text></g></g><g id="nodelabel_Node18" class="nodeLabel"><circle class="hoverCircle" cy="40" cx="80" r="80" style="opacity: 0; fill: lightgray;"/><circle class="displayCircle" cy="40" cx="80" r="60" style="fill: rgb(205, 220, 57); stroke: rgb(122, 142, 0); stroke-width: 4;"/><text class="displayText" x="80" y="40" pointer-events="none" text-anchor="middle" alignment-baseline="central" font-family="Roboto, sans-serif" font-size="14" style="fill: black;"><tspan x="80" y="40" dy="0.00em">Measurement</tspan><tspan x="80" y="40" dy="1.10em">Occurrence</tspan></text><g class="annotation" transform="translate(-32.5478515625,-264.19999999999993)"><path class="annotationBubble" stroke-width="2" d="M10,0L215.095703125,0,C218.26236979166669,0.16666666666666674,221.42903645833334,0.3333333333333335,223.095703125,2C224.76236979166666,3.6666666666666665,224.92903645833331,6.833333333333333,225.095703125,10,L225.095703125,221.19999999999996,C224.92903645833331,224.36666666666662,224.76236979166666,227.53333333333327,223.095703125,229.19999999999996C221.42903645833334,230.86666666666665,218.26236979166669,231.0333333333333,215.095703125,231.19999999999996,L120.5478515625,231.19999999999996L112.5478515625,239.19999999999996L104.5478515625,231.19999999999996L10,231.19999999999996,C6.833333333333333,231.0333333333333,3.6666666666666665,230.86666666666662,2,229.19999999999996C0.3333333333333333,227.5333333333333,0.16666666666666666,224.36666666666662,0,221.19999999999996,L0,10,C0.16666666666666674,6.833333333333333,0.3333333333333335,3.6666666666666665,2,2C3.6666666666666665,0.3333333333333333,6.833333333333333,0.16666666666666666,10,0Z" style="fill: white; stroke: black;"/><text class="annotationText" x="10" y="22" pointer-events="none" text-anchor="middle" alignment-baseline="central" font-family="Roboto, sans-serif" font-size="14" style="fill: black;"><tspan class="displayTextIcon fa" x="12" y="24" dy="0em" pointer-events="none" text-anchor="middle" font-family="FontAwesome" font-size="12" style="fill: gray;"></tspan><tspan x="18" text-anchor="start" y="24" dy="0em"> measurementId : Integer</tspan><tspan x="23" text-anchor="start" y="24" dy="1.2em">measurementDate : Date</tspan><tspan x="23" text-anchor="start" y="24" dy="2.4em">operatorConceptId : String</tspan><tspan x="23" text-anchor="start" y="24" dy="3.5999999999999996em">operatorConceptName : String</tspan><tspan x="23" text-anchor="start" y="24" dy="4.8em">rangeHigh : Float</tspan><tspan x="23" text-anchor="start" y="24" dy="6em">rangeLow : Float</tspan><tspan x="23" text-anchor="start" y="24" dy="7.199999999999999em">unitConceptId : String</tspan><tspan x="23" text-anchor="start" y="24" dy="8.4em">unitConceptName : String</tspan><tspan x="23" text-anchor="start" y="24" dy="9.6em">valueAsConceptId : String</tspan><tspan x="23" text-anchor="start" y="24" dy="10.799999999999999em">valueAsConceptName : String</tspan><tspan x="23" text-anchor="start" y="24" dy="12em">valueAsNumber : String</tspan></text></g></g><g id="nodelabel_Node3" class="nodeLabel"><circle class="hoverCircle" cy="800" cx="-120" r="80" style="opacity: 0; fill: lightgray;"/><circle class="displayCircle" cy="800" cx="-120" r="60" style="fill: rgb(205, 220, 57); stroke: rgb(122, 142, 0); stroke-width: 4;"/><text class="displayText" x="-120" y="800" pointer-events="none" text-anchor="middle" alignment-baseline="central" font-family="Roboto, sans-serif" font-size="14" style="fill: black;"><tspan x="-120" y="800" dy="0.34em">DrugExposure</tspan></text><g class="annotation" transform="translate(-448.7881126521256,849.9619407771256)"><path class="annotationBubble" stroke-width="2" d="M10,0L268.826171875,0,L272.826171875,0L282.826171875,-4L278.826171875,6L278.826171875,10,L278.826171875,163.6,C278.65950520833337,166.76666666666665,278.4928385416667,169.93333333333334,276.826171875,171.6C275.1595052083333,173.26666666666665,271.99283854166663,173.43333333333334,268.826171875,173.6,L10,173.6,C6.833333333333333,173.43333333333334,3.6666666666666665,173.26666666666668,2,171.6C0.3333333333333333,169.9333333333333,0.16666666666666666,166.76666666666665,0,163.6,L0,10,C0.16666666666666674,6.833333333333333,0.3333333333333335,3.6666666666666665,2,2C3.6666666666666665,0.3333333333333333,6.833333333333333,0.16666666666666666,10,0Z" style="fill: white; stroke: black;"/><text class="annotationText" x="10" y="22" pointer-events="none" text-anchor="middle" alignment-baseline="central" font-family="Roboto, sans-serif" font-size="14" style="fill: black;"><tspan class="displayTextIcon fa" x="12" y="24" dy="0em" pointer-events="none" text-anchor="middle" font-family="FontAwesome" font-size="12" style="fill: gray;"></tspan><tspan x="18" text-anchor="start" y="24" dy="0em"> drugExposureId : Integer</tspan><tspan x="23" text-anchor="start" y="24" dy="1.2em">drugExposureEndDatetime : DateTime</tspan><tspan x="23" text-anchor="start" y="24" dy="2.4em">drugExposureStartDatetime : DateTime</tspan><tspan x="23" text-anchor="start" y="24" dy="3.5999999999999996em">drugTypeConceptId : Integer</tspan><tspan x="23" text-anchor="start" y="24" dy="4.8em">drugTypeConceptName : String</tspan><tspan x="23" text-anchor="start" y="24" dy="6em">routeConceptId : Integer</tspan><tspan x="23" text-anchor="start" y="24" dy="7.199999999999999em">routeConceptName : String</tspan><tspan x="23" text-anchor="start" y="24" dy="8.4em">stopReason : String</tspan></text></g></g><g id="nodelabel_Node49" class="nodeLabel"><circle class="hoverCircle" cy="220" cx="840" r="80" style="opacity: 0; fill: lightgray;"/><circle class="displayCircle" cy="220" cx="840" r="60" style="fill: rgb(3, 169, 244); stroke: rgb(0, 96, 163); stroke-width: 4;"/><text class="displayText" x="840" y="220" pointer-events="none" text-anchor="middle" alignment-baseline="central" font-family="Roboto, sans-serif" font-size="14" style="fill: white;"><tspan x="840" y="220" dy="0.34em">Person</tspan></text><g class="annotation" transform="translate(771.53564453125,293)"><path class="annotationBubble" stroke-width="2" d="M10,0L60.46435546875,0L68.46435546875,-8L76.46435546875,0L126.9287109375,0,C130.09537760416669,0.16666666666666674,133.26204427083334,0.3333333333333335,134.9287109375,2C136.59537760416666,3.6666666666666665,136.76204427083331,6.833333333333333,136.9287109375,10,L136.9287109375,48.4,C136.76204427083331,51.56666666666666,136.59537760416666,54.733333333333334,134.9287109375,56.4C133.26204427083334,58.06666666666666,130.09537760416669,58.233333333333334,126.9287109375,58.4,L10,58.4,C6.833333333333333,58.233333333333334,3.6666666666666665,58.06666666666667,2,56.4C0.3333333333333333,54.73333333333333,0.16666666666666666,51.56666666666666,0,48.4,L0,10,C0.16666666666666674,6.833333333333333,0.3333333333333335,3.6666666666666665,2,2C3.6666666666666665,0.3333333333333333,6.833333333333333,0.16666666666666666,10,0Z" style="fill: white; stroke: black;"/><text class="annotationText" x="10" y="22" pointer-events="none" text-anchor="middle" alignment-baseline="central" font-family="Roboto, sans-serif" font-size="14" style="fill: black;"><tspan x="10" text-anchor="start" y="24" dy="0em">personId : String</tspan><tspan x="10" text-anchor="start" y="24" dy="1.2em">yearOfBirth : String</tspan></text></g></g><g id="nodelabel_Node11" class="nodeLabel"><circle class="hoverCircle" cy="380" cx="1220" r="80" style="opacity: 0; fill: lightgray;"/><circle class="displayCircle" cy="380" cx="1220" r="60" style="fill: rgb(255, 152, 0); stroke: rgb(164, 79, 0); stroke-width: 4;"/><text class="displayText" x="1220" y="380" pointer-events="none" text-anchor="middle" alignment-baseline="central" font-family="Roboto, sans-serif" font-size="14" style="fill: white;"><tspan x="1220" y="380" dy="0.00em">Observation</tspan><tspan x="1220" y="380" dy="1.10em">Period</tspan></text><g class="annotation" transform="translate(1269.9619407771256,429.96194077712556)"><path class="annotationBubble" stroke-width="2" d="M10,0L229.0576171875,0,C232.22428385416669,0.16666666666666674,235.39095052083334,0.3333333333333335,237.0576171875,2C238.72428385416666,3.6666666666666665,238.89095052083331,6.833333333333333,239.0576171875,10,L239.0576171875,67.6,C238.89095052083331,70.76666666666665,238.72428385416666,73.93333333333332,237.0576171875,75.6C235.39095052083334,77.26666666666667,232.22428385416669,77.43333333333334,229.0576171875,77.6,L10,77.6,C6.833333333333333,77.43333333333332,3.6666666666666665,77.26666666666665,2,75.6C0.3333333333333333,73.93333333333334,0.16666666666666666,70.76666666666667,0,67.6,L0,10,L0,6L-4,-4L6,0L10,0Z" style="fill: white; stroke: black;"/><text class="annotationText" x="10" y="22" pointer-events="none" text-anchor="middle" alignment-baseline="central" font-family="Roboto, sans-serif" font-size="14" style="fill: black;"><tspan x="10" text-anchor="start" y="24" dy="0em">observationPeriodEndDate : String</tspan><tspan x="10" text-anchor="start" y="24" dy="1.2em">observationPeriodId : String</tspan><tspan x="10" text-anchor="start" y="24" dy="2.4em">observationPeriodStartDate : String</tspan></text></g></g><g id="nodelabel_Node47" class="nodeLabel"><circle class="hoverCircle" cy="920" cx="260" r="80" style="opacity: 0; fill: lightgray;"/><circle class="displayCircle" cy="920" cx="260" r="60" style="fill: rgb(233, 30, 99); stroke: rgb(142, 0, 35); stroke-width: 4;"/><text class="displayText" x="260" y="920" pointer-events="none" text-anchor="middle" alignment-baseline="central" font-family="Roboto, sans-serif" font-size="14" style="fill: white;"><tspan x="260" y="920" dy="0.00em">Procedure</tspan><tspan x="260" y="920" dy="1.10em">Occurrence</tspan></text><g class="annotation" transform="translate(132.42333984375,993)"><path class="annotationBubble" stroke-width="2" d="M10,0L119.57666015625,0L127.57666015625,-8L135.57666015625,0L245.1533203125,0,C248.31998697916669,0.16666666666666674,251.48665364583334,0.3333333333333335,253.1533203125,2C254.81998697916666,3.6666666666666665,254.98665364583331,6.833333333333333,255.1533203125,10,L255.1533203125,48.4,C254.98665364583331,51.56666666666666,254.81998697916666,54.733333333333334,253.1533203125,56.4C251.48665364583334,58.06666666666666,248.31998697916669,58.233333333333334,245.1533203125,58.4,L10,58.4,C6.833333333333333,58.233333333333334,3.6666666666666665,58.06666666666667,2,56.4C0.3333333333333333,54.73333333333333,0.16666666666666666,51.56666666666666,0,48.4,L0,10,C0.16666666666666674,6.833333333333333,0.3333333333333335,3.6666666666666665,2,2C3.6666666666666665,0.3333333333333333,6.833333333333333,0.16666666666666666,10,0Z" style="fill: white; stroke: black;"/><text class="annotationText" x="10" y="22" pointer-events="none" text-anchor="middle" alignment-baseline="central" font-family="Roboto, sans-serif" font-size="14" style="fill: black;"><tspan class="displayTextIcon fa" x="12" y="24" dy="0em" pointer-events="none" text-anchor="middle" font-family="FontAwesome" font-size="12" style="fill: gray;"></tspan><tspan x="18" text-anchor="start" y="24" dy="0em"> procedureOccurrenceId : Integer</tspan><tspan x="23" text-anchor="start" y="24" dy="1.2em">procedureDatetime : DateTime</tspan></text></g></g><g id="nodelabel_Node42" class="nodeLabel"><circle class="hoverCircle" cy="900" cx="880" r="80" style="opacity: 0; fill: lightgray;"/><circle class="displayCircle" cy="900" cx="880" r="60" style="fill: rgb(96, 125, 139); stroke: rgb(27, 56, 68); stroke-width: 4;"/><text class="displayText" x="880" y="900" pointer-events="none" text-anchor="middle" alignment-baseline="central" font-family="Roboto, sans-serif" font-size="14" style="fill: white;"><tspan x="880" y="900" dy="0.34em">Provider</tspan></text><g class="annotation" transform="translate(929.9619407771256,949.9619407771256)"><path class="annotationBubble" stroke-width="2" d="M10,0L126.361328125,0,C129.52799479166669,0.16666666666666674,132.69466145833334,0.3333333333333335,134.361328125,2C136.02799479166666,3.6666666666666665,136.19466145833331,6.833333333333333,136.361328125,10,L136.361328125,29.200000000000003,C136.19466145833331,32.366666666666674,136.02799479166666,35.53333333333334,134.361328125,37.2C132.69466145833334,38.86666666666667,129.52799479166669,39.03333333333333,126.361328125,39.2,L10,39.2,C6.833333333333333,39.03333333333334,3.6666666666666665,38.866666666666674,2,37.2C0.3333333333333333,35.53333333333333,0.16666666666666666,32.36666666666667,0,29.200000000000003,L0,10,L0,6L-4,-4L6,0L10,0Z" style="fill: white; stroke: black;"/><text class="annotationText" x="10" y="22" pointer-events="none" text-anchor="middle" alignment-baseline="central" font-family="Roboto, sans-serif" font-size="14" style="fill: black;"><tspan x="10" text-anchor="start" y="24" dy="0em">providerId : Integer</tspan></text></g></g><g id="nodelabel_Node43" class="nodeLabel"><circle class="hoverCircle" cy="140" cx="1140" r="80" style="opacity: 0; fill: lightgray;"/><circle class="displayCircle" cy="140" cx="1140" r="60" style="fill: rgb(0, 188, 212); stroke: rgb(0, 112, 134); stroke-width: 4;"/><text class="displayText" x="1140" y="140" pointer-events="none" text-anchor="middle" alignment-baseline="central" font-family="Roboto, sans-serif" font-size="14" style="fill: white;"><tspan x="1140" y="140" dy="0.34em">Ethnicity</tspan></text><g class="annotation" transform="translate(1213,110.8)"><path class="annotationBubble" stroke-width="2" d="M10,0L198.9384765625,0,C202.10514322916669,0.16666666666666674,205.27180989583334,0.3333333333333335,206.9384765625,2C208.60514322916666,3.6666666666666665,208.77180989583331,6.833333333333333,208.9384765625,10,L208.9384765625,48.4,C208.77180989583331,51.56666666666666,208.60514322916666,54.733333333333334,206.9384765625,56.4C205.27180989583334,58.06666666666666,202.10514322916669,58.233333333333334,198.9384765625,58.4,L10,58.4,C6.833333333333333,58.233333333333334,3.6666666666666665,58.06666666666667,2,56.4C0.3333333333333333,54.73333333333333,0.16666666666666666,51.56666666666666,0,48.4,L0,37.2L-8,29.2L0,21.2L0,10,C0.16666666666666674,6.833333333333333,0.3333333333333335,3.6666666666666665,2,2C3.6666666666666665,0.3333333333333333,6.833333333333333,0.16666666666666666,10,0Z" style="fill: white; stroke: black;"/><text class="annotationText" x="10" y="22" pointer-events="none" text-anchor="middle" alignment-baseline="central" font-family="Roboto, sans-serif" font-size="14" style="fill: black;"><tspan x="10" text-anchor="start" y="24" dy="0em">ethnicityConceptId : String</tspan><tspan x="10" text-anchor="start" y="24" dy="1.2em">ethnicityConceptName : String</tspan></text></g></g><g id="nodelabel_Node33" class="nodeLabel"><circle class="hoverCircle" cy="-40" cx="1000" r="80" style="opacity: 0; fill: lightgray;"/><circle class="displayCircle" cy="-40" cx="1000" r="60" style="fill: rgb(0, 188, 212); stroke: rgb(0, 112, 134); stroke-width: 4;"/><text class="displayText" x="1000" y="-40" pointer-events="none" text-anchor="middle" alignment-baseline="central" font-family="Roboto, sans-serif" font-size="14" style="fill: white;"><tspan x="1000" y="-40" dy="0.34em">Race</tspan></text><g class="annotation" transform="translate(1049.9619407771256,-148.3619407771256)"><path class="annotationBubble" stroke-width="2" d="M10,0L173.2900390625,0,C176.45670572916669,0.16666666666666674,179.62337239583334,0.3333333333333335,181.2900390625,2C182.95670572916666,3.6666666666666665,183.12337239583331,6.833333333333333,183.2900390625,10,L183.2900390625,48.4,C183.12337239583331,51.56666666666666,182.95670572916666,54.733333333333334,181.2900390625,56.4C179.62337239583334,58.06666666666666,176.45670572916669,58.233333333333334,173.2900390625,58.4,L10,58.4,L6,58.4L-4,62.4L0,52.4L0,48.4,L0,10,C0.16666666666666674,6.833333333333333,0.3333333333333335,3.6666666666666665,2,2C3.6666666666666665,0.3333333333333333,6.833333333333333,0.16666666666666666,10,0Z" style="fill: white; stroke: black;"/><text class="annotationText" x="10" y="22" pointer-events="none" text-anchor="middle" alignment-baseline="central" font-family="Roboto, sans-serif" font-size="14" style="fill: black;"><tspan x="10" text-anchor="start" y="24" dy="0em">raceConceptId : String</tspan><tspan x="10" text-anchor="start" y="24" dy="1.2em">raceConceptName : String</tspan></text></g></g><g id="nodelabel_Node37" class="nodeLabel"><circle class="hoverCircle" cy="-60" cx="400" r="80" style="opacity: 0; fill: lightgray;"/><circle class="displayCircle" cy="-60" cx="400" r="60" style="fill: rgb(255, 87, 34); stroke: rgb(162, 0, 0); stroke-width: 4;"/><text class="displayText" x="400" y="-60" pointer-events="none" text-anchor="middle" alignment-baseline="central" font-family="Roboto, sans-serif" font-size="14" style="fill: white;"><tspan x="400" y="-60" dy="0.00em">Condition</tspan><tspan x="400" y="-60" dy="1.10em">Occurrence</tspan></text><g class="annotation" transform="translate(294.4130859375,-191.4)"><path class="annotationBubble" stroke-width="2" d="M10,0L201.173828125,0,C204.34049479166669,0.16666666666666674,207.50716145833334,0.3333333333333335,209.173828125,2C210.84049479166666,3.6666666666666665,211.00716145833331,6.833333333333333,211.173828125,10,L211.173828125,48.4,C211.00716145833331,51.56666666666666,210.84049479166666,54.733333333333334,209.173828125,56.4C207.50716145833334,58.06666666666666,204.34049479166669,58.233333333333334,201.173828125,58.4,L113.5869140625,58.4L105.5869140625,66.4L97.5869140625,58.4L10,58.4,C6.833333333333333,58.233333333333334,3.6666666666666665,58.06666666666667,2,56.4C0.3333333333333333,54.73333333333333,0.16666666666666666,51.56666666666666,0,48.4,L0,10,C0.16666666666666674,6.833333333333333,0.3333333333333335,3.6666666666666665,2,2C3.6666666666666665,0.3333333333333333,6.833333333333333,0.16666666666666666,10,0Z" style="fill: white; stroke: black;"/><text class="annotationText" x="10" y="22" pointer-events="none" text-anchor="middle" alignment-baseline="central" font-family="Roboto, sans-serif" font-size="14" style="fill: black;"><tspan x="10" text-anchor="start" y="24" dy="0em">conditionOccurrenceId : String</tspan><tspan x="10" text-anchor="start" y="24" dy="1.2em">conditionStartDatetime : String</tspan></text></g></g><g id="nodelabel_Node31" class="nodeLabel"><circle class="hoverCircle" cy="0" cx="-300" r="80" style="opacity: 0; fill: lightgray;"/><circle class="displayCircle" cy="0" cx="-300" r="60" style="fill: rgb(103, 58, 183); stroke: rgb(5, 0, 106); stroke-width: 4;"/><text class="displayText" x="-300" y="0" pointer-events="none" text-anchor="middle" alignment-baseline="central" font-family="Roboto, sans-serif" font-size="14" style="fill: white;"><tspan x="-300" y="0" dy="0.34em">Concept</tspan></text><g class="annotation" transform="translate(-554.3926048396256,-204.3619407771256)"><path class="annotationBubble" stroke-width="2" d="M10,0L194.4306640625,0,C197.59733072916669,0.16666666666666674,200.76399739583334,0.3333333333333335,202.4306640625,2C204.09733072916666,3.6666666666666665,204.26399739583331,6.833333333333333,204.4306640625,10,L204.4306640625,144.4,L204.4306640625,148.4L208.4306640625,158.4L198.4306640625,154.4L194.4306640625,154.4,L10,154.4,C6.833333333333333,154.23333333333335,3.6666666666666665,154.06666666666666,2,152.4C0.3333333333333333,150.73333333333335,0.16666666666666666,147.56666666666666,0,144.4,L0,10,C0.16666666666666674,6.833333333333333,0.3333333333333335,3.6666666666666665,2,2C3.6666666666666665,0.3333333333333333,6.833333333333333,0.16666666666666666,10,0Z" style="fill: white; stroke: black;"/><text class="annotationText" x="10" y="22" pointer-events="none" text-anchor="middle" alignment-baseline="central" font-family="Roboto, sans-serif" font-size="14" style="fill: black;"><tspan class="displayTextIcon fa" x="12" y="24" dy="0em" pointer-events="none" text-anchor="middle" font-family="FontAwesome" font-size="12" style="fill: gray;"></tspan><tspan x="18" text-anchor="start" y="24" dy="0em"> conceptId : Integer</tspan><tspan x="23" text-anchor="start" y="24" dy="1.2em">conceptCode : String</tspan><tspan x="23" text-anchor="start" y="24" dy="2.4em">conceptName : String</tspan><tspan x="23" text-anchor="start" y="24" dy="3.5999999999999996em">invalidReason : String</tspan><tspan x="23" text-anchor="start" y="24" dy="4.8em">standardConcept : Boolean</tspan><tspan x="23" text-anchor="start" y="24" dy="6em">validEndDate : Date</tspan><tspan x="23" text-anchor="start" y="24" dy="7.199999999999999em">validStartDate : Date</tspan></text></g></g><g id="nodelabel_Node39" class="nodeLabel"><circle class="hoverCircle" cy="380" cx="140" r="80" style="opacity: 0; fill: lightgray;"/><circle class="displayCircle" cy="380" cx="140" r="60" style="fill: rgb(139, 195, 74); stroke: rgb(60, 118, 0); stroke-width: 4;"/><text class="displayText" x="140" y="380" pointer-events="none" text-anchor="middle" alignment-baseline="central" font-family="Roboto, sans-serif" font-size="14" style="fill: black;"><tspan x="140" y="380" dy="0.34em">VisitOccurrence</tspan></text><g class="annotation" transform="translate(-108.3466796875,341.2)"><path class="annotationBubble" stroke-width="2" d="M10,0L165.3466796875,0,C168.51334635416669,0.16666666666666674,171.68001302083334,0.3333333333333335,173.3466796875,2C175.01334635416666,3.6666666666666665,175.18001302083331,6.833333333333333,175.3466796875,10,L175.3466796875,30.799999999999997L183.3466796875,38.8L175.3466796875,46.8L175.3466796875,67.6,C175.18001302083331,70.76666666666665,175.01334635416666,73.93333333333332,173.3466796875,75.6C171.68001302083334,77.26666666666667,168.51334635416669,77.43333333333334,165.3466796875,77.6,L10,77.6,C6.833333333333333,77.43333333333332,3.6666666666666665,77.26666666666665,2,75.6C0.3333333333333333,73.93333333333334,0.16666666666666666,70.76666666666667,0,67.6,L0,10,C0.16666666666666674,6.833333333333333,0.3333333333333335,3.6666666666666665,2,2C3.6666666666666665,0.3333333333333333,6.833333333333333,0.16666666666666666,10,0Z" style="fill: white; stroke: black;"/><text class="annotationText" x="10" y="22" pointer-events="none" text-anchor="middle" alignment-baseline="central" font-family="Roboto, sans-serif" font-size="14" style="fill: black;"><tspan x="10" text-anchor="start" y="24" dy="0em">visitEndDate : String</tspan><tspan x="10" text-anchor="start" y="24" dy="1.2em">visitOccurrenceId : String</tspan><tspan x="10" text-anchor="start" y="24" dy="2.4em">visitStartDate : String</tspan></text></g></g><g id="nodelabel_Node53" class="nodeLabel"><circle class="hoverCircle" cy="360" cx="-520" r="80" style="opacity: 0; fill: lightgray;"/><circle class="displayCircle" cy="360" cx="-520" r="60" style="fill: rgb(156, 39, 176); stroke: rgb(76, 0, 100); stroke-width: 4;"/><text class="displayText" x="-520" y="360" pointer-events="none" text-anchor="middle" alignment-baseline="central" font-family="Roboto, sans-serif" font-size="14" style="fill: white;"><tspan x="-520" y="360" dy="0.34em">Domain</tspan></text><g class="annotation" transform="translate(-737.5537376521256,409.96194077712556)"><path class="annotationBubble" stroke-width="2" d="M10,0L157.591796875,0,L161.591796875,0L171.591796875,-4L167.591796875,6L167.591796875,10,L167.591796875,48.4,C167.42513020833331,51.56666666666666,167.25846354166666,54.733333333333334,165.591796875,56.4C163.92513020833334,58.06666666666666,160.75846354166669,58.233333333333334,157.591796875,58.4,L10,58.4,C6.833333333333333,58.233333333333334,3.6666666666666665,58.06666666666667,2,56.4C0.3333333333333333,54.73333333333333,0.16666666666666666,51.56666666666666,0,48.4,L0,10,C0.16666666666666674,6.833333333333333,0.3333333333333335,3.6666666666666665,2,2C3.6666666666666665,0.3333333333333333,6.833333333333333,0.16666666666666666,10,0Z" style="fill: white; stroke: black;"/><text class="annotationText" x="10" y="22" pointer-events="none" text-anchor="middle" alignment-baseline="central" font-family="Roboto, sans-serif" font-size="14" style="fill: black;"><tspan class="displayTextIcon fa" x="12" y="24" dy="0em" pointer-events="none" text-anchor="middle" font-family="FontAwesome" font-size="12" style="fill: gray;"></tspan><tspan x="18" text-anchor="start" y="24" dy="0em"> domainId : Integer</tspan><tspan x="23" text-anchor="start" y="24" dy="1.2em">domainName : String</tspan></text></g></g><g id="nodelabel_Node54" class="nodeLabel"><circle class="hoverCircle" cy="180" cx="-680" r="80" style="opacity: 0; fill: lightgray;"/><circle class="displayCircle" cy="180" cx="-680" r="60" style="fill: rgb(156, 39, 176); stroke: rgb(76, 0, 100); stroke-width: 4;"/><text class="displayText" x="-680" y="180" pointer-events="none" text-anchor="middle" alignment-baseline="central" font-family="Roboto, sans-serif" font-size="14" style="fill: white;"><tspan x="-680" y="180" dy="0.34em">Vocabulary</tspan></text><g class="annotation" transform="translate(-943.4707298396256,229.9619407771256)"><path class="annotationBubble" stroke-width="2" d="M10,0L203.5087890625,0,L207.5087890625,0L217.5087890625,-4L213.5087890625,6L213.5087890625,10,L213.5087890625,86.8,C213.34212239583331,89.96666666666667,213.17545572916666,93.13333333333334,211.5087890625,94.8C209.84212239583334,96.46666666666665,206.67545572916669,96.63333333333333,203.5087890625,96.8,L10,96.8,C6.833333333333333,96.63333333333333,3.6666666666666665,96.46666666666667,2,94.8C0.3333333333333333,93.13333333333333,0.16666666666666666,89.96666666666667,0,86.8,L0,10,C0.16666666666666674,6.833333333333333,0.3333333333333335,3.6666666666666665,2,2C3.6666666666666665,0.3333333333333333,6.833333333333333,0.16666666666666666,10,0Z" style="fill: white; stroke: black;"/><text class="annotationText" x="10" y="22" pointer-events="none" text-anchor="middle" alignment-baseline="central" font-family="Roboto, sans-serif" font-size="14" style="fill: black;"><tspan class="displayTextIcon fa" x="12" y="24" dy="0em" pointer-events="none" text-anchor="middle" font-family="FontAwesome" font-size="12" style="fill: gray;"></tspan><tspan x="18" text-anchor="start" y="24" dy="0em"> vacaublaryId : Integer</tspan><tspan x="23" text-anchor="start" y="24" dy="1.2em">vacabularyName : String</tspan><tspan x="23" text-anchor="start" y="24" dy="2.4em">vocabularyReference : String</tspan><tspan x="23" text-anchor="start" y="24" dy="3.5999999999999996em">vocabularyVersion : String</tspan></text></g></g><g id="nodelabel_Node57" class="nodeLabel"><circle class="hoverCircle" cy="-60" cx="-700" r="80" style="opacity: 0; fill: lightgray;"/><circle class="displayCircle" cy="-60" cx="-700" r="60" style="fill: rgb(103, 58, 183); stroke: rgb(5, 0, 106); stroke-width: 4;"/><text class="displayText" x="-700" y="-60" pointer-events="none" text-anchor="middle" alignment-baseline="central" font-family="Roboto, sans-serif" font-size="14" style="fill: white;"><tspan x="-700" y="-60" dy="0.34em">ConceptClass</tspan></text><g class="annotation" transform="translate(-978.4765625,-89.2)"><path class="annotationBubble" stroke-width="2" d="M10,0L195.4765625,0,C198.64322916666669,0.16666666666666674,201.80989583333334,0.3333333333333335,203.4765625,2C205.14322916666666,3.6666666666666665,205.30989583333331,6.833333333333333,205.4765625,10,L205.4765625,21.2L213.4765625,29.2L205.4765625,37.2L205.4765625,48.4,C205.30989583333331,51.56666666666666,205.14322916666666,54.733333333333334,203.4765625,56.4C201.80989583333334,58.06666666666666,198.64322916666669,58.233333333333334,195.4765625,58.4,L10,58.4,C6.833333333333333,58.233333333333334,3.6666666666666665,58.06666666666667,2,56.4C0.3333333333333333,54.73333333333333,0.16666666666666666,51.56666666666666,0,48.4,L0,10,C0.16666666666666674,6.833333333333333,0.3333333333333335,3.6666666666666665,2,2C3.6666666666666665,0.3333333333333333,6.833333333333333,0.16666666666666666,10,0Z" style="fill: white; stroke: black;"/><text class="annotationText" x="10" y="22" pointer-events="none" text-anchor="middle" alignment-baseline="central" font-family="Roboto, sans-serif" font-size="14" style="fill: black;"><tspan class="displayTextIcon fa" x="12" y="24" dy="0em" pointer-events="none" text-anchor="middle" font-family="FontAwesome" font-size="12" style="fill: gray;"></tspan><tspan x="18" text-anchor="start" y="24" dy="0em"> conceptClassId : Integer</tspan><tspan x="23" text-anchor="start" y="24" dy="1.2em">conceptClassName : String</tspan></text></g></g></g><text font-family="Roboto, sans-serif" font-size="14"><tspan id="textDimensionHelper"/></text></svg>