<?xml version="1.0" standalone="no"?>
<svg xmlns:xlink="http://www.w3.org/1999/xlink" xmlns="http://www.w3.org/2000/svg" width="1619" height="856"><defs><marker id="modelerCanvasArrow" viewBox="0 -5 10 10" refX="5" refY="0" markerWidth="4" markerHeight="4" orient="auto"><path d="M0,-5L10,0L0,5" class="arrowHead"/></marker></defs><g transform="translate(509.64999999999975,327.6000030517573) scale(0.5)"><g id="relationshiptype_Rel75" class="relationshipType"><path class="relationshipLine arrow" d="M360,225C360,299.3333333333333,360,373.66666666666663,360,448C360,522.3333333333334,360,596.6666666666667,360,671" style="fill: none; stroke: black; stroke-width: 3;" marker-end="url(#modelerCanvasArrow)"/><title class="relationshipTypeTooltip">HAS_VISIT_OCCURRENCE</title><text class="displayText" x="360" y="450" text-anchor="middle" baseline-shift="30%" alignment-baseline="alphabetic" font-family="Roboto, sans-serif" font-size="14" style="fill: black;" transform="rotate(90 360 450)">HAS_VISIT_OCCURRENCE</text><g class="annotation" transform="translate(126.90625,409)"><path class="annotationBubble" stroke-width="2" d="M10,0L213.09375,0 C216.26041666666669,0.16666666666666674,219.42708333333334,0.3333333333333335,221.09375,2C222.76041666666666,3.6666666666666665,222.92708333333331,6.833333333333333,223.09375,10 L223.09375,33L231.09375,41L223.09375,49L223.09375,72 C222.92708333333331,75.16666666666666,222.76041666666666,78.33333333333333,221.09375,80C219.42708333333334,81.66666666666667,216.26041666666669,81.83333333333334,213.09375,82 L10,82 C6.833333333333333,81.83333333333334,3.6666666666666665,81.66666666666667,2,80C0.3333333333333333,78.33333333333333,0.16666666666666666,75.16666666666666,0,72 L0,10 C0.16666666666666674,6.833333333333333,0.3333333333333335,3.6666666666666665,2,2C3.6666666666666665,0.3333333333333333,6.833333333333333,0.16666666666666666,10,0Z" style="fill: white; stroke: black;"/><g class="annotationColoredBackgroundRectangles"><rect x="6" y="5.399999999999999" width="146.8125" height="21.6" rx="3" style="fill: white; stroke: white; stroke-width: 1;"/><rect x="6" y="28.6" width="193.09375" height="21.6" rx="3" style="fill: white; stroke: white; stroke-width: 1;"/><rect x="6" y="51.800000000000004" width="153.125" height="21.6" rx="3" style="fill: white; stroke: white; stroke-width: 1;"/></g><text class="annotationText" x="10" y="25" pointer-events="none" font-family="Roboto, sans-serif" font-size="14" style="fill: black;"><tspan x="10" y="25" text-anchor="start" style="fill: black;" dy="-0.25em">visit_end_date : Date</tspan><tspan x="10" y="25" text-anchor="start" style="fill: black;" dy="1.45em">visit_occurrence_id : Integer</tspan><tspan x="10" y="25" text-anchor="start" style="fill: black;" dy="3.15em">visit_start_date : Date</tspan></text></g></g><g id="relationshiptype_Rel80" class="relationshipType"><path class="relationshipLine arrow" d="M320.66958761031873,108.24945738199833C270.84978058523484,42.69707971741428,221.02997356015095,-22.85529794716976,171.21016653506712,-88.40767561175379C121.39035950998327,-153.96005327633782,71.57055248489938,-219.51243094092186,21.750745459815498,-285.0648086055059" style="fill: none; stroke: black; stroke-width: 3;" marker-end="url(#modelerCanvasArrow)"/><title class="relationshipTypeTooltip">HAS_OBSERVATION_PERIOD</title><text class="displayText" x="170" y="-90" text-anchor="middle" baseline-shift="30%" alignment-baseline="alphabetic" font-family="Roboto, sans-serif" font-size="14" style="fill: black;" transform="rotate(52.76516601842533 170 -90)">HAS_OBSERVATION_PERIOD</text><g class="annotation" transform="translate(-114.0314010623731,-84.58578643762691)"><path class="annotationBubble" stroke-width="2" d="M10,0L268.6171875,0 L272.6171875,0L282.6171875,-4L278.6171875,6L278.6171875,10 L278.6171875,96 C278.45052083333337,99.16666666666666,278.2838541666667,102.33333333333333,276.6171875,104C274.9505208333333,105.66666666666667,271.78385416666663,105.83333333333334,268.6171875,106 L10,106 C6.833333333333333,105.83333333333334,3.6666666666666665,105.66666666666667,2,104C0.3333333333333333,102.33333333333333,0.16666666666666666,99.16666666666666,0,96 L0,10 C0.16666666666666674,6.833333333333333,0.3333333333333335,3.6666666666666665,2,2C3.6666666666666665,0.3333333333333333,6.833333333333333,0.16666666666666666,10,0Z" style="fill: white; stroke: black;"/><g class="annotationColoredBackgroundRectangles"><rect x="6" y="5.399999999999999" width="211.03125" height="21.6" rx="3" style="fill: white; stroke: white; stroke-width: 1;"/><rect x="6" y="28.6" width="240.34375" height="21.6" rx="3" style="fill: white; stroke: white; stroke-width: 1;"/><rect x="6" y="51.800000000000004" width="28.296875" height="21.6" rx="3" style="fill: white; stroke: white; stroke-width: 1;"/><rect x="6" y="75" width="240.34375" height="21.6" rx="3" style="fill: white; stroke: white; stroke-width: 1;"/><rect x="6" y="98.19999999999999" width="28.296875" height="21.6" rx="3" style="fill: white; stroke: white; stroke-width: 1;"/><rect x="6" y="121.4" width="220.875" height="21.6" rx="3" style="fill: white; stroke: white; stroke-width: 1;"/></g><text class="annotationText" x="10" y="25" pointer-events="none" font-family="Roboto, sans-serif" font-size="14" style="fill: black;"><tspan x="10" y="25" text-anchor="start" style="fill: black;" dy="-0.25em">observation_period_id : Integer</tspan><tspan x="10" y="25" text-anchor="start" style="fill: black;" dy="1.45em">observation_period_start_date : Da-</tspan><tspan x="10" y="25" text-anchor="start" style="fill: black;" dy="3.15em">te</tspan><tspan x="10" y="25" text-anchor="start" style="fill: black;" dy="4.85em">observation_period_start_date : Da-</tspan><tspan x="10" y="25" text-anchor="start" style="fill: black;" dy="6.55em">te</tspan><tspan x="10" y="25" text-anchor="start" style="fill: black;" dy="8.25em">period_type_concept_id : Integer</tspan></text></g></g><g id="relationshiptype_Rel78" class="relationshipType"><path class="relationshipLine arrow" d="M360,95C360,24,360,-47,360,-118C360,-189,360,-260,360,-331" style="fill: none; stroke: black; stroke-width: 3;" marker-end="url(#modelerCanvasArrow)"/><title class="relationshipTypeTooltip">HAS_DRUG_EXPOSURE</title><text class="displayText" x="360" y="-120" text-anchor="middle" baseline-shift="30%" alignment-baseline="alphabetic" font-family="Roboto, sans-serif" font-size="14" style="fill: black;" transform="rotate(-90 360 -120)">HAS_DRUG_EXPOSURE</text><g class="annotation" transform="translate(93.5703125,-173)"><path class="annotationBubble" stroke-width="2" d="M10,0L246.4296875,0 C249.59635416666666,0.16666666666666674,252.76302083333331,0.3333333333333335,254.4296875,2C256.0963541666667,3.6666666666666665,256.26302083333337,6.833333333333333,256.4296875,10 L256.4296875,45L264.4296875,53L256.4296875,61L256.4296875,96 C256.2630208333333,99.16666666666666,256.09635416666663,102.33333333333333,254.4296875,104C252.76302083333334,105.66666666666667,249.59635416666669,105.83333333333334,246.4296875,106 L10,106 C6.833333333333333,105.83333333333334,3.6666666666666665,105.66666666666667,2,104C0.3333333333333333,102.33333333333333,0.16666666666666666,99.16666666666666,0,96 L0,10 C0.16666666666666674,6.833333333333333,0.3333333333333335,3.6666666666666665,2,2C3.6666666666666665,0.3333333333333333,6.833333333333333,0.16666666666666666,10,0Z" style="fill: white; stroke: black;"/><g class="annotationColoredBackgroundRectangles"><rect x="6" y="5.399999999999999" width="183.046875" height="21.6" rx="3" style="fill: white; stroke: white; stroke-width: 1;"/><rect x="6" y="28.6" width="220.640625" height="21.6" rx="3" style="fill: white; stroke: white; stroke-width: 1;"/><rect x="6" y="51.800000000000004" width="209.484375" height="21.6" rx="3" style="fill: white; stroke: white; stroke-width: 1;"/><rect x="6" y="75" width="185.328125" height="21.6" rx="3" style="fill: white; stroke: white; stroke-width: 1;"/><rect x="6" y="98.19999999999999" width="53.5" height="21.6" rx="3" style="fill: white; stroke: white; stroke-width: 1;"/></g><text class="annotationText" x="10" y="25" pointer-events="none" font-family="Roboto, sans-serif" font-size="14" style="fill: black;"><tspan x="10" y="25" text-anchor="start" style="fill: black;" dy="-0.25em">drug_exposure_id : Integer</tspan><tspan x="10" y="25" text-anchor="start" style="fill: black;" dy="1.45em">drug_exposure_start_date : Date</tspan><tspan x="10" y="25" text-anchor="start" style="fill: black;" dy="3.15em">drug_type_concept_id : Integer</tspan><tspan x="10" y="25" text-anchor="start" style="fill: black;" dy="4.85em">drug_type_concept_name :</tspan><tspan x="10" y="25" text-anchor="start" style="fill: black;" dy="6.55em">String</tspan></text></g></g><g id="relationshiptype_Rel62" class="relationshipType"><path class="relationshipLine arrow" d="M398.35107830725013,107.51957705323663C448.50737447860524,38.88464545032968,498.6636706499603,-29.750286152577274,548.8199668213153,-98.3852177554842C598.9762629926704,-167.02014935839114,649.1325591640255,-235.6550809612981,699.2888553353806,-304.290012564205" style="fill: none; stroke: black; stroke-width: 3;" marker-end="url(#modelerCanvasArrow)"/><title class="relationshipTypeTooltip">HAS_MEASUREMENT</title><text class="displayText" x="550" y="-100" text-anchor="middle" baseline-shift="30%" alignment-baseline="alphabetic" font-family="Roboto, sans-serif" font-size="14" style="fill: black;" transform="rotate(-53.84181456019167 550 -100)">HAS_MEASUREMENT</text><g class="annotation" transform="translate(555.4142135623731,-94.58578643762691)"><path class="annotationBubble" stroke-width="2" d="M10,0L208.1015625,0 C211.26822916666669,0.16666666666666674,214.43489583333334,0.3333333333333335,216.1015625,2C217.76822916666666,3.6666666666666665,217.93489583333331,6.833333333333333,218.1015625,10 L218.1015625,120 C217.93489583333331,123.16666666666667,217.76822916666666,126.33333333333334,216.1015625,128C214.43489583333334,129.66666666666666,211.26822916666669,129.83333333333331,208.1015625,130 L10,130 C6.833333333333333,129.83333333333334,3.6666666666666665,129.66666666666669,2,128C0.3333333333333333,126.33333333333333,0.16666666666666666,123.16666666666666,0,120 L0,10 L0,6L-4,-4L6,0L10,0Z" style="fill: white; stroke: black;"/><g class="annotationColoredBackgroundRectangles"><rect x="6" y="5.399999999999999" width="178.640625" height="21.6" rx="3" style="fill: white; stroke: white; stroke-width: 1;"/><rect x="6" y="28.6" width="177.328125" height="21.6" rx="3" style="fill: white; stroke: white; stroke-width: 1;"/><rect x="6" y="51.800000000000004" width="171.15625" height="21.6" rx="3" style="fill: white; stroke: white; stroke-width: 1;"/><rect x="6" y="75" width="147" height="21.6" rx="3" style="fill: white; stroke: white; stroke-width: 1;"/><rect x="6" y="98.19999999999999" width="53.5" height="21.6" rx="3" style="fill: white; stroke: white; stroke-width: 1;"/><rect x="6" y="121.4" width="169.109375" height="21.6" rx="3" style="fill: white; stroke: white; stroke-width: 1;"/></g><text class="annotationText" x="10" y="25" pointer-events="none" font-family="Roboto, sans-serif" font-size="14" style="fill: black;"><tspan x="10" y="25" text-anchor="start" style="fill: black;" dy="-0.25em">measurement_date : Date</tspan><tspan x="10" y="25" text-anchor="start" style="fill: black;" dy="1.45em">measurement_id : Integer</tspan><tspan x="10" y="25" text-anchor="start" style="fill: black;" dy="3.15em">unit_concept_id : Integer</tspan><tspan x="10" y="25" text-anchor="start" style="fill: black;" dy="4.85em">unit_concept_name :</tspan><tspan x="10" y="25" text-anchor="start" style="fill: black;" dy="6.55em">String</tspan><tspan x="10" y="25" text-anchor="start" style="fill: black;" dy="8.25em">value_as_number : Float</tspan></text></g></g><g id="relationshiptype_Rel82" class="relationshipType"><path class="relationshipLine arrow" d="M423.27211594168244,145.11244330783944C514.8657991822325,123.56098842771,606.4594824227827,102.00953354758056,698.0531656633328,80.4580786674511C789.646848903883,58.90662378732165,881.2405321444331,37.35516890719221,972.8342153849833,15.803714027062762" style="fill: none; stroke: black; stroke-width: 3;" marker-end="url(#modelerCanvasArrow)"/><title class="relationshipTypeTooltip">HAS_OBSERVATION_OCCURRENCE</title><text class="displayText" x="700" y="80" text-anchor="middle" baseline-shift="30%" alignment-baseline="alphabetic" font-family="Roboto, sans-serif" font-size="14" style="fill: black;" transform="rotate(-13.240519915187205 700 80)">HAS_OBSERVATION_OCCURRENCE</text><g class="annotation" transform="translate(705.4142135623731,85.41421356237309)"><path class="annotationBubble" stroke-width="2" d="M10,0L254.84375,0 C258.01041666666663,0.16666666666666674,261.1770833333333,0.3333333333333335,262.84375,2C264.5104166666667,3.6666666666666665,264.67708333333337,6.833333333333333,264.84375,10 L264.84375,48 C264.67708333333337,51.16666666666667,264.5104166666667,54.333333333333336,262.84375,56C261.1770833333333,57.666666666666664,258.01041666666663,57.83333333333333,254.84375,58 L10,58 C6.833333333333333,57.83333333333333,3.6666666666666665,57.666666666666664,2,56C0.3333333333333333,54.333333333333336,0.16666666666666666,51.16666666666667,0,48 L0,10 L0,6L-4,-4L6,0L10,0Z" style="fill: white; stroke: black;"/><g class="annotationColoredBackgroundRectangles"><rect x="6" y="5.399999999999999" width="173.796875" height="21.6" rx="3" style="fill: white; stroke: white; stroke-width: 1;"/><rect x="6" y="28.6" width="234.84375" height="21.6" rx="3" style="fill: white; stroke: white; stroke-width: 1;"/></g><text class="annotationText" x="10" y="25" pointer-events="none" font-family="Roboto, sans-serif" font-size="14" style="fill: black;"><tspan x="10" y="25" text-anchor="start" style="fill: black;" dy="-0.25em">observation_date : String</tspan><tspan x="10" y="25" text-anchor="start" style="fill: black;" dy="1.45em">observation_occurrence_id : String</tspan></text></g></g><g id="relationshiptype_Rel63" class="relationshipType"><path class="relationshipLine arrow" d="M422.83583981099827,176.63301642055836C514.5794230554245,200.91808257349467,606.3230062998507,225.20314872643104,698.066589544277,249.48821487936743C789.8101727887033,273.7732810323038,881.5537560331295,298.05834718524017,973.2973392775557,322.3434133381765" style="fill: none; stroke: black; stroke-width: 3;" marker-end="url(#modelerCanvasArrow)"/><title class="relationshipTypeTooltip">HAS_PROCEDURE_OCCURRENCE</title><text class="displayText" x="700" y="250" text-anchor="middle" baseline-shift="30%" alignment-baseline="alphabetic" font-family="Roboto, sans-serif" font-size="14" style="fill: black;" transform="rotate(14.826479970355665 700 250)">HAS_PROCEDURE_OCCURRENCE</text><g class="annotation" transform="translate(440.5232864376269,255.4142135623731)"><path class="annotationBubble" stroke-width="2" d="M10,0L244.0625,0 L248.0625,0L258.0625,-4L254.0625,6L254.0625,10 L254.0625,48 C253.89583333333331,51.16666666666667,253.72916666666666,54.333333333333336,252.0625,56C250.39583333333334,57.666666666666664,247.22916666666669,57.83333333333333,244.0625,58 L10,58 C6.833333333333333,57.83333333333333,3.6666666666666665,57.666666666666664,2,56C0.3333333333333333,54.333333333333336,0.16666666666666666,51.16666666666667,0,48 L0,10 C0.16666666666666674,6.833333333333333,0.3333333333333335,3.6666666666666665,2,2C3.6666666666666665,0.3333333333333333,6.833333333333333,0.16666666666666666,10,0Z" style="fill: white; stroke: black;"/><g class="annotationColoredBackgroundRectangles"><rect x="6" y="5.399999999999999" width="154.90625" height="21.6" rx="3" style="fill: white; stroke: white; stroke-width: 1;"/><rect x="6" y="28.6" width="224.0625" height="21.6" rx="3" style="fill: white; stroke: white; stroke-width: 1;"/></g><text class="annotationText" x="10" y="25" pointer-events="none" font-family="Roboto, sans-serif" font-size="14" style="fill: black;"><tspan x="10" y="25" text-anchor="start" style="fill: black;" dy="-0.25em">procedure_date : Date</tspan><tspan x="10" y="25" text-anchor="start" style="fill: black;" dy="1.45em">procedure_occurrence_id : String</tspan></text></g></g><g id="relationshiptype_Rel70" class="relationshipType"><path class="relationshipLine arrow" d="M406.82081387694626,205.08670965928158C480.7336624423031,276.2620453148105,554.64651100766,347.4373809703394,628.559359573017,418.61271662586825C702.472208138374,489.7880522813971,776.3850567037309,560.963387936926,850.2979052690878,632.1387235924549" style="fill: none; stroke: black; stroke-width: 3;" marker-end="url(#modelerCanvasArrow)"/><title class="relationshipTypeTooltip">HAS_CONDITION_OCCURRENCE</title><text class="displayText" x="630" y="420" text-anchor="middle" baseline-shift="30%" alignment-baseline="alphabetic" font-family="Roboto, sans-serif" font-size="14" style="fill: black;" transform="rotate(43.91907581333931 630 420)">HAS_CONDITION_OCCURRENCE</text><g class="annotation" transform="translate(368.2498489376269,425.4142135623731)"><path class="annotationBubble" stroke-width="2" d="M10,0L246.3359375,0 L250.3359375,0L260.3359375,-4L256.3359375,6L256.3359375,10 L256.3359375,72 C256.1692708333333,75.16666666666666,256.00260416666663,78.33333333333333,254.3359375,80C252.66927083333334,81.66666666666667,249.50260416666669,81.83333333333334,246.3359375,82 L10,82 C6.833333333333333,81.83333333333334,3.6666666666666665,81.66666666666667,2,80C0.3333333333333333,78.33333333333333,0.16666666666666666,75.16666666666666,0,72 L0,10 C0.16666666666666674,6.833333333333333,0.3333333333333335,3.6666666666666665,2,2C3.6666666666666665,0.3333333333333333,6.833333333333333,0.16666666666666666,10,0Z" style="fill: white; stroke: black;"/><g class="annotationColoredBackgroundRectangles"><rect x="6" y="5.399999999999999" width="180.046875" height="21.6" rx="3" style="fill: white; stroke: white; stroke-width: 1;"/><rect x="6" y="28.6" width="209.890625" height="21.6" rx="3" style="fill: white; stroke: white; stroke-width: 1;"/><rect x="6" y="51.800000000000004" width="36.46875" height="21.6" rx="3" style="fill: white; stroke: white; stroke-width: 1;"/><rect x="6" y="75" width="186.375" height="21.6" rx="3" style="fill: white; stroke: white; stroke-width: 1;"/></g><text class="annotationText" x="10" y="25" pointer-events="none" font-family="Roboto, sans-serif" font-size="14" style="fill: black;"><tspan x="10" y="25" text-anchor="start" style="fill: black;" dy="-0.25em">condition_end_date : Date</tspan><tspan x="10" y="25" text-anchor="start" style="fill: black;" dy="1.45em">condition_occurrence_id : Inte-</tspan><tspan x="10" y="25" text-anchor="start" style="fill: black;" dy="3.15em">ger</tspan><tspan x="10" y="25" text-anchor="start" style="fill: black;" dy="4.85em">condition_start_date : Date</tspan></text></g></g><g id="relationshiptype_Rel72" class="relationshipType"><path class="relationshipLine arrow" d="M295.47230416780894,167.82153888875044C207.64335863322842,178.46747168082078,119.81441309864792,189.11340447289115,31.985467564067406,199.75933726496152C-55.843477970513106,210.40527005703188,-143.6724235050936,221.05120284910225,-231.50136903967413,231.69713564117262" style="fill: none; stroke: black; stroke-width: 3;" marker-end="url(#modelerCanvasArrow)"/><title class="relationshipTypeTooltip">HAS_ETHNICITY</title><text class="displayText" x="30" y="200" text-anchor="middle" baseline-shift="30%" alignment-baseline="alphabetic" font-family="Roboto, sans-serif" font-size="14" style="fill: black;" transform="rotate(-6.911227119024659 30 200)">HAS_ETHNICITY</text></g><g id="relationshiptype_Rel64" class="relationshipType"><path class="relationshipLine arrow" d="M300.3588843548549,185.84448344622953C220.85095998677656,220.2979173390635,141.3430356186982,254.75135123189744,61.835111250619846,289.2047851247314C-17.672813117458514,323.6582190175654,-97.18073748553687,358.11165291039936,-176.68866185361523,392.56508680323327" style="fill: none; stroke: black; stroke-width: 3;" marker-end="url(#modelerCanvasArrow)"/><title class="relationshipTypeTooltip">HAS_RACE</title><text class="displayText" x="60.000000000000014" y="290" text-anchor="middle" baseline-shift="30%" alignment-baseline="alphabetic" font-family="Roboto, sans-serif" font-size="14" style="fill: black;" transform="rotate(-23.42869280874541 60.000000000000014 290)">HAS_RACE</text></g><g id="relationshiptype_Rel65" class="relationshipType"><path class="relationshipLine arrow" d="M296.11330784926906,148.02124522173796C211.39745335746892,132.13702250452542,126.68159886566878,116.2527997873129,41.96574437386863,100.36857707010037C-42.75011011793151,84.48435435288785,-127.46596460973166,68.60013163567533,-212.1818191015318,52.715908918462794" style="fill: none; stroke: black; stroke-width: 3;" marker-end="url(#modelerCanvasArrow)"/><title class="relationshipTypeTooltip">HAS_GENDER</title><text class="displayText" x="39.999999999999986" y="100" text-anchor="middle" baseline-shift="30%" alignment-baseline="alphabetic" font-family="Roboto, sans-serif" font-size="14" style="fill: black;" transform="rotate(10.619655276155129 39.999999999999986 100)">HAS_GENDER</text></g><g class="grid"/><g id="nodelabel_Node46" class="nodeLabel"><circle class="hoverCircle" cy="740" cx="360" r="80" style="opacity: 0; fill: lightgray;"/><circle class="displayCircle" cy="740" cx="360" r="60" style="fill: rgb(255, 235, 59); stroke: rgb(168, 156, 0); stroke-width: 4;"/><text class="displayText" x="360" y="740" pointer-events="none" text-anchor="middle" alignment-baseline="central" font-family="Roboto, sans-serif" font-size="14" style="fill: black;"><tspan x="360" y="740" dy="0.34em">VisitOccurrence</tspan></text><g class="annotation" transform="translate(249.89453125,813)"><path class="annotationBubble" stroke-width="2" d="M10,0L102.10546875,0L110.10546875,-8L118.10546875,0L210.2109375,0 C213.37760416666669,0.16666666666666674,216.54427083333334,0.3333333333333335,218.2109375,2C219.87760416666666,3.6666666666666665,220.04427083333331,6.833333333333333,220.2109375,10 L220.2109375,48 C220.04427083333331,51.16666666666667,219.87760416666666,54.333333333333336,218.2109375,56C216.54427083333334,57.666666666666664,213.37760416666669,57.83333333333333,210.2109375,58 L10,58 C6.833333333333333,57.83333333333333,3.6666666666666665,57.666666666666664,2,56C0.3333333333333333,54.333333333333336,0.16666666666666666,51.16666666666667,0,48 L0,10 C0.16666666666666674,6.833333333333333,0.3333333333333335,3.6666666666666665,2,2C3.6666666666666665,0.3333333333333333,6.833333333333333,0.16666666666666666,10,0Z" style="fill: white; stroke: black;"/><g class="annotationColoredBackgroundRectangles"><rect x="6" y="5.399999999999999" width="173.265625" height="21.6" rx="3" style="fill: white; stroke: white; stroke-width: 1;"/><rect x="6" y="28.6" width="149.109375" height="21.6" rx="3" style="fill: white; stroke: white; stroke-width: 1;"/><rect x="6" y="51.800000000000004" width="53.5" height="21.6" rx="3" style="fill: white; stroke: white; stroke-width: 1;"/></g><text class="annotationText" x="10" y="25" pointer-events="none" font-family="Roboto, sans-serif" font-size="14" style="fill: black;"><tspan x="10" y="25" text-anchor="start" style="fill: black;" dy="-0.25em">visit_concept_id : Integer</tspan><tspan x="10" y="25" text-anchor="start" style="fill: black;" dy="1.45em">visit_concept_name :</tspan><tspan x="10" y="25" text-anchor="start" style="fill: black;" dy="3.15em">String</tspan></text></g></g><g id="nodelabel_Node36" class="nodeLabel"><circle class="hoverCircle" cy="680" cx="900" r="80" style="opacity: 0; fill: lightgray;"/><circle class="displayCircle" cy="680" cx="900" r="60" style="fill: rgb(0, 188, 212); stroke: rgb(0, 112, 134); stroke-width: 4;"/><text class="displayText" x="900" y="680" pointer-events="none" text-anchor="middle" alignment-baseline="central" font-family="Roboto, sans-serif" font-size="14" style="fill: white;"><tspan x="900" y="680" dy="0.00em">Condition</tspan><tspan x="900" y="680" dy="1.10em">Occurrence</tspan></text><g class="annotation" transform="translate(949.9619407771256,729.9619407771256)"><path class="annotationBubble" stroke-width="2" d="M10,0L250.5390625,0 C253.70572916666666,0.16666666666666674,256.8723958333333,0.3333333333333335,258.5390625,2C260.2057291666667,3.6666666666666665,260.37239583333337,6.833333333333333,260.5390625,10 L260.5390625,48 C260.37239583333337,51.16666666666667,260.2057291666667,54.333333333333336,258.5390625,56C256.8723958333333,57.666666666666664,253.70572916666666,57.83333333333333,250.5390625,58 L10,58 C6.833333333333333,57.83333333333333,3.6666666666666665,57.666666666666664,2,56C0.3333333333333333,54.333333333333336,0.16666666666666666,51.16666666666667,0,48 L0,10 L0,6L-4,-4L6,0L10,0Z" style="fill: white; stroke: black;"/><g class="annotationColoredBackgroundRectangles"><rect x="6" y="5.399999999999999" width="206.515625" height="21.6" rx="3" style="fill: white; stroke: white; stroke-width: 1;"/><rect x="6" y="28.6" width="214.09375" height="21.6" rx="3" style="fill: white; stroke: white; stroke-width: 1;"/><rect x="6" y="51.800000000000004" width="36.46875" height="21.6" rx="3" style="fill: white; stroke: white; stroke-width: 1;"/></g><text class="annotationText" x="10" y="25" pointer-events="none" font-family="Roboto, sans-serif" font-size="14" style="fill: black;"><tspan x="10" y="25" text-anchor="start" style="fill: black;" dy="-0.25em">condition_concept_id : Integer</tspan><tspan x="10" y="25" text-anchor="start" style="fill: black;" dy="1.45em">condition_concept_name : Inte-</tspan><tspan x="10" y="25" text-anchor="start" style="fill: black;" dy="3.15em">ger</tspan></text></g></g><g id="nodelabel_Node29" class="nodeLabel"><circle class="hoverCircle" cy="340" cx="1040" r="80" style="opacity: 0; fill: lightgray;"/><circle class="displayCircle" cy="340" cx="1040" r="60" style="fill: rgb(0, 188, 212); stroke: rgb(0, 112, 134); stroke-width: 4;"/><text class="displayText" x="1040" y="340" pointer-events="none" text-anchor="middle" alignment-baseline="central" font-family="Roboto, sans-serif" font-size="14" style="fill: white;"><tspan x="1040" y="340" dy="0.00em">Procedure</tspan><tspan x="1040" y="340" dy="1.10em">Occurrence</tspan></text><g class="annotation" transform="translate(1113,311)"><path class="annotationBubble" stroke-width="2" d="M10,0L255.3515625,0 C258.51822916666663,0.16666666666666674,261.6848958333333,0.3333333333333335,263.3515625,2C265.0182291666667,3.6666666666666665,265.18489583333337,6.833333333333333,265.3515625,10 L265.3515625,48 C265.18489583333337,51.16666666666667,265.0182291666667,54.333333333333336,263.3515625,56C261.6848958333333,57.666666666666664,258.51822916666663,57.83333333333333,255.3515625,58 L10,58 C6.833333333333333,57.83333333333333,3.6666666666666665,57.666666666666664,2,56C0.3333333333333333,54.333333333333336,0.16666666666666666,51.16666666666667,0,48 L0,37L-8,29L0,21L0,10 C0.16666666666666674,6.833333333333333,0.3333333333333335,3.6666666666666665,2,2C3.6666666666666665,0.3333333333333333,6.833333333333333,0.16666666666666666,10,0Z" style="fill: white; stroke: black;"/><g class="annotationColoredBackgroundRectangles"><rect x="6" y="5.399999999999999" width="196.125" height="21.6" rx="3" style="fill: white; stroke: white; stroke-width: 1;"/><rect x="6" y="28.6" width="218.90625" height="21.6" rx="3" style="fill: white; stroke: white; stroke-width: 1;"/><rect x="6" y="51.800000000000004" width="36.46875" height="21.6" rx="3" style="fill: white; stroke: white; stroke-width: 1;"/></g><text class="annotationText" x="10" y="25" pointer-events="none" font-family="Roboto, sans-serif" font-size="14" style="fill: black;"><tspan x="10" y="25" text-anchor="start" style="fill: black;" dy="-0.25em">procedure_concept_id : Date</tspan><tspan x="10" y="25" text-anchor="start" style="fill: black;" dy="1.45em">procedure_concept_name : Inte-</tspan><tspan x="10" y="25" text-anchor="start" style="fill: black;" dy="3.15em">ger</tspan></text></g></g><g id="nodelabel_Node2" class="nodeLabel"><circle class="hoverCircle" cy="0" cx="1040" r="80" style="opacity: 0; fill: lightgray;"/><circle class="displayCircle" cy="0" cx="1040" r="60" style="fill: rgb(0, 188, 212); stroke: rgb(0, 112, 134); stroke-width: 4;"/><text class="displayText" x="1040" y="0" pointer-events="none" text-anchor="middle" alignment-baseline="central" font-family="Roboto, sans-serif" font-size="14" style="fill: white;"><tspan x="1040" y="0" dy="0.34em">Observation</tspan></text><g class="annotation" transform="translate(1113,-29)"><path class="annotationBubble" stroke-width="2" d="M10,0L266.140625,0 C269.30729166666663,0.16666666666666674,272.4739583333333,0.3333333333333335,274.140625,2C275.8072916666667,3.6666666666666665,275.97395833333337,6.833333333333333,276.140625,10 L276.140625,48 C275.97395833333337,51.16666666666667,275.8072916666667,54.333333333333336,274.140625,56C272.4739583333333,57.666666666666664,269.30729166666663,57.83333333333333,266.140625,58 L10,58 C6.833333333333333,57.83333333333333,3.6666666666666665,57.666666666666664,2,56C0.3333333333333333,54.333333333333336,0.16666666666666666,51.16666666666667,0,48 L0,37L-8,29L0,21L0,10 C0.16666666666666674,6.833333333333333,0.3333333333333335,3.6666666666666665,2,2C3.6666666666666665,0.3333333333333333,6.833333333333333,0.16666666666666666,10,0Z" style="fill: white; stroke: black;"/><g class="annotationColoredBackgroundRectangles"><rect x="6" y="5.399999999999999" width="206.90625" height="21.6" rx="3" style="fill: white; stroke: white; stroke-width: 1;"/><rect x="6" y="28.6" width="246.140625" height="21.6" rx="3" style="fill: white; stroke: white; stroke-width: 1;"/></g><text class="annotationText" x="10" y="25" pointer-events="none" font-family="Roboto, sans-serif" font-size="14" style="fill: black;"><tspan x="10" y="25" text-anchor="start" style="fill: black;" dy="-0.25em">observation_concept_id : Date</tspan><tspan x="10" y="25" text-anchor="start" style="fill: black;" dy="1.45em">observation_concept_name : Integer</tspan></text></g></g><g id="nodelabel_Node5" class="nodeLabel"><circle class="hoverCircle" cy="-360" cx="740" r="80" style="opacity: 0; fill: lightgray;"/><circle class="displayCircle" cy="-360" cx="740" r="60" style="fill: rgb(0, 188, 212); stroke: rgb(0, 112, 134); stroke-width: 4;"/><text class="displayText" x="740" y="-360" pointer-events="none" text-anchor="middle" alignment-baseline="central" font-family="Roboto, sans-serif" font-size="14" style="fill: white;"><tspan x="740" y="-360" dy="0.34em">Measurement</tspan></text><g class="annotation" transform="translate(789.9619407771256,-467.9619407771256)"><path class="annotationBubble" stroke-width="2" d="M10,0L271.9921875,0 C275.15885416666663,0.16666666666666674,278.3255208333333,0.3333333333333335,279.9921875,2C281.6588541666667,3.6666666666666665,281.82552083333337,6.833333333333333,281.9921875,10 L281.9921875,48 C281.82552083333337,51.16666666666667,281.6588541666667,54.333333333333336,279.9921875,56C278.3255208333333,57.666666666666664,275.15885416666663,57.83333333333333,271.9921875,58 L10,58 L6,58L-4,62L0,52L0,48 L0,10 C0.16666666666666674,6.833333333333333,0.3333333333333335,3.6666666666666665,2,2C3.6666666666666665,0.3333333333333333,6.833333333333333,0.16666666666666666,10,0Z" style="fill: white; stroke: black;"/><g class="annotationColoredBackgroundRectangles"><rect x="6" y="5.399999999999999" width="235.046875" height="21.6" rx="3" style="fill: white; stroke: white; stroke-width: 1;"/><rect x="6" y="28.6" width="210.890625" height="21.6" rx="3" style="fill: white; stroke: white; stroke-width: 1;"/><rect x="6" y="51.800000000000004" width="53.5" height="21.6" rx="3" style="fill: white; stroke: white; stroke-width: 1;"/></g><text class="annotationText" x="10" y="25" pointer-events="none" font-family="Roboto, sans-serif" font-size="14" style="fill: black;"><tspan x="10" y="25" text-anchor="start" style="fill: black;" dy="-0.25em">measurement_concept_id : Integer</tspan><tspan x="10" y="25" text-anchor="start" style="fill: black;" dy="1.45em">measurement_concept_name :</tspan><tspan x="10" y="25" text-anchor="start" style="fill: black;" dy="3.15em">String</tspan></text></g></g><g id="nodelabel_Node16" class="nodeLabel"><circle class="hoverCircle" cy="-400" cx="360" r="80" style="opacity: 0; fill: lightgray;"/><circle class="displayCircle" cy="-400" cx="360" r="60" style="fill: rgb(0, 188, 212); stroke: rgb(0, 112, 134); stroke-width: 4;"/><text class="displayText" x="360" y="-400" pointer-events="none" text-anchor="middle" alignment-baseline="central" font-family="Roboto, sans-serif" font-size="14" style="fill: white;"><tspan x="360" y="-400" dy="0.34em">DrugExposure</tspan></text><g class="annotation" transform="translate(248.55078125,-531)"><path class="annotationBubble" stroke-width="2" d="M10,0L212.8984375,0 C216.06510416666669,0.16666666666666674,219.23177083333334,0.3333333333333335,220.8984375,2C222.56510416666666,3.6666666666666665,222.73177083333331,6.833333333333333,222.8984375,10 L222.8984375,48 C222.73177083333331,51.16666666666667,222.56510416666666,54.333333333333336,220.8984375,56C219.23177083333334,57.666666666666664,216.06510416666669,57.83333333333333,212.8984375,58 L119.44921875,58L111.44921875,66L103.44921875,58L10,58 C6.833333333333333,57.83333333333333,3.6666666666666665,57.666666666666664,2,56C0.3333333333333333,54.333333333333336,0.16666666666666666,51.16666666666667,0,48 L0,10 C0.16666666666666674,6.833333333333333,0.3333333333333335,3.6666666666666665,2,2C3.6666666666666665,0.3333333333333333,6.833333333333333,0.16666666666666666,10,0Z" style="fill: white; stroke: black;"/><g class="annotationColoredBackgroundRectangles"><rect x="6" y="5.399999999999999" width="175.953125" height="21.6" rx="3" style="fill: white; stroke: white; stroke-width: 1;"/><rect x="6" y="28.6" width="151.796875" height="21.6" rx="3" style="fill: white; stroke: white; stroke-width: 1;"/><rect x="6" y="51.800000000000004" width="53.5" height="21.6" rx="3" style="fill: white; stroke: white; stroke-width: 1;"/></g><text class="annotationText" x="10" y="25" pointer-events="none" font-family="Roboto, sans-serif" font-size="14" style="fill: black;"><tspan x="10" y="25" text-anchor="start" style="fill: black;" dy="-0.25em">drug_concept_id : Integer</tspan><tspan x="10" y="25" text-anchor="start" style="fill: black;" dy="1.45em">drug_concept_name :</tspan><tspan x="10" y="25" text-anchor="start" style="fill: black;" dy="3.15em">String</tspan></text></g></g><g id="nodelabel_Node26" class="nodeLabel"><circle class="hoverCircle" cy="-340" cx="-20" r="80" style="opacity: 0; fill: lightgray;"/><circle class="displayCircle" cy="-340" cx="-20" r="60" style="fill: rgb(0, 188, 212); stroke: rgb(0, 112, 134); stroke-width: 4;"/><text class="displayText" x="-20" y="-340" pointer-events="none" text-anchor="middle" alignment-baseline="central" font-family="Roboto, sans-serif" font-size="14" style="fill: white;"><tspan x="-20" y="-340" dy="0.00em">Observation</tspan><tspan x="-20" y="-340" dy="1.10em">Period</tspan></text><g class="annotation" transform="translate(-337.7744407771256,-447.9619407771256)"><path class="annotationBubble" stroke-width="2" d="M10,0L257.8125,0 C260.97916666666663,0.16666666666666674,264.1458333333333,0.3333333333333335,265.8125,2C267.4791666666667,3.6666666666666665,267.64583333333337,6.833333333333333,267.8125,10 L267.8125,48 L267.8125,52L271.8125,62L261.8125,58L257.8125,58 L10,58 C6.833333333333333,57.83333333333333,3.6666666666666665,57.666666666666664,2,56C0.3333333333333333,54.333333333333336,0.16666666666666666,51.16666666666667,0,48 L0,10 C0.16666666666666674,6.833333333333333,0.3333333333333335,3.6666666666666665,2,2C3.6666666666666665,0.3333333333333333,6.833333333333333,0.16666666666666666,10,0Z" style="fill: white; stroke: black;"/><g class="annotationColoredBackgroundRectangles"><rect x="6" y="5.399999999999999" width="220.875" height="21.6" rx="3" style="fill: white; stroke: white; stroke-width: 1;"/><rect x="6" y="28.6" width="237.8125" height="21.6" rx="3" style="fill: white; stroke: white; stroke-width: 1;"/></g><text class="annotationText" x="10" y="25" pointer-events="none" font-family="Roboto, sans-serif" font-size="14" style="fill: black;"><tspan x="10" y="25" text-anchor="start" style="fill: black;" dy="-0.25em">period_type_concept_id : Integer</tspan><tspan x="10" y="25" text-anchor="start" style="fill: black;" dy="1.45em">period_type_concept_name : String</tspan></text></g></g><g id="nodelabel_Node3" class="nodeLabel"><circle class="hoverCircle" cy="40" cx="-280" r="80" style="opacity: 0; fill: lightgray;"/><circle class="displayCircle" cy="40" cx="-280" r="60" style="fill: rgb(76, 175, 80); stroke: rgb(0, 99, 3); stroke-width: 4;"/><text class="displayText" x="-280" y="40" pointer-events="none" text-anchor="middle" alignment-baseline="central" font-family="Roboto, sans-serif" font-size="14" style="fill: white;"><tspan x="-280" y="40" dy="0.34em">Gender</tspan></text><g class="annotation" transform="translate(-591.0390625,11)"><path class="annotationBubble" stroke-width="2" d="M10,0L228.0390625,0 C231.20572916666669,0.16666666666666674,234.37239583333334,0.3333333333333335,236.0390625,2C237.70572916666666,3.6666666666666665,237.87239583333331,6.833333333333333,238.0390625,10 L238.0390625,21L246.0390625,29L238.0390625,37L238.0390625,48 C237.87239583333331,51.16666666666667,237.70572916666666,54.333333333333336,236.0390625,56C234.37239583333334,57.666666666666664,231.20572916666669,57.83333333333333,228.0390625,58 L10,58 C6.833333333333333,57.83333333333333,3.6666666666666665,57.666666666666664,2,56C0.3333333333333333,54.333333333333336,0.16666666666666666,51.16666666666667,0,48 L0,10 C0.16666666666666674,6.833333333333333,0.3333333333333335,3.6666666666666665,2,2C3.6666666666666665,0.3333333333333333,6.833333333333333,0.16666666666666666,10,0Z" style="fill: white; stroke: black;"/><g class="annotationColoredBackgroundRectangles"><rect x="6" y="5.399999999999999" width="191.09375" height="21.6" rx="3" style="fill: white; stroke: white; stroke-width: 1;"/><rect x="6" y="28.6" width="166.9375" height="21.6" rx="3" style="fill: white; stroke: white; stroke-width: 1;"/><rect x="6" y="51.800000000000004" width="53.5" height="21.6" rx="3" style="fill: white; stroke: white; stroke-width: 1;"/></g><text class="annotationText" x="10" y="25" pointer-events="none" font-family="Roboto, sans-serif" font-size="14" style="fill: black;"><tspan x="10" y="25" text-anchor="start" style="fill: black;" dy="-0.25em">gender_concept_id : Integer</tspan><tspan x="10" y="25" text-anchor="start" style="fill: black;" dy="1.45em">gender_concept_name :</tspan><tspan x="10" y="25" text-anchor="start" style="fill: black;" dy="3.15em">String</tspan></text></g></g><g id="nodelabel_Node32" class="nodeLabel"><circle class="hoverCircle" cy="240" cx="-300" r="80" style="opacity: 0; fill: lightgray;"/><circle class="displayCircle" cy="240" cx="-300" r="60" style="fill: rgb(76, 175, 80); stroke: rgb(0, 99, 3); stroke-width: 4;"/><text class="displayText" x="-300" y="240" pointer-events="none" text-anchor="middle" alignment-baseline="central" font-family="Roboto, sans-serif" font-size="14" style="fill: white;"><tspan x="-300" y="240" dy="0.34em">Ethnicity</tspan></text><g class="annotation" transform="translate(-621.1875,211)"><path class="annotationBubble" stroke-width="2" d="M10,0L238.1875,0 C241.35416666666669,0.16666666666666674,244.52083333333334,0.3333333333333335,246.1875,2C247.85416666666666,3.6666666666666665,248.02083333333331,6.833333333333333,248.1875,10 L248.1875,21L256.1875,29L248.1875,37L248.1875,48 C248.02083333333331,51.16666666666667,247.85416666666666,54.333333333333336,246.1875,56C244.52083333333334,57.666666666666664,241.35416666666669,57.83333333333333,238.1875,58 L10,58 C6.833333333333333,57.83333333333333,3.6666666666666665,57.666666666666664,2,56C0.3333333333333333,54.333333333333336,0.16666666666666666,51.16666666666667,0,48 L0,10 C0.16666666666666674,6.833333333333333,0.3333333333333335,3.6666666666666665,2,2C3.6666666666666665,0.3333333333333333,6.833333333333333,0.16666666666666666,10,0Z" style="fill: white; stroke: black;"/><g class="annotationColoredBackgroundRectangles"><rect x="6" y="5.399999999999999" width="201.25" height="21.6" rx="3" style="fill: white; stroke: white; stroke-width: 1;"/><rect x="6" y="28.6" width="218.1875" height="21.6" rx="3" style="fill: white; stroke: white; stroke-width: 1;"/></g><text class="annotationText" x="10" y="25" pointer-events="none" font-family="Roboto, sans-serif" font-size="14" style="fill: black;"><tspan x="10" y="25" text-anchor="start" style="fill: black;" dy="-0.25em">ethnicity_concept_id : Integer</tspan><tspan x="10" y="25" text-anchor="start" style="fill: black;" dy="1.45em">ethnicity_concept_name : String</tspan></text></g></g><g id="nodelabel_Node34" class="nodeLabel"><circle class="hoverCircle" cy="420" cx="-240" r="80" style="opacity: 0; fill: lightgray;"/><circle class="displayCircle" cy="420" cx="-240" r="60" style="fill: rgb(76, 175, 80); stroke: rgb(0, 99, 3); stroke-width: 4;"/><text class="displayText" x="-240" y="420" pointer-events="none" text-anchor="middle" alignment-baseline="central" font-family="Roboto, sans-serif" font-size="14" style="fill: white;"><tspan x="-240" y="420" dy="0.34em">Race</tspan></text><g class="annotation" transform="translate(-511.4775657771256,469.96194077712556)"><path class="annotationBubble" stroke-width="2" d="M10,0L211.515625,0 L215.515625,0L225.515625,-4L221.515625,6L221.515625,10 L221.515625,48 C221.34895833333331,51.16666666666667,221.18229166666666,54.333333333333336,219.515625,56C217.84895833333334,57.666666666666664,214.68229166666669,57.83333333333333,211.515625,58 L10,58 C6.833333333333333,57.83333333333333,3.6666666666666665,57.666666666666664,2,56C0.3333333333333333,54.333333333333336,0.16666666666666666,51.16666666666667,0,48 L0,10 C0.16666666666666674,6.833333333333333,0.3333333333333335,3.6666666666666665,2,2C3.6666666666666665,0.3333333333333333,6.833333333333333,0.16666666666666666,10,0Z" style="fill: white; stroke: black;"/><g class="annotationColoredBackgroundRectangles"><rect x="6" y="5.399999999999999" width="174.578125" height="21.6" rx="3" style="fill: white; stroke: white; stroke-width: 1;"/><rect x="6" y="28.6" width="191.515625" height="21.6" rx="3" style="fill: white; stroke: white; stroke-width: 1;"/></g><text class="annotationText" x="10" y="25" pointer-events="none" font-family="Roboto, sans-serif" font-size="14" style="fill: black;"><tspan x="10" y="25" text-anchor="start" style="fill: black;" dy="-0.25em">race_concept_id : Integer</tspan><tspan x="10" y="25" text-anchor="start" style="fill: black;" dy="1.45em">race_concept_name : String</tspan></text></g></g><g id="nodelabel_Node24" class="nodeLabel"><circle class="hoverCircle" cy="160" cx="360" r="80" style="opacity: 0; fill: lightgray;"/><circle class="displayCircle" cy="160" cx="360" r="60" style="fill: rgb(3, 169, 244); stroke: rgb(0, 96, 163); stroke-width: 4;"/><text class="displayText" x="360" y="160" pointer-events="none" text-anchor="middle" alignment-baseline="central" font-family="Roboto, sans-serif" font-size="14" style="fill: white;"><tspan x="360" y="160" dy="0.34em">Person</tspan></text><g class="annotation" transform="translate(103.296875,119)"><path class="annotationBubble" stroke-width="2" d="M10,0L173.703125,0 C176.86979166666669,0.16666666666666674,180.03645833333334,0.3333333333333335,181.703125,2C183.36979166666666,3.6666666666666665,183.53645833333331,6.833333333333333,183.703125,10 L183.703125,33L191.703125,41L183.703125,49L183.703125,72 C183.53645833333331,75.16666666666666,183.36979166666666,78.33333333333333,181.703125,80C180.03645833333334,81.66666666666667,176.86979166666669,81.83333333333334,173.703125,82 L10,82 C6.833333333333333,81.83333333333334,3.6666666666666665,81.66666666666667,2,80C0.3333333333333333,78.33333333333333,0.16666666666666666,75.16666666666666,0,72 L0,10 C0.16666666666666674,6.833333333333333,0.3333333333333335,3.6666666666666665,2,2C3.6666666666666665,0.3333333333333333,6.833333333333333,0.16666666666666666,10,0Z" style="fill: white; stroke: black;"/><g class="annotationColoredBackgroundRectangles"><rect x="6" y="5.399999999999999" width="148.53125" height="21.6" rx="3" style="fill: white; stroke: white; stroke-width: 1;"/><rect x="6" y="28.6" width="133.265625" height="21.6" rx="3" style="fill: white; stroke: white; stroke-width: 1;"/><rect x="6" y="51.800000000000004" width="153.703125" height="21.6" rx="3" style="fill: white; stroke: white; stroke-width: 1;"/></g><text class="annotationText" x="10" y="25" pointer-events="none" font-family="Roboto, sans-serif" font-size="14" style="fill: black;"><tspan x="10" y="25" text-anchor="start" style="fill: black;" dy="-0.25em">patient_ir_id : Integer</tspan><tspan x="10" y="25" text-anchor="start" style="fill: black;" dy="1.45em">person_id : Integer</tspan><tspan x="10" y="25" text-anchor="start" style="fill: black;" dy="3.15em">year_of_birth : Integer</tspan></text></g></g></g><text pointer-events="none" font-family="Roboto, sans-serif" font-size="14"><tspan id="modelerCanvas_textDimensionHelper"/></text></svg>