<?xml version="1.0" standalone="no"?>
<svg xmlns:xlink="http://www.w3.org/1999/xlink" xmlns="http://www.w3.org/2000/svg" width="1805" height="759"><defs><marker id="modelerCanvasArrow" viewBox="0 -5 10 10" refX="5" refY="0" markerWidth="4" markerHeight="4" orient="auto"><path d="M0,-5L10,0L0,5" class="arrowHead"/></marker></defs><g transform="translate(477.9999999999998,232.99999999999991) scale(0.4)"><g class="grid"/><g id="relationshiptype_Rel15" class="relationshipType"><path class="relationshipLine arrow" d="M119.55022676864229,346.053224211281C312.42271295582674,430.4349369181742,505.29519914301125,514.8166496250673,698.1676853301956,599.1983623319605C891.0401715173799,683.5800750388538,1083.9126577045645,767.961787745747,1276.785143891749,852.3435004526401" style="fill: none; stroke: black; stroke-width: 3;" marker-end="url(#modelerCanvasArrow)"/><title class="relationshipTypeTooltip">HAS_PROCEDURE_OCCURRENCE</title><text class="displayText" x="700" y="600" text-anchor="middle" baseline-shift="30%" alignment-baseline="alphabetic" font-family="Roboto, sans-serif" font-size="14" style="fill: black;" transform="rotate(23.629377730656817 700 600)">HAS_PROCEDURE_OCCURRENCE</text><g class="annotation" transform="translate(432.1248489376269,605.4142135623731)"><path class="annotationBubble" stroke-width="2" d="M10,0L252.4609375,0 L256.4609375,0L266.4609375,-4L262.4609375,6L262.4609375,10 L262.4609375,48 C262.29427083333337,51.16666666666667,262.1276041666667,54.333333333333336,260.4609375,56C258.7942708333333,57.666666666666664,255.62760416666666,57.83333333333333,252.4609375,58 L10,58 C6.833333333333333,57.83333333333333,3.6666666666666665,57.666666666666664,2,56C0.3333333333333333,54.333333333333336,0.16666666666666666,51.16666666666667,0,48 L0,10 C0.16666666666666674,6.833333333333333,0.3333333333333335,3.6666666666666665,2,2C3.6666666666666665,0.3333333333333333,6.833333333333333,0.16666666666666666,10,0Z" style="fill: white; stroke: black;"/><g class="annotationColoredBackgroundRectangles"><rect x="6" y="5.399999999999999" width="224.18359375" height="21.6" rx="3" style="fill: white; stroke: white; stroke-width: 1;"/><rect x="6" y="28.6" width="28.3046875" height="21.6" rx="3" style="fill: white; stroke: white; stroke-width: 1;"/><rect x="6" y="51.800000000000004" width="231.15625" height="21.6" rx="3" style="fill: white; stroke: white; stroke-width: 1;"/></g><text class="annotationText" x="10" y="25" pointer-events="none" font-family="Roboto, sans-serif" font-size="14" style="fill: black;"><tspan x="10" y="25" text-anchor="start" style="fill: black;" dy="-0.25em">procedure_occurrence_date : Da-</tspan><tspan x="10" y="25" text-anchor="start" style="fill: black;" dy="1.45em">te</tspan><tspan x="10" y="25" text-anchor="start" style="fill: black;" dy="3.15em">procedure_occurrence_id : Integer</tspan></text></g></g><g id="relationshiptype_Rel22" class="relationshipType"><path class="relationshipLine arrow" d="M1403.56860676797,-271.76332822117604C1481.9322136733344,-185.00362057595146,1560.2958205786983,-98.24391293072686,1638.6594274840625,-11.484205285502284C1717.0230343894266,75.2755023597223,1795.3866412947907,162.0352100049469,1873.7502482001548,248.79491765017147" style="fill: none; stroke: black; stroke-width: 3;" marker-end="url(#modelerCanvasArrow)"/><title class="relationshipTypeTooltip">ASSOCIATED_DURING_VISIT</title><text class="displayText" x="1640" y="-10.000000000000014" text-anchor="middle" baseline-shift="30%" alignment-baseline="alphabetic" font-family="Roboto, sans-serif" font-size="14" style="fill: black;" transform="rotate(47.91083782616775 1640 -10.000000000000014)">ASSOCIATED_DURING_VISIT</text><g class="annotation" transform="translate(1411.492036437627,-4.585786437626919)"><path class="annotationBubble" stroke-width="2" d="M10,0L213.09375,0 L217.09375,0L227.09375,-4L223.09375,6L223.09375,10 L223.09375,24 C222.92708333333331,27.166666666666668,222.76041666666666,30.333333333333336,221.09375,32C219.42708333333334,33.666666666666664,216.26041666666669,33.83333333333333,213.09375,34 L10,34 C6.833333333333333,33.833333333333336,3.6666666666666665,33.66666666666667,2,32C0.3333333333333333,30.333333333333332,0.16666666666666666,27.166666666666664,0,24 L0,10 C0.16666666666666674,6.833333333333333,0.3333333333333335,3.6666666666666665,2,2C3.6666666666666665,0.3333333333333333,6.833333333333333,0.16666666666666666,10,0Z" style="fill: white; stroke: black;"/><g class="annotationColoredBackgroundRectangles"><rect x="6" y="5.399999999999999" width="193.08984375" height="21.6" rx="3" style="fill: white; stroke: white; stroke-width: 1;"/></g><text class="annotationText" x="10" y="25" pointer-events="none" font-family="Roboto, sans-serif" font-size="14" style="fill: black;"><tspan x="10" y="25" text-anchor="start" style="fill: black;" dy="-0.25em">visit_occurrence_id : Integer</tspan></text></g></g><g id="relationshiptype_Rel14" class="relationshipType"><path class="relationshipLine arrow" d="M124.99624266596986,319.3011156702584C412.66420031407245,316.2079118245799,700.3321579621752,313.1147079789013,988.0001156102779,310.02150413322283C1275.6680732583807,306.92830028754435,1563.3360309064833,303.8350964418658,1851.003988554586,300.74189259618726" style="fill: none; stroke: black; stroke-width: 3;" marker-end="url(#modelerCanvasArrow)"/><title class="relationshipTypeTooltip">HAS_VISIT_OCCURRENCE</title><text class="displayText" x="990" y="310" text-anchor="middle" baseline-shift="30%" alignment-baseline="alphabetic" font-family="Roboto, sans-serif" font-size="14" style="fill: black;" transform="rotate(-0.6160599083992303 990 310)">HAS_VISIT_OCCURRENCE</text><g class="annotation" transform="translate(878.453125,320)"><path class="annotationBubble" stroke-width="2" d="M10,0L103.546875,0L111.546875,-8L119.546875,0L213.09375,0 C216.26041666666669,0.16666666666666674,219.42708333333334,0.3333333333333335,221.09375,2C222.76041666666666,3.6666666666666665,222.92708333333331,6.833333333333333,223.09375,10 L223.09375,72 C222.92708333333331,75.16666666666666,222.76041666666666,78.33333333333333,221.09375,80C219.42708333333334,81.66666666666667,216.26041666666669,81.83333333333334,213.09375,82 L10,82 C6.833333333333333,81.83333333333334,3.6666666666666665,81.66666666666667,2,80C0.3333333333333333,78.33333333333333,0.16666666666666666,75.16666666666666,0,72 L0,10 C0.16666666666666674,6.833333333333333,0.3333333333333335,3.6666666666666665,2,2C3.6666666666666665,0.3333333333333333,6.833333333333333,0.16666666666666666,10,0Z" style="fill: white; stroke: black;"/><g class="annotationColoredBackgroundRectangles"><rect x="6" y="5.399999999999999" width="146.80078125" height="21.6" rx="3" style="fill: white; stroke: white; stroke-width: 1;"/><rect x="6" y="28.6" width="193.08984375" height="21.6" rx="3" style="fill: white; stroke: white; stroke-width: 1;"/><rect x="6" y="51.800000000000004" width="153.12890625" height="21.6" rx="3" style="fill: white; stroke: white; stroke-width: 1;"/></g><text class="annotationText" x="10" y="25" pointer-events="none" font-family="Roboto, sans-serif" font-size="14" style="fill: black;"><tspan x="10" y="25" text-anchor="start" style="fill: black;" dy="-0.25em">visit_end_date : Date</tspan><tspan x="10" y="25" text-anchor="start" style="fill: black;" dy="1.45em">visit_occurrence_id : Integer</tspan><tspan x="10" y="25" text-anchor="start" style="fill: black;" dy="3.15em">visit_start_date : Date</tspan></text></g></g><g id="relationshiptype_Rel16" class="relationshipType"><path class="relationshipLine arrow" d="M122.64772281652286,302.6719064550043C257.78927446417913,265.29232833969513,392.93082611183536,227.91275022438597,528.0723777594916,190.5331721090768C663.2139294071478,153.1535939937676,798.3554810548042,115.77401587845844,933.4970327024604,78.39443776314927" style="fill: none; stroke: black; stroke-width: 3;" marker-end="url(#modelerCanvasArrow)"/><title class="relationshipTypeTooltip">HAS_CONDITION_OCCURRENCE</title><text class="displayText" x="530" y="190" text-anchor="middle" baseline-shift="30%" alignment-baseline="alphabetic" font-family="Roboto, sans-serif" font-size="14" style="fill: black;" transform="rotate(-15.461217740441903 530 190)">HAS_CONDITION_OCCURRENCE</text><g class="annotation" transform="translate(535.4142135623731,195.4142135623731)"><path class="annotationBubble" stroke-width="2" d="M10,0L246.3359375,0 C249.50260416666666,0.16666666666666674,252.66927083333331,0.3333333333333335,254.3359375,2C256.0026041666667,3.6666666666666665,256.16927083333337,6.833333333333333,256.3359375,10 L256.3359375,48 C256.1692708333333,51.16666666666667,256.00260416666663,54.333333333333336,254.3359375,56C252.66927083333334,57.666666666666664,249.50260416666669,57.83333333333333,246.3359375,58 L10,58 C6.833333333333333,57.83333333333333,3.6666666666666665,57.666666666666664,2,56C0.3333333333333333,54.333333333333336,0.16666666666666666,51.16666666666667,0,48 L0,10 L0,6L-4,-4L6,0L10,0Z" style="fill: white; stroke: black;"/><g class="annotationColoredBackgroundRectangles"><rect x="6" y="5.399999999999999" width="226.33203125" height="21.6" rx="3" style="fill: white; stroke: white; stroke-width: 1;"/><rect x="6" y="28.6" width="186.37109375" height="21.6" rx="3" style="fill: white; stroke: white; stroke-width: 1;"/></g><text class="annotationText" x="10" y="25" pointer-events="none" font-family="Roboto, sans-serif" font-size="14" style="fill: black;"><tspan x="10" y="25" text-anchor="start" style="fill: black;" dy="-0.25em">condition_occurrence_id : Integer</tspan><tspan x="10" y="25" text-anchor="start" style="fill: black;" dy="1.45em">condition_start_date : Date</tspan></text></g></g><g id="relationshiptype_Rel24" class="relationshipType"><path class="relationshipLine arrow" d="M1063.516463654982,486.19207311848214C1195.0261915273727,457.6030018418754,1326.5359193997635,429.01393056526877,1458.0456472721544,400.4248592886621C1589.5553751445452,371.83578801205545,1721.065103016936,343.24671673544873,1852.5748308893267,314.657645458842" style="fill: none; stroke: black; stroke-width: 3;" marker-end="url(#modelerCanvasArrow)"/><title class="relationshipTypeTooltip">ASSOCIATED_DURING_VISIT</title><text class="displayText" x="1460" y="400" text-anchor="middle" baseline-shift="30%" alignment-baseline="alphabetic" font-family="Roboto, sans-serif" font-size="14" style="fill: black;" transform="rotate(-12.2647737278924 1460 400)">ASSOCIATED_DURING_VISIT</text><g class="annotation" transform="translate(1465.414213562373,405.4142135623731)"><path class="annotationBubble" stroke-width="2" d="M10,0L213.09375,0 C216.26041666666669,0.16666666666666674,219.42708333333334,0.3333333333333335,221.09375,2C222.76041666666666,3.6666666666666665,222.92708333333331,6.833333333333333,223.09375,10 L223.09375,24 C222.92708333333331,27.166666666666668,222.76041666666666,30.333333333333336,221.09375,32C219.42708333333334,33.666666666666664,216.26041666666669,33.83333333333333,213.09375,34 L10,34 C6.833333333333333,33.833333333333336,3.6666666666666665,33.66666666666667,2,32C0.3333333333333333,30.333333333333332,0.16666666666666666,27.166666666666664,0,24 L0,10 L0,6L-4,-4L6,0L10,0Z" style="fill: white; stroke: black;"/><g class="annotationColoredBackgroundRectangles"><rect x="6" y="5.399999999999999" width="193.08984375" height="21.6" rx="3" style="fill: white; stroke: white; stroke-width: 1;"/></g><text class="annotationText" x="10" y="25" pointer-events="none" font-family="Roboto, sans-serif" font-size="14" style="fill: black;"><tspan x="10" y="25" text-anchor="start" style="fill: black;" dy="-0.25em">visit_occurrence_id : Integer</tspan></text></g></g><g id="relationshiptype_Rel18" class="relationshipType"><path class="relationshipLine arrow" d="M123.84008747298951,332.2246976012108C258.5719548540649,358.02441688694853,393.3038222351403,383.8241361726864,528.0356896162157,409.62385545842426C662.7675569972911,435.4235747441621,797.4994243783665,461.2232940299,932.2312917594419,487.0230133156378" style="fill: none; stroke: black; stroke-width: 3;" marker-end="url(#modelerCanvasArrow)"/><title class="relationshipTypeTooltip">HAS_DRUG_EXPOSURE</title><text class="displayText" x="530" y="410" text-anchor="middle" baseline-shift="30%" alignment-baseline="alphabetic" font-family="Roboto, sans-serif" font-size="14" style="fill: black;" transform="rotate(10.840305454330565 530 410)">HAS_DRUG_EXPOSURE</text><g class="annotation" transform="translate(273.9529739376269,415.4142135623731)"><path class="annotationBubble" stroke-width="2" d="M10,0L240.6328125,0 L244.6328125,0L254.6328125,-4L250.6328125,6L250.6328125,10 L250.6328125,72 C250.46614583333331,75.16666666666666,250.29947916666666,78.33333333333333,248.6328125,80C246.96614583333334,81.66666666666667,243.79947916666669,81.83333333333334,240.6328125,82 L10,82 C6.833333333333333,81.83333333333334,3.6666666666666665,81.66666666666667,2,80C0.3333333333333333,78.33333333333333,0.16666666666666666,75.16666666666666,0,72 L0,10 C0.16666666666666674,6.833333333333333,0.3333333333333335,3.6666666666666665,2,2C3.6666666666666665,0.3333333333333333,6.833333333333333,0.16666666666666666,10,0Z" style="fill: white; stroke: black;"/><g class="annotationColoredBackgroundRectangles"><rect x="6" y="5.399999999999999" width="214.3203125" height="21.6" rx="3" style="fill: white; stroke: white; stroke-width: 1;"/><rect x="6" y="28.6" width="183.05078125" height="21.6" rx="3" style="fill: white; stroke: white; stroke-width: 1;"/><rect x="6" y="51.800000000000004" width="212.3671875" height="21.6" rx="3" style="fill: white; stroke: white; stroke-width: 1;"/><rect x="6" y="75" width="28.3046875" height="21.6" rx="3" style="fill: white; stroke: white; stroke-width: 1;"/></g><text class="annotationText" x="10" y="25" pointer-events="none" font-family="Roboto, sans-serif" font-size="14" style="fill: black;"><tspan x="10" y="25" text-anchor="start" style="fill: black;" dy="-0.25em">drug_exposure_end_date : Date</tspan><tspan x="10" y="25" text-anchor="start" style="fill: black;" dy="1.45em">drug_exposure_id : Integer</tspan><tspan x="10" y="25" text-anchor="start" style="fill: black;" dy="3.15em">drug_exposure_start_date : Da-</tspan><tspan x="10" y="25" text-anchor="start" style="fill: black;" dy="4.85em">te</tspan></text></g></g><g id="relationshiptype_Rel17" class="relationshipType"><path class="relationshipLine arrow" d="M103.39042602388167,368.3970136420219C175.1485873387531,448.43496280091694,246.9067486536245,528.472911959812,318.6649099684959,608.510861118707C390.42307128336734,688.548810277602,462.18123259823875,768.586759436497,533.9393939131102,848.6247085953921" style="fill: none; stroke: black; stroke-width: 3;" marker-end="url(#modelerCanvasArrow)"/><title class="relationshipTypeTooltip">HAS_OBSERVATION</title><text class="displayText" x="320" y="610" text-anchor="middle" baseline-shift="30%" alignment-baseline="alphabetic" font-family="Roboto, sans-serif" font-size="14" style="fill: black;" transform="rotate(48.12213046211571 320 610)">HAS_OBSERVATION</text><g class="annotation" transform="translate(118.8982864376269,615.4142135623731)"><path class="annotationBubble" stroke-width="2" d="M10,0L185.6875,0 L189.6875,0L199.6875,-4L195.6875,6L195.6875,10 L195.6875,48 C195.52083333333331,51.16666666666667,195.35416666666666,54.333333333333336,193.6875,56C192.02083333333334,57.666666666666664,188.85416666666669,57.83333333333333,185.6875,58 L10,58 C6.833333333333333,57.83333333333333,3.6666666666666665,57.666666666666664,2,56C0.3333333333333333,54.333333333333336,0.16666666666666666,51.16666666666667,0,48 L0,10 C0.16666666666666674,6.833333333333333,0.3333333333333335,3.6666666666666665,2,2C3.6666666666666665,0.3333333333333333,6.833333333333333,0.16666666666666666,10,0Z" style="fill: white; stroke: black;"/><g class="annotationColoredBackgroundRectangles"><rect x="6" y="5.399999999999999" width="165.6875" height="21.6" rx="3" style="fill: white; stroke: white; stroke-width: 1;"/><rect x="6" y="28.6" width="164.37890625" height="21.6" rx="3" style="fill: white; stroke: white; stroke-width: 1;"/></g><text class="annotationText" x="10" y="25" pointer-events="none" font-family="Roboto, sans-serif" font-size="14" style="fill: black;"><tspan x="10" y="25" text-anchor="start" style="fill: black;" dy="-0.25em">observation_date : Date</tspan><tspan x="10" y="25" text-anchor="start" style="fill: black;" dy="1.45em">observation_id : Integer</tspan></text></g></g><g id="relationshiptype_Rel25" class="relationshipType"><path class="relationshipLine arrow" d="M639.324497400612,873.4367922086811C842.2745418834787,782.5636379626216,1045.2245863663454,691.6904837165619,1248.174630849212,600.817329470502C1451.1246753320786,509.9441752244423,1654.0747198149452,419.07102097838265,1857.024764297812,328.19786673232306" style="fill: none; stroke: black; stroke-width: 3;" marker-end="url(#modelerCanvasArrow)"/><title class="relationshipTypeTooltip">ASSOCIATED_DURING_VISIT</title><text class="displayText" x="1250" y="600" text-anchor="middle" baseline-shift="30%" alignment-baseline="alphabetic" font-family="Roboto, sans-serif" font-size="14" style="fill: black;" transform="rotate(-24.120983119442585 1250 600)">ASSOCIATED_DURING_VISIT</text><g class="annotation" transform="translate(1255.414213562373,605.4142135623731)"><path class="annotationBubble" stroke-width="2" d="M10,0L213.09375,0 C216.26041666666669,0.16666666666666674,219.42708333333334,0.3333333333333335,221.09375,2C222.76041666666666,3.6666666666666665,222.92708333333331,6.833333333333333,223.09375,10 L223.09375,24 C222.92708333333331,27.166666666666668,222.76041666666666,30.333333333333336,221.09375,32C219.42708333333334,33.666666666666664,216.26041666666669,33.83333333333333,213.09375,34 L10,34 C6.833333333333333,33.833333333333336,3.6666666666666665,33.66666666666667,2,32C0.3333333333333333,30.333333333333332,0.16666666666666666,27.166666666666664,0,24 L0,10 L0,6L-4,-4L6,0L10,0Z" style="fill: white; stroke: black;"/><g class="annotationColoredBackgroundRectangles"><rect x="6" y="5.399999999999999" width="193.08984375" height="21.6" rx="3" style="fill: white; stroke: white; stroke-width: 1;"/></g><text class="annotationText" x="10" y="25" pointer-events="none" font-family="Roboto, sans-serif" font-size="14" style="fill: black;"><tspan x="10" y="25" text-anchor="start" style="fill: black;" dy="-0.25em">visit_occurrence_id : Integer</tspan></text></g></g><g id="relationshiptype_Rel23" class="relationshipType"><path class="relationshipLine arrow" d="M1062.8951227057948,76.40742331455517C1194.6183369555988,110.77000094493876,1326.3415512054025,145.13257857532236,1458.0647654552063,179.495156205706C1589.78797970501,213.85773383608964,1721.5111939548137,248.22031146647322,1853.2344082046177,282.58288909685683" style="fill: none; stroke: black; stroke-width: 3;" marker-end="url(#modelerCanvasArrow)"/><title class="relationshipTypeTooltip">ASSOCIATED_DURING_VISIT</title><text class="displayText" x="1460" y="180" text-anchor="middle" baseline-shift="30%" alignment-baseline="alphabetic" font-family="Roboto, sans-serif" font-size="14" style="fill: black;" transform="rotate(14.620873988631656 1460 180)">ASSOCIATED_DURING_VISIT</text><g class="annotation" transform="translate(1231.492036437627,185.4142135623731)"><path class="annotationBubble" stroke-width="2" d="M10,0L213.09375,0 L217.09375,0L227.09375,-4L223.09375,6L223.09375,10 L223.09375,24 C222.92708333333331,27.166666666666668,222.76041666666666,30.333333333333336,221.09375,32C219.42708333333334,33.666666666666664,216.26041666666669,33.83333333333333,213.09375,34 L10,34 C6.833333333333333,33.833333333333336,3.6666666666666665,33.66666666666667,2,32C0.3333333333333333,30.333333333333332,0.16666666666666666,27.166666666666664,0,24 L0,10 C0.16666666666666674,6.833333333333333,0.3333333333333335,3.6666666666666665,2,2C3.6666666666666665,0.3333333333333333,6.833333333333333,0.16666666666666666,10,0Z" style="fill: white; stroke: black;"/><g class="annotationColoredBackgroundRectangles"><rect x="6" y="5.399999999999999" width="193.08984375" height="21.6" rx="3" style="fill: white; stroke: white; stroke-width: 1;"/></g><text class="annotationText" x="10" y="25" pointer-events="none" font-family="Roboto, sans-serif" font-size="14" style="fill: black;"><tspan x="10" y="25" text-anchor="start" style="fill: black;" dy="-0.25em">visit_occurrence_id : Integer</tspan></text></g></g><g id="relationshiptype_Rel26" class="relationshipType"><path class="relationshipLine arrow" d="M1385.9619407771256,834.0380592228744C1466.8365559972926,753.1634440027073,1547.7111712174599,672.2888287825401,1628.585786437627,591.4142135623731C1709.460401657794,510.53959834220603,1790.3350168779612,429.6649831220389,1871.2096320981282,348.7903679018718" style="fill: none; stroke: black; stroke-width: 3;" marker-end="url(#modelerCanvasArrow)"/><title class="relationshipTypeTooltip">ASSOCIATED_DURING_VISIT</title><text class="displayText" x="1630" y="590" text-anchor="middle" baseline-shift="30%" alignment-baseline="alphabetic" font-family="Roboto, sans-serif" font-size="14" style="fill: black;" transform="rotate(-45 1630 590)">ASSOCIATED_DURING_VISIT</text><g class="annotation" transform="translate(1635.414213562373,595.4142135623731)"><path class="annotationBubble" stroke-width="2" d="M10,0L213.09375,0 C216.26041666666669,0.16666666666666674,219.42708333333334,0.3333333333333335,221.09375,2C222.76041666666666,3.6666666666666665,222.92708333333331,6.833333333333333,223.09375,10 L223.09375,24 C222.92708333333331,27.166666666666668,222.76041666666666,30.333333333333336,221.09375,32C219.42708333333334,33.666666666666664,216.26041666666669,33.83333333333333,213.09375,34 L10,34 C6.833333333333333,33.833333333333336,3.6666666666666665,33.66666666666667,2,32C0.3333333333333333,30.333333333333332,0.16666666666666666,27.166666666666664,0,24 L0,10 L0,6L-4,-4L6,0L10,0Z" style="fill: white; stroke: black;"/><g class="annotationColoredBackgroundRectangles"><rect x="6" y="5.399999999999999" width="193.08984375" height="21.6" rx="3" style="fill: white; stroke: white; stroke-width: 1;"/></g><text class="annotationText" x="10" y="25" pointer-events="none" font-family="Roboto, sans-serif" font-size="14" style="fill: black;"><tspan x="10" y="25" text-anchor="start" style="fill: black;" dy="-0.25em">visit_occurrence_id : Integer</tspan></text></g></g><g id="relationshiptype_Rel9" class="relationshipType"><path class="relationshipLine arrow" d="M96.42010890077367,266.1615781466824C160.573199688713,171.3265743732069,224.7262904766523,76.49157059973142,288.8793812645916,-18.343433173744074C353.03247205253086,-113.17843694721957,417.1855628404702,-208.01344072069506,481.3386536284095,-302.84844449417056" style="fill: none; stroke: black; stroke-width: 3;" marker-end="url(#modelerCanvasArrow)"/><title class="relationshipTypeTooltip">HAS_OBSERVATION_PERIOD</title><text class="displayText" x="290" y="-20" text-anchor="middle" baseline-shift="30%" alignment-baseline="alphabetic" font-family="Roboto, sans-serif" font-size="14" style="fill: black;" transform="rotate(-55.92280471986926 290 -20)">HAS_OBSERVATION_PERIOD</text><g class="annotation" transform="translate(295.4142135623731,-14.585786437626904)"><path class="annotationBubble" stroke-width="2" d="M10,0L268.6171875,0 C271.78385416666663,0.16666666666666674,274.9505208333333,0.3333333333333335,276.6171875,2C278.2838541666667,3.6666666666666665,278.45052083333337,6.833333333333333,278.6171875,10 L278.6171875,72 C278.45052083333337,75.16666666666666,278.2838541666667,78.33333333333333,276.6171875,80C274.9505208333333,81.66666666666667,271.78385416666663,81.83333333333334,268.6171875,82 L10,82 C6.833333333333333,81.83333333333334,3.6666666666666665,81.66666666666667,2,80C0.3333333333333333,78.33333333333333,0.16666666666666666,75.16666666666666,0,72 L0,10 L0,6L-4,-4L6,0L10,0Z" style="fill: white; stroke: black;"/><g class="annotationColoredBackgroundRectangles"><rect x="6" y="5.399999999999999" width="211.0390625" height="21.6" rx="3" style="fill: white; stroke: white; stroke-width: 1;"/><rect x="6" y="28.6" width="248.6171875" height="21.6" rx="3" style="fill: white; stroke: white; stroke-width: 1;"/><rect x="6" y="51.800000000000004" width="248.6171875" height="21.6" rx="3" style="fill: white; stroke: white; stroke-width: 1;"/></g><text class="annotationText" x="10" y="25" pointer-events="none" font-family="Roboto, sans-serif" font-size="14" style="fill: black;"><tspan x="10" y="25" text-anchor="start" style="fill: black;" dy="-0.25em">observation_period_id : Integer</tspan><tspan x="10" y="25" text-anchor="start" style="fill: black;" dy="1.45em">observation_period_start_date : Date</tspan><tspan x="10" y="25" text-anchor="start" style="fill: black;" dy="3.15em">observation_period_start_date : Date</tspan></text></g></g><g id="relationshiptype_Rel6" class="relationshipType"><path class="relationshipLine arrow" d="M16.816350476055227,368.5816057144379C-21.679523790076573,411.8894642638362,-60.175398056208365,455.19732281323445,-98.67127232234017,498.5051813626327C-137.16714658847198,541.813039912031,-175.66302085460376,585.1208984614292,-214.15889512073556,628.4287570108274" style="fill: none; stroke: black; stroke-width: 3;" marker-end="url(#modelerCanvasArrow)"/><title class="relationshipTypeTooltip">HAS_ETHNICITY</title><text class="displayText" x="-100" y="500" text-anchor="middle" baseline-shift="30%" alignment-baseline="alphabetic" font-family="Roboto, sans-serif" font-size="14" style="fill: black;" transform="rotate(-48.36646066342982 -100 500)">HAS_ETHNICITY</text></g><g id="relationshiptype_Rel7" class="relationshipType"><path class="relationshipLine arrow" d="M23.9444872453601,265.9167308680402C-3.6672083722764413,224.49918744158535,-31.27890398991299,183.0816440151305,-58.89059960754953,141.6641005886757C-86.50229522518607,100.24655716222087,-114.11399084282263,58.82901373576604,-141.72568646045917,17.411470309311213" style="fill: none; stroke: black; stroke-width: 3;" marker-end="url(#modelerCanvasArrow)"/><title class="relationshipTypeTooltip">HAS_RACE</title><text class="displayText" x="-59.99999999999999" y="140" text-anchor="middle" baseline-shift="30%" alignment-baseline="alphabetic" font-family="Roboto, sans-serif" font-size="14" style="fill: black;" transform="rotate(56.3099324740202 -59.99999999999999 140)">HAS_RACE</text></g><g id="relationshiptype_Rel10" class="relationshipType"><path class="relationshipLine arrow" d="M118.31609394263504,291.2905383667028C314.94594884439636,194.4881482612203,511.5758037461577,97.6857581557378,708.2056586479189,0.8833680502553136C904.8355135496801,-95.91902205522717,1101.4653684514415,-192.72141216070966,1298.0952233532028,-289.52380226619215" style="fill: none; stroke: black; stroke-width: 3;" marker-end="url(#modelerCanvasArrow)"/><title class="relationshipTypeTooltip">HAS_MEASUREMENT</title><text class="displayText" x="710" y="0" text-anchor="middle" baseline-shift="30%" alignment-baseline="alphabetic" font-family="Roboto, sans-serif" font-size="14" style="fill: black;" transform="rotate(-26.21137801783153 710 0)">HAS_MEASUREMENT</text><g class="annotation" transform="translate(715.4142135623731,5.414213562373095)"><path class="annotationBubble" stroke-width="2" d="M10,0L198.6328125,0 C201.79947916666669,0.16666666666666674,204.96614583333334,0.3333333333333335,206.6328125,2C208.29947916666666,3.6666666666666665,208.46614583333331,6.833333333333333,208.6328125,10 L208.6328125,48 C208.46614583333331,51.16666666666667,208.29947916666666,54.333333333333336,206.6328125,56C204.96614583333334,57.666666666666664,201.79947916666669,57.83333333333333,198.6328125,58 L10,58 C6.833333333333333,57.83333333333333,3.6666666666666665,57.666666666666664,2,56C0.3333333333333333,54.333333333333336,0.16666666666666666,51.16666666666667,0,48 L0,10 L0,6L-4,-4L6,0L10,0Z" style="fill: white; stroke: black;"/><g class="annotationColoredBackgroundRectangles"><rect x="6" y="5.399999999999999" width="170.35546875" height="21.6" rx="3" style="fill: white; stroke: white; stroke-width: 1;"/><rect x="6" y="28.6" width="28.3046875" height="21.6" rx="3" style="fill: white; stroke: white; stroke-width: 1;"/><rect x="6" y="51.800000000000004" width="177.328125" height="21.6" rx="3" style="fill: white; stroke: white; stroke-width: 1;"/></g><text class="annotationText" x="10" y="25" pointer-events="none" font-family="Roboto, sans-serif" font-size="14" style="fill: black;"><tspan x="10" y="25" text-anchor="start" style="fill: black;" dy="-0.25em">measurement_date : Da-</tspan><tspan x="10" y="25" text-anchor="start" style="fill: black;" dy="1.45em">te</tspan><tspan x="10" y="25" text-anchor="start" style="fill: black;" dy="3.15em">measurement_id : Integer</tspan></text></g></g><g id="relationshiptype_Rel8" class="relationshipType"><path class="relationshipLine arrow" d="M-4.926428952088443,316.9082652879958C-52.61837387624267,314.6372202916075,-100.31031880039691,312.3661752952192,-148.0022637245511,310.0951302988309C-195.6942086487053,307.8240853024426,-243.38615357285954,305.5530403060543,-291.0780984970138,303.281995309666" style="fill: none; stroke: black; stroke-width: 3;" marker-end="url(#modelerCanvasArrow)"/><title class="relationshipTypeTooltip">HAS_RACE</title><text class="displayText" x="-150" y="310" text-anchor="middle" baseline-shift="30%" alignment-baseline="alphabetic" font-family="Roboto, sans-serif" font-size="14" style="fill: black;" transform="rotate(2.726310993906253 -150 310)">HAS_RACE</text></g><g id="nodelabel_Node13" class="nodeLabel"><circle class="hoverCircle" cy="300" cx="1920" r="80" style="opacity: 0; fill: lightgray;"/><circle class="displayCircle" cy="300" cx="1920" r="60" style="fill: rgb(255, 235, 59); stroke: rgb(168, 156, 0); stroke-width: 4;"/><text class="displayText" x="1920" y="300" pointer-events="none" text-anchor="middle" alignment-baseline="central" font-family="Roboto, sans-serif" font-size="14" style="fill: black;"><tspan x="1920" y="300" dy="0.34em">VisitOccurrence</tspan></text><g class="annotation" transform="translate(1993,271)"><path class="annotationBubble" stroke-width="2" d="M10,0L230.0390625,0 C233.20572916666669,0.16666666666666674,236.37239583333334,0.3333333333333335,238.0390625,2C239.70572916666666,3.6666666666666665,239.87239583333331,6.833333333333333,240.0390625,10 L240.0390625,48 C239.87239583333331,51.16666666666667,239.70572916666666,54.333333333333336,238.0390625,56C236.37239583333334,57.666666666666664,233.20572916666669,57.83333333333333,230.0390625,58 L10,58 C6.833333333333333,57.83333333333333,3.6666666666666665,57.666666666666664,2,56C0.3333333333333333,54.333333333333336,0.16666666666666666,51.16666666666667,0,48 L0,37L-8,29L0,21L0,10 C0.16666666666666674,6.833333333333333,0.3333333333333335,3.6666666666666665,2,2C3.6666666666666665,0.3333333333333333,6.833333333333333,0.16666666666666666,10,0Z" style="fill: white; stroke: black;"/><g class="annotationColoredBackgroundRectangles"><rect x="6" y="5.399999999999999" width="173.265625" height="21.6" rx="3" style="fill: white; stroke: white; stroke-width: 1;"/><rect x="6" y="28.6" width="168.9296875" height="21.6" rx="3" style="fill: white; stroke: white; stroke-width: 1;"/><rect x="6" y="51.800000000000004" width="53.5" height="21.6" rx="3" style="fill: white; stroke: white; stroke-width: 1;"/></g><text class="annotationText" x="10" y="25" pointer-events="none" font-family="Roboto, sans-serif" font-size="14" style="fill: black;"><tspan x="10" y="25" text-anchor="start" style="fill: black;" dy="-0.25em">visit_concept_id : Integer</tspan><tspan x="10" y="25" text-anchor="start" style="fill: black;" dy="1.45em">visit_occurrence_name :</tspan><tspan x="10" y="25" text-anchor="start" style="fill: black;" dy="3.15em">String</tspan></text></g></g><g id="nodelabel_Node15" class="nodeLabel"><circle class="hoverCircle" cy="60" cx="1000" r="80" style="opacity: 0; fill: lightgray;"/><circle class="displayCircle" cy="60" cx="1000" r="60" style="fill: rgb(0, 188, 212); stroke: rgb(0, 112, 134); stroke-width: 4;"/><text class="displayText" x="1000" y="60" pointer-events="none" text-anchor="middle" alignment-baseline="central" font-family="Roboto, sans-serif" font-size="14" style="fill: white;"><tspan x="1000" y="60" dy="0.00em">Condition</tspan><tspan x="1000" y="60" dy="1.10em">Occurrence</tspan></text><g class="annotation" transform="translate(856.5078125,133)"><path class="annotationBubble" stroke-width="2" d="M10,0L135.4921875,0L143.4921875,-8L151.4921875,0L276.984375,0 C280.15104166666663,0.16666666666666674,283.3177083333333,0.3333333333333335,284.984375,2C286.6510416666667,3.6666666666666665,286.81770833333337,6.833333333333333,286.984375,10 L286.984375,96 C286.81770833333337,99.16666666666666,286.6510416666667,102.33333333333333,284.984375,104C283.3177083333333,105.66666666666667,280.15104166666663,105.83333333333334,276.984375,106 L10,106 C6.833333333333333,105.83333333333334,3.6666666666666665,105.66666666666667,2,104C0.3333333333333333,102.33333333333333,0.16666666666666666,99.16666666666666,0,96 L0,10 C0.16666666666666674,6.833333333333333,0.3333333333333335,3.6666666666666665,2,2C3.6666666666666665,0.3333333333333333,6.833333333333333,0.16666666666666666,10,0Z" style="fill: white; stroke: black;"/><g class="annotationColoredBackgroundRectangles"><rect x="6" y="5.399999999999999" width="206.5078125" height="21.6" rx="3" style="fill: white; stroke: white; stroke-width: 1;"/><rect x="6" y="28.6" width="223.4609375" height="21.6" rx="3" style="fill: white; stroke: white; stroke-width: 1;"/><rect x="6" y="51.800000000000004" width="240.04296875" height="21.6" rx="3" style="fill: white; stroke: white; stroke-width: 1;"/><rect x="6" y="75" width="215.8828125" height="21.6" rx="3" style="fill: white; stroke: white; stroke-width: 1;"/><rect x="6" y="98.19999999999999" width="53.5" height="21.6" rx="3" style="fill: white; stroke: white; stroke-width: 1;"/></g><text class="annotationText" x="10" y="25" pointer-events="none" font-family="Roboto, sans-serif" font-size="14" style="fill: black;"><tspan x="10" y="25" text-anchor="start" style="fill: black;" dy="-0.25em">condition_concept_id : Integer</tspan><tspan x="10" y="25" text-anchor="start" style="fill: black;" dy="1.45em">condition_concept_name : String</tspan><tspan x="10" y="25" text-anchor="start" style="fill: black;" dy="3.15em">condition_type_concept_id : Integer</tspan><tspan x="10" y="25" text-anchor="start" style="fill: black;" dy="4.85em">condition_type_concept_name :</tspan><tspan x="10" y="25" text-anchor="start" style="fill: black;" dy="6.55em">String</tspan></text></g></g><g id="nodelabel_Node16" class="nodeLabel"><circle class="hoverCircle" cy="900" cx="580" r="80" style="opacity: 0; fill: lightgray;"/><circle class="displayCircle" cy="900" cx="580" r="60" style="fill: rgb(0, 188, 212); stroke: rgb(0, 112, 134); stroke-width: 4;"/><text class="displayText" x="580" y="900" pointer-events="none" text-anchor="middle" alignment-baseline="central" font-family="Roboto, sans-serif" font-size="14" style="fill: white;"><tspan x="580" y="900" dy="0.34em">Observation</tspan></text><g class="annotation" transform="translate(445.4765625,973)"><path class="annotationBubble" stroke-width="2" d="M10,0L126.5234375,0L134.5234375,-8L142.5234375,0L259.046875,0 C262.21354166666663,0.16666666666666674,265.3802083333333,0.3333333333333335,267.046875,2C268.7135416666667,3.6666666666666665,268.88020833333337,6.833333333333333,269.046875,10 L269.046875,48 C268.88020833333337,51.16666666666667,268.7135416666667,54.333333333333336,267.046875,56C265.3802083333333,57.666666666666664,262.21354166666663,57.83333333333333,259.046875,58 L10,58 C6.833333333333333,57.83333333333333,3.6666666666666665,57.666666666666664,2,56C0.3333333333333333,54.333333333333336,0.16666666666666666,51.16666666666667,0,48 L0,10 C0.16666666666666674,6.833333333333333,0.3333333333333335,3.6666666666666665,2,2C3.6666666666666665,0.3333333333333333,6.833333333333333,0.16666666666666666,10,0Z" style="fill: white; stroke: black;"/><g class="annotationColoredBackgroundRectangles"><rect x="6" y="5.399999999999999" width="222.11328125" height="21.6" rx="3" style="fill: white; stroke: white; stroke-width: 1;"/><rect x="6" y="28.6" width="239.046875" height="21.6" rx="3" style="fill: white; stroke: white; stroke-width: 1;"/></g><text class="annotationText" x="10" y="25" pointer-events="none" font-family="Roboto, sans-serif" font-size="14" style="fill: black;"><tspan x="10" y="25" text-anchor="start" style="fill: black;" dy="-0.25em">observation_concept_id : Integer</tspan><tspan x="10" y="25" text-anchor="start" style="fill: black;" dy="1.45em">observation_concept_name : String</tspan></text></g></g><g id="nodelabel_Node14" class="nodeLabel"><circle class="hoverCircle" cy="880" cx="1340" r="80" style="opacity: 0; fill: lightgray;"/><circle class="displayCircle" cy="880" cx="1340" r="60" style="fill: rgb(0, 188, 212); stroke: rgb(0, 112, 134); stroke-width: 4;"/><text class="displayText" x="1340" y="880" pointer-events="none" text-anchor="middle" alignment-baseline="central" font-family="Roboto, sans-serif" font-size="14" style="fill: white;"><tspan x="1340" y="880" dy="0.00em">Procedure</tspan><tspan x="1340" y="880" dy="1.10em">Occurrence</tspan></text><g class="annotation" transform="translate(1210.8671875,953)"><path class="annotationBubble" stroke-width="2" d="M10,0L121.1328125,0L129.1328125,-8L137.1328125,0L248.265625,0 C251.43229166666666,0.16666666666666674,254.59895833333331,0.3333333333333335,256.265625,2C257.9322916666667,3.6666666666666665,258.09895833333337,6.833333333333333,258.265625,10 L258.265625,48 C258.0989583333333,51.16666666666667,257.93229166666663,54.333333333333336,256.265625,56C254.59895833333334,57.666666666666664,251.43229166666669,57.83333333333333,248.265625,58 L10,58 C6.833333333333333,57.83333333333333,3.6666666666666665,57.666666666666664,2,56C0.3333333333333333,54.333333333333336,0.16666666666666666,51.16666666666667,0,48 L0,10 C0.16666666666666674,6.833333333333333,0.3333333333333335,3.6666666666666665,2,2C3.6666666666666665,0.3333333333333333,6.833333333333333,0.16666666666666666,10,0Z" style="fill: white; stroke: black;"/><g class="annotationColoredBackgroundRectangles"><rect x="6" y="5.399999999999999" width="211.33203125" height="21.6" rx="3" style="fill: white; stroke: white; stroke-width: 1;"/><rect x="6" y="28.6" width="228.265625" height="21.6" rx="3" style="fill: white; stroke: white; stroke-width: 1;"/></g><text class="annotationText" x="10" y="25" pointer-events="none" font-family="Roboto, sans-serif" font-size="14" style="fill: black;"><tspan x="10" y="25" text-anchor="start" style="fill: black;" dy="-0.25em">procedure_concept_id : Integer</tspan><tspan x="10" y="25" text-anchor="start" style="fill: black;" dy="1.45em">procedure_concept_name : String</tspan></text></g></g><g id="nodelabel_Node17" class="nodeLabel"><circle class="hoverCircle" cy="500" cx="1000" r="80" style="opacity: 0; fill: lightgray;"/><circle class="displayCircle" cy="500" cx="1000" r="60" style="fill: rgb(0, 188, 212); stroke: rgb(0, 112, 134); stroke-width: 4;"/><text class="displayText" x="1000" y="500" pointer-events="none" text-anchor="middle" alignment-baseline="central" font-family="Roboto, sans-serif" font-size="14" style="fill: white;"><tspan x="1000" y="500" dy="0.34em">DrugExposure</tspan></text><g class="annotation" transform="translate(871.78515625,573)"><path class="annotationBubble" stroke-width="2" d="M10,0L120.21484375,0L128.21484375,-8L136.21484375,0L246.4296875,0 C249.59635416666666,0.16666666666666674,252.76302083333331,0.3333333333333335,254.4296875,2C256.0963541666667,3.6666666666666665,256.26302083333337,6.833333333333333,256.4296875,10 L256.4296875,144 C256.2630208333333,147.16666666666669,256.09635416666663,150.33333333333334,254.4296875,152C252.76302083333334,153.66666666666666,249.59635416666669,153.83333333333331,246.4296875,154 L10,154 C6.833333333333333,153.83333333333331,3.6666666666666665,153.66666666666666,2,152C0.3333333333333333,150.33333333333334,0.16666666666666666,147.16666666666669,0,144 L0,10 C0.16666666666666674,6.833333333333333,0.3333333333333335,3.6666666666666665,2,2C3.6666666666666665,0.3333333333333333,6.833333333333333,0.16666666666666666,10,0Z" style="fill: white; stroke: black;"/><g class="annotationColoredBackgroundRectangles"><rect x="6" y="5.399999999999999" width="175.9609375" height="21.6" rx="3" style="fill: white; stroke: white; stroke-width: 1;"/><rect x="6" y="28.6" width="192.89453125" height="21.6" rx="3" style="fill: white; stroke: white; stroke-width: 1;"/><rect x="6" y="51.800000000000004" width="209.49609375" height="21.6" rx="3" style="fill: white; stroke: white; stroke-width: 1;"/><rect x="6" y="75" width="226.4296875" height="21.6" rx="3" style="fill: white; stroke: white; stroke-width: 1;"/><rect x="6" y="98.19999999999999" width="180.19921875" height="21.6" rx="3" style="fill: white; stroke: white; stroke-width: 1;"/><rect x="6" y="121.4" width="197.1328125" height="21.6" rx="3" style="fill: white; stroke: white; stroke-width: 1;"/></g><text class="annotationText" x="10" y="25" pointer-events="none" font-family="Roboto, sans-serif" font-size="14" style="fill: black;"><tspan x="10" y="25" text-anchor="start" style="fill: black;" dy="-0.25em">drug_concept_id : Integer</tspan><tspan x="10" y="25" text-anchor="start" style="fill: black;" dy="1.45em">drug_concept_name : String</tspan><tspan x="10" y="25" text-anchor="start" style="fill: black;" dy="3.15em">drug_type_concept_id : Integer</tspan><tspan x="10" y="25" text-anchor="start" style="fill: black;" dy="4.85em">drug_type_concept_name : String</tspan><tspan x="10" y="25" text-anchor="start" style="fill: black;" dy="6.55em">route_concept_id : Integer</tspan><tspan x="10" y="25" text-anchor="start" style="fill: black;" dy="8.25em">route_concept_name : String</tspan></text></g></g><g id="nodelabel_Node4" class="nodeLabel"><circle class="hoverCircle" cy="-360" cx="520" r="80" style="opacity: 0; fill: lightgray;"/><circle class="displayCircle" cy="-360" cx="520" r="60" style="fill: rgb(0, 188, 212); stroke: rgb(0, 112, 134); stroke-width: 4;"/><text class="displayText" x="520" y="-360" pointer-events="none" text-anchor="middle" alignment-baseline="central" font-family="Roboto, sans-serif" font-size="14" style="fill: white;"><tspan x="520" y="-360" dy="0.00em">Observation</tspan><tspan x="520" y="-360" dy="1.10em">Period</tspan></text><g class="annotation" transform="translate(569.9619407771256,-467.9619407771256)"><path class="annotationBubble" stroke-width="2" d="M10,0L259.046875,0 C262.21354166666663,0.16666666666666674,265.3802083333333,0.3333333333333335,267.046875,2C268.7135416666667,3.6666666666666665,268.88020833333337,6.833333333333333,269.046875,10 L269.046875,48 C268.88020833333337,51.16666666666667,268.7135416666667,54.333333333333336,267.046875,56C265.3802083333333,57.666666666666664,262.21354166666663,57.83333333333333,259.046875,58 L10,58 L6,58L-4,62L0,52L0,48 L0,10 C0.16666666666666674,6.833333333333333,0.3333333333333335,3.6666666666666665,2,2C3.6666666666666665,0.3333333333333333,6.833333333333333,0.16666666666666666,10,0Z" style="fill: white; stroke: black;"/><g class="annotationColoredBackgroundRectangles"><rect x="6" y="5.399999999999999" width="222.11328125" height="21.6" rx="3" style="fill: white; stroke: white; stroke-width: 1;"/><rect x="6" y="28.6" width="239.046875" height="21.6" rx="3" style="fill: white; stroke: white; stroke-width: 1;"/></g><text class="annotationText" x="10" y="25" pointer-events="none" font-family="Roboto, sans-serif" font-size="14" style="fill: black;"><tspan x="10" y="25" text-anchor="start" style="fill: black;" dy="-0.25em">observation_concept_id : Integer</tspan><tspan x="10" y="25" text-anchor="start" style="fill: black;" dy="1.45em">observation_concept_name : String</tspan></text></g></g><g id="nodelabel_Node2" class="nodeLabel"><circle class="hoverCircle" cy="-40" cx="-180" r="80" style="opacity: 0; fill: lightgray;"/><circle class="displayCircle" cy="-40" cx="-180" r="60" style="fill: rgb(139, 195, 74); stroke: rgb(60, 118, 0); stroke-width: 4;"/><text class="displayText" x="-180" y="-40" pointer-events="none" text-anchor="middle" alignment-baseline="central" font-family="Roboto, sans-serif" font-size="14" style="fill: black;"><tspan x="-180" y="-40" dy="0.34em">Gender</tspan></text><g class="annotation" transform="translate(-468.0010032771256,-147.9619407771256)"><path class="annotationBubble" stroke-width="2" d="M10,0L228.0390625,0 C231.20572916666669,0.16666666666666674,234.37239583333334,0.3333333333333335,236.0390625,2C237.70572916666666,3.6666666666666665,237.87239583333331,6.833333333333333,238.0390625,10 L238.0390625,48 L238.0390625,52L242.0390625,62L232.0390625,58L228.0390625,58 L10,58 C6.833333333333333,57.83333333333333,3.6666666666666665,57.666666666666664,2,56C0.3333333333333333,54.333333333333336,0.16666666666666666,51.16666666666667,0,48 L0,10 C0.16666666666666674,6.833333333333333,0.3333333333333335,3.6666666666666665,2,2C3.6666666666666665,0.3333333333333333,6.833333333333333,0.16666666666666666,10,0Z" style="fill: white; stroke: black;"/><g class="annotationColoredBackgroundRectangles"><rect x="6" y="5.399999999999999" width="191.09765625" height="21.6" rx="3" style="fill: white; stroke: white; stroke-width: 1;"/><rect x="6" y="28.6" width="166.9375" height="21.6" rx="3" style="fill: white; stroke: white; stroke-width: 1;"/><rect x="6" y="51.800000000000004" width="53.5" height="21.6" rx="3" style="fill: white; stroke: white; stroke-width: 1;"/></g><text class="annotationText" x="10" y="25" pointer-events="none" font-family="Roboto, sans-serif" font-size="14" style="fill: black;"><tspan x="10" y="25" text-anchor="start" style="fill: black;" dy="-0.25em">gender_concept_id : Integer</tspan><tspan x="10" y="25" text-anchor="start" style="fill: black;" dy="1.45em">gender_concept_name :</tspan><tspan x="10" y="25" text-anchor="start" style="fill: black;" dy="3.15em">String</tspan></text></g></g><g id="nodelabel_Node5" class="nodeLabel"><circle class="hoverCircle" cy="-320" cx="1360" r="80" style="opacity: 0; fill: lightgray;"/><circle class="displayCircle" cy="-320" cx="1360" r="60" style="fill: rgb(0, 188, 212); stroke: rgb(0, 112, 134); stroke-width: 4;"/><text class="displayText" x="1360" y="-320" pointer-events="none" text-anchor="middle" alignment-baseline="central" font-family="Roboto, sans-serif" font-size="14" style="fill: white;"><tspan x="1360" y="-320" dy="0.34em">Measurement</tspan></text><g class="annotation" transform="translate(1219.00390625,-451)"><path class="annotationBubble" stroke-width="2" d="M10,0L271.9921875,0 C275.15885416666663,0.16666666666666674,278.3255208333333,0.3333333333333335,279.9921875,2C281.6588541666667,3.6666666666666665,281.82552083333337,6.833333333333333,281.9921875,10 L281.9921875,48 C281.82552083333337,51.16666666666667,281.6588541666667,54.333333333333336,279.9921875,56C278.3255208333333,57.666666666666664,275.15885416666663,57.83333333333333,271.9921875,58 L148.99609375,58L140.99609375,66L132.99609375,58L10,58 C6.833333333333333,57.83333333333333,3.6666666666666665,57.666666666666664,2,56C0.3333333333333333,54.333333333333336,0.16666666666666666,51.16666666666667,0,48 L0,10 C0.16666666666666674,6.833333333333333,0.3333333333333335,3.6666666666666665,2,2C3.6666666666666665,0.3333333333333333,6.833333333333333,0.16666666666666666,10,0Z" style="fill: white; stroke: black;"/><g class="annotationColoredBackgroundRectangles"><rect x="6" y="5.399999999999999" width="235.04296875" height="21.6" rx="3" style="fill: white; stroke: white; stroke-width: 1;"/><rect x="6" y="28.6" width="210.8828125" height="21.6" rx="3" style="fill: white; stroke: white; stroke-width: 1;"/><rect x="6" y="51.800000000000004" width="53.5" height="21.6" rx="3" style="fill: white; stroke: white; stroke-width: 1;"/></g><text class="annotationText" x="10" y="25" pointer-events="none" font-family="Roboto, sans-serif" font-size="14" style="fill: black;"><tspan x="10" y="25" text-anchor="start" style="fill: black;" dy="-0.25em">measurement_concept_id : Integer</tspan><tspan x="10" y="25" text-anchor="start" style="fill: black;" dy="1.45em">measurement_concept_name :</tspan><tspan x="10" y="25" text-anchor="start" style="fill: black;" dy="3.15em">String</tspan></text></g></g><g id="nodelabel_Node3" class="nodeLabel"><circle class="hoverCircle" cy="300" cx="-360" r="80" style="opacity: 0; fill: lightgray;"/><circle class="displayCircle" cy="300" cx="-360" r="60" style="fill: rgb(139, 195, 74); stroke: rgb(60, 118, 0); stroke-width: 4;"/><text class="displayText" x="-360" y="300" pointer-events="none" text-anchor="middle" alignment-baseline="central" font-family="Roboto, sans-serif" font-size="14" style="fill: black;"><tspan x="-360" y="300" dy="0.34em">Race</tspan></text><g class="annotation" transform="translate(-654.515625,271)"><path class="annotationBubble" stroke-width="2" d="M10,0L211.515625,0 C214.68229166666669,0.16666666666666674,217.84895833333334,0.3333333333333335,219.515625,2C221.18229166666666,3.6666666666666665,221.34895833333331,6.833333333333333,221.515625,10 L221.515625,21L229.515625,29L221.515625,37L221.515625,48 C221.34895833333331,51.16666666666667,221.18229166666666,54.333333333333336,219.515625,56C217.84895833333334,57.666666666666664,214.68229166666669,57.83333333333333,211.515625,58 L10,58 C6.833333333333333,57.83333333333333,3.6666666666666665,57.666666666666664,2,56C0.3333333333333333,54.333333333333336,0.16666666666666666,51.16666666666667,0,48 L0,10 C0.16666666666666674,6.833333333333333,0.3333333333333335,3.6666666666666665,2,2C3.6666666666666665,0.3333333333333333,6.833333333333333,0.16666666666666666,10,0Z" style="fill: white; stroke: black;"/><g class="annotationColoredBackgroundRectangles"><rect x="6" y="5.399999999999999" width="174.57421875" height="21.6" rx="3" style="fill: white; stroke: white; stroke-width: 1;"/><rect x="6" y="28.6" width="150.4140625" height="21.6" rx="3" style="fill: white; stroke: white; stroke-width: 1;"/><rect x="6" y="51.800000000000004" width="53.5" height="21.6" rx="3" style="fill: white; stroke: white; stroke-width: 1;"/></g><text class="annotationText" x="10" y="25" pointer-events="none" font-family="Roboto, sans-serif" font-size="14" style="fill: black;"><tspan x="10" y="25" text-anchor="start" style="fill: black;" dy="-0.25em">race_concept_id : Integer</tspan><tspan x="10" y="25" text-anchor="start" style="fill: black;" dy="1.45em">race_concept_name :</tspan><tspan x="10" y="25" text-anchor="start" style="fill: black;" dy="3.15em">String</tspan></text></g></g><g id="nodelabel_Node0" class="nodeLabel"><circle class="hoverCircle" cy="320" cx="60" r="80" style="opacity: 0; fill: lightgray;"/><circle class="displayCircle" cy="320" cx="60" r="60" style="fill: rgb(33, 150, 243); stroke: rgb(0, 79, 162); stroke-width: 4;"/><text class="displayText" x="60" y="320" pointer-events="none" text-anchor="middle" alignment-baseline="central" font-family="Roboto, sans-serif" font-size="14" style="fill: white;"><tspan x="60" y="320" dy="0.34em">Person</tspan></text><g class="annotation" transform="translate(-60.51171875,393)"><path class="annotationBubble" stroke-width="2" d="M10,0L112.51171875,0L120.51171875,-8L128.51171875,0L231.0234375,0 C234.19010416666669,0.16666666666666674,237.35677083333334,0.3333333333333335,239.0234375,2C240.69010416666666,3.6666666666666665,240.85677083333331,6.833333333333333,241.0234375,10 L241.0234375,72 C240.85677083333331,75.16666666666666,240.69010416666666,78.33333333333333,239.0234375,80C237.35677083333334,81.66666666666667,234.19010416666669,81.83333333333334,231.0234375,82 L10,82 C6.833333333333333,81.83333333333334,3.6666666666666665,81.66666666666667,2,80C0.3333333333333333,78.33333333333333,0.16666666666666666,75.16666666666666,0,72 L0,10 C0.16666666666666674,6.833333333333333,0.3333333333333335,3.6666666666666665,2,2C3.6666666666666665,0.3333333333333333,6.833333333333333,0.16666666666666666,10,0Z" style="fill: white; stroke: black;"/><g class="annotationColoredBackgroundRectangles"><rect x="6" y="5.399999999999999" width="194.57421875" height="21.6" rx="3" style="fill: white; stroke: white; stroke-width: 1;"/><rect x="6" y="28.6" width="36.46875" height="21.6" rx="3" style="fill: white; stroke: white; stroke-width: 1;"/><rect x="6" y="51.800000000000004" width="133.265625" height="21.6" rx="3" style="fill: white; stroke: white; stroke-width: 1;"/><rect x="6" y="75" width="153.71484375" height="21.6" rx="3" style="fill: white; stroke: white; stroke-width: 1;"/></g><text class="annotationText" x="10" y="25" pointer-events="none" font-family="Roboto, sans-serif" font-size="14" style="fill: black;"><tspan x="10" y="25" text-anchor="start" style="fill: black;" dy="-0.25em">SCRIPT_case_number : Inte-</tspan><tspan x="10" y="25" text-anchor="start" style="fill: black;" dy="1.45em">ger</tspan><tspan x="10" y="25" text-anchor="start" style="fill: black;" dy="3.15em">person_id : Integer</tspan><tspan x="10" y="25" text-anchor="start" style="fill: black;" dy="4.85em">year_of_birth : Integer</tspan></text></g></g><g id="nodelabel_Node1" class="nodeLabel"><circle class="hoverCircle" cy="680" cx="-260" r="80" style="opacity: 0; fill: lightgray;"/><circle class="displayCircle" cy="680" cx="-260" r="60" style="fill: rgb(139, 195, 74); stroke: rgb(60, 118, 0); stroke-width: 4;"/><text class="displayText" x="-260" y="680" pointer-events="none" text-anchor="middle" alignment-baseline="central" font-family="Roboto, sans-serif" font-size="14" style="fill: black;"><tspan x="-260" y="680" dy="0.34em">Ethnicity</tspan></text><g class="annotation" transform="translate(-558.1494407771256,729.9619407771256)"><path class="annotationBubble" stroke-width="2" d="M10,0L238.1875,0 L242.1875,0L252.1875,-4L248.1875,6L248.1875,10 L248.1875,48 C248.02083333333331,51.16666666666667,247.85416666666666,54.333333333333336,246.1875,56C244.52083333333334,57.666666666666664,241.35416666666669,57.83333333333333,238.1875,58 L10,58 C6.833333333333333,57.83333333333333,3.6666666666666665,57.666666666666664,2,56C0.3333333333333333,54.333333333333336,0.16666666666666666,51.16666666666667,0,48 L0,10 C0.16666666666666674,6.833333333333333,0.3333333333333335,3.6666666666666665,2,2C3.6666666666666665,0.3333333333333333,6.833333333333333,0.16666666666666666,10,0Z" style="fill: white; stroke: black;"/><g class="annotationColoredBackgroundRectangles"><rect x="6" y="5.399999999999999" width="201.25390625" height="21.6" rx="3" style="fill: white; stroke: white; stroke-width: 1;"/><rect x="6" y="28.6" width="218.1875" height="21.6" rx="3" style="fill: white; stroke: white; stroke-width: 1;"/></g><text class="annotationText" x="10" y="25" pointer-events="none" font-family="Roboto, sans-serif" font-size="14" style="fill: black;"><tspan x="10" y="25" text-anchor="start" style="fill: black;" dy="-0.25em">ethnicity_concept_id : Integer</tspan><tspan x="10" y="25" text-anchor="start" style="fill: black;" dy="1.45em">ethnicity_concept_name : String</tspan></text></g></g></g><text pointer-events="none" font-family="Roboto, sans-serif" font-size="14"><tspan id="modelerCanvas_textDimensionHelper"/></text></svg>