<?xml version="1.0" standalone="no"?>
<svg xmlns:xlink="http://www.w3.org/1999/xlink" xmlns="http://www.w3.org/2000/svg" width="1771" height="818"><defs><marker id="canvasArrow" viewBox="0 -5 10 10" refX="5" refY="0" markerWidth="4" markerHeight="4" orient="auto"><path d="M0,-5L10,0L0,5" class="arrowHead"/></marker></defs><g transform="translate(368.65000000000003,208.89999999999995) scale(0.5)"><g class="grid"/><g id="relationshiptype_Rel60" class="relationshipType"><path class="relationshipLine arrow" d="M83.34953468901163,1017.5065758073519C126.52522413287015,985.6412991359034,169.70091357672865,953.776022464455,203.31521375211847,913.8590481299784C236.92951392750828,873.9420737955019,260.9824248344294,825.9734017979972,285.03533574135054,778.0047298004924" marker-end="url(#canvasArrow)" style="fill: none; stroke: black; stroke-width: 3;"/><title class="relationshipTypeTooltip">HAS_CONCEPT</title><text class="displayText" x="204.60348537820295" y="912.3292258470234" text-anchor="middle" baseline-shift="30%" alignment-baseline="alphabetic" font-family="Roboto, sans-serif" font-size="14" style="fill: black;" transform="rotate(-49.899087415707854 204.60348537820295 912.3292258470234)">HAS_CONCEPT</text></g><g id="relationshiptype_Rel79" class="relationshipType"><path class="relationshipLine arrow" d="M1538.8740455417278,-199.57318455009354C1647.2942371406516,-2.84934007712269,1755.7144287395756,193.87450439584813,1864.1346203384996,390.598348868819C1972.5548119374237,587.3221933417899,2080.9750035363477,784.0460378147607,2189.3951951352715,980.7698822877315" marker-end="url(#canvasArrow)" style="fill: none; stroke: black; stroke-width: 3;"/><title class="relationshipTypeTooltip">ASSOCIATED_WITH</title><text class="displayText" x="1865.0999755859375" y="392.3499450683594" text-anchor="middle" baseline-shift="30%" alignment-baseline="alphabetic" font-family="Roboto, sans-serif" font-size="14" style="fill: black;" transform="rotate(61.13957164063515 1865.0999755859375 392.3499450683594)">ASSOCIATED_WITH</text></g><g id="relationshiptype_Rel70" class="relationshipType"><path class="relationshipLine arrow" d="M804.9547472351289,-197.51014232445044C740.5959386811539,-120.06948680263605,676.2371301271791,-42.62883128082167,611.878321573204,34.811824240992706C547.5195130192288,112.25247976280708,483.1607044652539,189.69313528462146,418.80189591127896,267.13379080643585" marker-end="url(#canvasArrow)" style="fill: none; stroke: black; stroke-width: 3;"/><title class="relationshipTypeTooltip">HAS_CONDITION_OCCURRENCE</title><text class="displayText" x="610.6000061035156" y="36.3499755859375" text-anchor="middle" baseline-shift="30%" alignment-baseline="alphabetic" font-family="Roboto, sans-serif" font-size="14" style="fill: black;" transform="rotate(-50.27095745656703 610.6000061035156 36.3499755859375)">HAS_CONDITION_OCCURRENCE</text></g><g id="relationshiptype_Rel76" class="relationshipType"><path class="relationshipLine arrow" d="M955.0932662941053,359.6939151335453C1156.2321245540415,467.8326206336841,1357.3709828139774,575.9713261338229,1558.5098410739133,684.1100316339619C1759.6486993338492,792.2487371341008,1960.787557593785,900.3874426342395,2161.926415853721,1008.5261481343783" marker-end="url(#canvasArrow)" style="fill: none; stroke: black; stroke-width: 3;"/><title class="relationshipTypeTooltip">ASSOCIATED_DURING_VISIT</title><text class="displayText" x="1560.2713928222656" y="685.0570983886719" text-anchor="middle" baseline-shift="30%" alignment-baseline="alphabetic" font-family="Roboto, sans-serif" font-size="14" style="fill: black;" transform="rotate(28.263901257643482 1560.2713928222656 685.0570983886719)">ASSOCIATED_DURING_VISIT</text></g><g id="relationshiptype_Rel68" class="relationshipType"><path class="relationshipLine arrow" d="M1460.615334927348,-211.47975249528469C1375.1148973900608,-129.37921765605947,1289.6144598527737,-47.27868281683425,1204.1140223154866,34.82185202239097C1118.6135847781995,116.92238686161619,1033.1131472409124,199.0229217008414,947.6127097036255,281.1234565400666" marker-end="url(#canvasArrow)" style="fill: none; stroke: black; stroke-width: 3;"/><title class="relationshipTypeTooltip">RESPONSIBLE_FOR</title><text class="displayText" x="1202.6714172363281" y="36.20709228515625" text-anchor="middle" baseline-shift="30%" alignment-baseline="alphabetic" font-family="Roboto, sans-serif" font-size="14" style="fill: black;" transform="rotate(-43.83787451533638 1202.6714172363281 36.20709228515625)">RESPONSIBLE_FOR</text></g><g id="relationshiptype_Rel91" class="relationshipType"><path class="relationshipLine arrow" d="M-60.048319413769676,575.4261931270083C-2.133312833570045,583.0765248578816,55.78169374662957,590.7268565887551,109.44598669643415,610.1322482357826C163.11027964623872,629.5376398828101,212.5238589656483,660.6980914459918,261.93743828505785,691.8585430091737" marker-end="url(#canvasArrow)" style="fill: none; stroke: black; stroke-width: 3;"/><title class="relationshipTypeTooltip">HAS_COCEPT</title><text class="displayText" x="111.32679628301881" y="610.8123624166459" text-anchor="middle" baseline-shift="30%" alignment-baseline="alphabetic" font-family="Roboto, sans-serif" font-size="14" style="fill: black;" transform="rotate(19.880352364642643 111.32679628301881 610.8123624166459)">HAS_COCEPT</text></g><g id="relationshiptype_Rel69" class="relationshipType"><path class="relationshipLine arrow" d="M2199.081989173444,397.1563505810428C2202.5968786805975,493.00467542872815,2206.1117681877504,588.8530002764136,2209.6266576949038,684.701325124099C2213.141547202057,780.5496499717843,2216.6564367092105,876.3979748194697,2220.1713262163635,972.2462996671551" marker-end="url(#canvasArrow)" style="fill: none; stroke: black; stroke-width: 3;"/><title class="relationshipTypeTooltip">ASSOCIATED_DURING_VISIT</title><text class="displayText" x="2209.699951171875" y="686.6999816894531" text-anchor="middle" baseline-shift="30%" alignment-baseline="alphabetic" font-family="Roboto, sans-serif" font-size="14" style="fill: black;" transform="rotate(87.8998262897691 2209.699951171875 686.6999816894531)">ASSOCIATED_DURING_VISIT</text></g><g id="relationshiptype_Rel78" class="relationshipType"><path class="relationshipLine arrow" d="M906.2277097511436,-221.8563349431246C1110.739206467858,-134.05057734207347,1315.2507031845723,-46.244819741022326,1519.762199901287,41.56093786002883C1724.2736966180016,129.36669546107998,1928.785193334716,217.17245306213113,2133.2966900514302,304.97821066318227" marker-end="url(#canvasArrow)" style="fill: none; stroke: black; stroke-width: 3;"/><title class="relationshipTypeTooltip">HAS_DRUG_EXPOSURE</title><text class="displayText" x="1521.5999755859375" y="42.3499755859375" text-anchor="middle" baseline-shift="30%" alignment-baseline="alphabetic" font-family="Roboto, sans-serif" font-size="14" style="fill: black;" transform="rotate(23.2359701574422 1521.5999755859375 42.3499755859375)">HAS_DRUG_EXPOSURE</text></g><g id="relationshiptype_Rel67" class="relationshipType"><path class="relationshipLine arrow" d="M1556.9239898839533,-214.2831304983339C1654.8090724011895,-130.67175596292878,1752.6941549184257,-47.06038142752368,1850.579237435662,36.550993107881425C1948.4643199528982,120.16236764328653,2046.3494024701345,203.77374217869163,2144.2344849873707,287.38511671409674" marker-end="url(#canvasArrow)" style="fill: none; stroke: black; stroke-width: 3;"/><title class="relationshipTypeTooltip">INITIATED</title><text class="displayText" x="1852.0999755859375" y="37.8499755859375" text-anchor="middle" baseline-shift="30%" alignment-baseline="alphabetic" font-family="Roboto, sans-serif" font-size="14" style="fill: black;" transform="rotate(40.50325445201853 1852.0999755859375 37.8499755859375)">INITIATED</text></g><g id="relationshiptype_Rel61" class="relationshipType"><path class="relationshipLine arrow" d="M1786.6499379838522,384.3534834551301C1852.964557899737,484.24689598197523,1919.2791778156216,584.1403085088203,1985.5937977315066,684.0337210356654C2051.9084176473916,783.9271335625104,2118.223037563276,883.8205460893556,2184.5376574791608,983.7139586162008" marker-end="url(#canvasArrow)" style="fill: none; stroke: black; stroke-width: 3;"/><title class="relationshipTypeTooltip">ASSOCIATED_DURING_VISIT</title><text class="displayText" x="1986.699951171875" y="685.6999816894531" text-anchor="middle" baseline-shift="30%" alignment-baseline="alphabetic" font-family="Roboto, sans-serif" font-size="14" style="fill: black;" transform="rotate(56.421654042995364 1986.699951171875 685.6999816894531)">ASSOCIATED_DURING_VISIT</text></g><g id="relationshiptype_Rel88" class="relationshipType"><path class="relationshipLine arrow" d="M261.44834382783216,704.9738312870542C203.53333724763252,697.3234995561809,145.61833066743293,689.6731678253074,91.95403771762834,670.2677761782799C38.289744767823755,650.8623845312524,-11.123834551585809,619.7019329680707,-60.53741387099537,588.5414814048888" marker-end="url(#canvasArrow)" style="fill: none; stroke: black; stroke-width: 3;"/><title class="relationshipTypeTooltip">IN_DOMAIN</title><text class="displayText" x="90.07322813104369" y="669.5876619974166" text-anchor="middle" baseline-shift="30%" alignment-baseline="alphabetic" font-family="Roboto, sans-serif" font-size="14" style="fill: black;" transform="rotate(19.880352364642647 90.07322813104369 669.5876619974166)">IN_DOMAIN</text></g><g id="relationshiptype_Rel59" class="relationshipType"><path class="relationshipLine arrow" d="M-101.46710692758212,863.4368068962993C-37.289255957773854,856.1228739864896,26.888595012034415,848.8089410766801,87.27439365320583,829.5840745705112C147.66019229437725,810.3592080643424,204.25393860691184,779.2234079618142,260.84768491944646,748.0876078592862" marker-end="url(#canvasArrow)" style="fill: none; stroke: black; stroke-width: 3;"/><title class="relationshipTypeTooltip">HAS_CONCEPT</title><text class="displayText" x="89.18014302862332" y="828.9773461979295" text-anchor="middle" baseline-shift="30%" alignment-baseline="alphabetic" font-family="Roboto, sans-serif" font-size="14" style="fill: black;" transform="rotate(-17.65977647379991 89.18014302862332 828.9773461979295)">HAS_CONCEPT</text></g><g id="relationshiptype_Rel73" class="relationshipType"><path class="relationshipLine arrow" d="M1363.7833604808493,365.39305124355144C1497.8982916413552,470.91644762918037,1632.0132228018617,576.4398440148094,1766.128153962368,681.9632404004387C1900.2430851228744,787.4866367860681,2034.3580162833805,893.0100331716972,2168.472947443887,998.5334295573261" marker-end="url(#canvasArrow)" style="fill: none; stroke: black; stroke-width: 3;"/><title class="relationshipTypeTooltip">ASSOCIATED_DURING_VISIT</title><text class="displayText" x="1767.699951171875" y="683.199951171875" text-anchor="middle" baseline-shift="30%" alignment-baseline="alphabetic" font-family="Roboto, sans-serif" font-size="14" style="fill: black;" transform="rotate(38.196135240351175 1767.699951171875 683.199951171875)">ASSOCIATED_DURING_VISIT</text></g><g id="relationshiptype_Rel84" class="relationshipType"><path class="relationshipLine arrow" d="M2133.059444429826,345.42445554560663C1842.9256799957739,405.7140057831217,1552.791915561722,466.0035560206368,1262.65815112767,526.293106258152C972.524386693618,586.5826564956672,682.3906222595662,646.8722067331823,392.25685782551426,707.1617569706974" marker-end="url(#canvasArrow)" style="fill: none; stroke: black; stroke-width: 3;"/><title class="relationshipTypeTooltip">HAS_CONCEPT</title><text class="displayText" x="1260.6999816894531" y="526.7000122070312" text-anchor="middle" baseline-shift="30%" alignment-baseline="alphabetic" font-family="Roboto, sans-serif" font-size="14" style="fill: black;" transform="rotate(-11.738952615893254 1260.6999816894531 526.7000122070312)">HAS_CONCEPT</text></g><g id="relationshiptype_Rel85" class="relationshipType"><path class="relationshipLine arrow" d="M1252.3658288110082,349.38245887773434C1108.42935794855,407.07360742824716,964.4928870860919,464.76475597876004,820.5564162236337,522.4559045292729C676.6199453611756,580.1470530797857,532.6834744987174,637.8382016302985,388.74700363625914,695.5293501808113" marker-end="url(#canvasArrow)" style="fill: none; stroke: black; stroke-width: 3;"/><title class="relationshipTypeTooltip">HAS_CONCEPT</title><text class="displayText" x="818.6999816894531" y="523.1999816894531" text-anchor="middle" baseline-shift="30%" alignment-baseline="alphabetic" font-family="Roboto, sans-serif" font-size="14" style="fill: black;" transform="rotate(-21.841396849847627 818.6999816894531 523.1999816894531)">HAS_CONCEPT</text></g><g id="relationshiptype_Rel86" class="relationshipType"><path class="relationshipLine arrow" d="M366.657551664457,384.70054575847666C361.08752528677746,429.37215730746715,355.5174989090978,474.04376885645763,349.94747253141816,518.7153804054483C344.3774461537385,563.3869919544389,338.8074197760589,608.0586035034294,333.2373933983793,652.7302150524199" marker-end="url(#canvasArrow)" style="fill: none; stroke: black; stroke-width: 3;"/><title class="relationshipTypeTooltip">HAS_CONCEPT</title><text class="displayText" x="349.70001220703125" y="520.7000122070312" text-anchor="middle" baseline-shift="30%" alignment-baseline="alphabetic" font-family="Roboto, sans-serif" font-size="14" style="fill: black;" transform="rotate(-82.89256983210304 349.70001220703125 520.7000122070312)">HAS_CONCEPT</text></g><g id="relationshiptype_Rel63" class="relationshipType"><path class="relationshipLine arrow" d="M887.5352233713938,-197.09063292036993C951.135933357048,-118.96079336632977,1014.7366433427021,-40.83095381228959,1078.3373533283561,37.29888574175057C1141.9380633140102,115.42872529579073,1205.5387732996642,193.5585648498309,1269.1394832853184,271.68840440387106" marker-end="url(#canvasArrow)" style="fill: none; stroke: black; stroke-width: 3;"/><title class="relationshipTypeTooltip">HAS_PROCEDURE_OCCURRENCE</title><text class="displayText" x="1079.5999755859375" y="38.84994506835936" text-anchor="middle" baseline-shift="30%" alignment-baseline="alphabetic" font-family="Roboto, sans-serif" font-size="14" style="fill: black;" transform="rotate(50.853078381152926 1079.5999755859375 38.84994506835936)">HAS_PROCEDURE_OCCURRENCE</text></g><g id="relationshiptype_Rel83" class="relationshipType"><path class="relationshipLine arrow" d="M2158.6045384775707,1030.3935608611935C1864.293741729678,980.7732025763642,1569.9829449817857,931.1528442915345,1275.6721482338933,881.5324860067049C981.3613514860008,831.9121277218752,687.0505547381084,782.2917694370458,392.739757990216,732.6714111522164" marker-end="url(#canvasArrow)" style="fill: none; stroke: black; stroke-width: 3;"/><title class="relationshipTypeTooltip">HAS_CONCEPT</title><text class="displayText" x="1273.6999816894531" y="881.1999816894531" text-anchor="middle" baseline-shift="30%" alignment-baseline="alphabetic" font-family="Roboto, sans-serif" font-size="14" style="fill: black;" transform="rotate(9.56998263051534 1273.6999816894531 881.1999816894531)">HAS_CONCEPT</text></g><g id="relationshiptype_Rel71" class="relationshipType"><path class="relationshipLine arrow" d="M1486.859384906919,-194.86431646612164C1461.4846137495979,-119.09172410405395,1436.1098425922767,-43.31913174198628,1410.7350714349554,32.45346062008139C1385.3603002776342,108.22605298214906,1359.985529120313,183.99864534421673,1334.6107579629916,259.7712377062844" marker-end="url(#canvasArrow)" style="fill: none; stroke: black; stroke-width: 3;"/><title class="relationshipTypeTooltip">RESPONSIBLE_FOR</title><text class="displayText" x="1410.0999755859375" y="34.349945068359375" text-anchor="middle" baseline-shift="30%" alignment-baseline="alphabetic" font-family="Roboto, sans-serif" font-size="14" style="fill: black;" transform="rotate(-71.48530160674532 1410.0999755859375 34.349945068359375)">RESPONSIBLE_FOR</text></g><g id="relationshiptype_Rel82" class="relationshipType"><path class="relationshipLine arrow" d="M901.2747959419474,-212.50403655353807C1033.1547297110524,-128.24496609147306,1165.0346634801574,-43.98589562940806,1296.9145972492622,40.273174832656935C1428.794531018367,124.53224529472193,1560.674464787472,208.79131575678693,1692.5543985565769,293.05038621885194" marker-end="url(#canvasArrow)" style="fill: none; stroke: black; stroke-width: 3;"/><title class="relationshipTypeTooltip">HAS_OBSERVATION_OCCURRENCE</title><text class="displayText" x="1298.5999755859375" y="41.3499755859375" text-anchor="middle" baseline-shift="30%" alignment-baseline="alphabetic" font-family="Roboto, sans-serif" font-size="14" style="fill: black;" transform="rotate(32.574811806679975 1298.5999755859375 41.3499755859375)">HAS_OBSERVATION_OCCURRENCE</text></g><g id="relationshiptype_Rel80" class="relationshipType"><path class="relationshipLine arrow" d="M792.7113843671375,-211.006433806554C667.5592697216518,-126.0952576216579,542.4071550761662,-41.18408143676177,417.25504043068065,43.727094748134334C292.10292578519505,128.63827093303044,166.9508111397094,213.54944711792655,41.798696494223755,298.4606233028227" marker-end="url(#canvasArrow)" style="fill: none; stroke: black; stroke-width: 3;"/><title class="relationshipTypeTooltip">HAS_OBSERVATION_PERIOD</title><text class="displayText" x="415.6000061035156" y="44.849975585937486" text-anchor="middle" baseline-shift="30%" alignment-baseline="alphabetic" font-family="Roboto, sans-serif" font-size="14" style="fill: black;" transform="rotate(-34.15547095034643 415.6000061035156 44.849975585937486)">HAS_OBSERVATION_PERIOD</text></g><g id="relationshiptype_Rel75" class="relationshipType"><path class="relationshipLine arrow" d="M893.945497432946,-203.07118784057351C1107.0103696641181,-3.5531576216429244,1320.07524189529,195.9648725972877,1533.1401141264623,395.48290281621837C1746.2049863576347,595.000933035149,1959.2698585888065,794.5189632540796,2172.3347308199786,994.0369934730103" marker-end="url(#canvasArrow)" style="fill: none; stroke: black; stroke-width: 3;"/><title class="relationshipTypeTooltip">HAS_VISIT_OCCURRENCE</title><text class="displayText" x="1534.5999755859375" y="396.8499450683594" text-anchor="middle" baseline-shift="30%" alignment-baseline="alphabetic" font-family="Roboto, sans-serif" font-size="14" style="fill: black;" transform="rotate(43.119412801493134 1534.5999755859375 396.8499450683594)">HAS_VISIT_OCCURRENCE</text></g><g id="relationshiptype_Rel90" class="relationshipType"><path class="relationshipLine arrow" d="M260.8671313416446,734.9632175177632C196.68928037183636,742.2771504275729,132.51142940202809,749.5910833373824,72.12563076085667,768.8159498435513C11.739832119685238,788.0408163497201,-44.85391419284937,819.1766164522483,-101.44766050538398,850.3124165547763" marker-end="url(#canvasArrow)" style="fill: none; stroke: black; stroke-width: 3;"/><title class="relationshipTypeTooltip">BELONGS_TO_CLASS</title><text class="displayText" x="70.21988138543918" y="769.422678216133" text-anchor="middle" baseline-shift="30%" alignment-baseline="alphabetic" font-family="Roboto, sans-serif" font-size="14" style="fill: black;" transform="rotate(-17.659776473799894 70.21988138543918 769.422678216133)">BELONGS_TO_CLASS</text></g><g id="relationshiptype_Rel65" class="relationshipType"><path class="relationshipLine arrow" d="M781.6622074799193,-242.91087144188796C607.6731504754256,-230.59600477673598,433.6840934709319,-218.28113811158397,259.6950364664382,-205.966271446432C85.70597946194448,-193.65140478128,-88.28307754254922,-181.336538116128,-262.2721345470429,-169.02167145097602" marker-end="url(#canvasArrow)" style="fill: none; stroke: black; stroke-width: 3;"/><title class="relationshipTypeTooltip">HAS_GENDER</title><text class="displayText" x="257.7000274658203" y="-205.82506561279297" text-anchor="middle" baseline-shift="30%" alignment-baseline="alphabetic" font-family="Roboto, sans-serif" font-size="14" style="fill: black;" transform="rotate(-4.048617490255168 257.7000274658203 -205.82506561279297)">HAS_GENDER</text></g><g id="relationshiptype_Rel58" class="relationshipType"><path class="relationshipLine arrow" d="M277.2736053358384,758.6264190782241C265.7844381910698,773.2404605724985,254.29527104630122,787.8545020667729,242.39896687075756,779.6393406233958C230.5026626952139,771.4241791800188,218.19922148889512,740.3798147989901,220.18153953981158,726.0017262399873C222.16385759072804,711.6236376809845,238.43193489887966,713.9118249440079,254.70001220703125,716.2000122070312" marker-end="url(#canvasArrow)" style="fill: none; stroke: black; stroke-width: 3;"/><title class="relationshipTypeTooltip">RELATED_TO</title><text class="displayText" x="223.89921694519427" y="755.8820008906122" text-anchor="middle" baseline-shift="30%" alignment-baseline="alphabetic" font-family="Roboto, sans-serif" font-size="14" style="fill: black;" transform="rotate(-112.4999999999999 223.89921694519427 755.8820008906122)">RELATED_TO</text></g><g id="relationshiptype_Rel66" class="relationshipType"><path class="relationshipLine arrow" d="M1532.3902184016904,-196.45443648252004C1564.3715198384734,-119.30215168588174,1596.3528212752565,-42.14986688924344,1628.3341227120393,35.00241790739484C1660.315424148822,112.15470270403313,1692.2967255856051,189.30698750067143,1724.2780270223882,266.4592722973097" marker-end="url(#canvasArrow)" style="fill: none; stroke: black; stroke-width: 3;"/><title class="relationshipTypeTooltip">RESPONSIBLE_FOR</title><text class="displayText" x="1629.0999755859375" y="36.8499755859375" text-anchor="middle" baseline-shift="30%" alignment-baseline="alphabetic" font-family="Roboto, sans-serif" font-size="14" style="fill: black;" transform="rotate(67.48492888382658 1629.0999755859375 36.8499755859375)">RESPONSIBLE_FOR</text></g><g id="relationshiptype_Rel77" class="relationshipType"><path class="relationshipLine arrow" d="M1449.5744367179373,-227.0105863288184C1280.677068187818,-141.02618850806732,1111.7796996576985,-55.041790687316265,942.8823311275792,30.942607133434805C773.9849625974597,116.92700495418588,605.0875940673403,202.91140277493693,436.19022553722095,288.895800595688" marker-end="url(#canvasArrow)" style="fill: none; stroke: black; stroke-width: 3;"/><title class="relationshipTypeTooltip">CAPTURED</title><text class="displayText" x="941.1000061035156" y="31.8499755859375" text-anchor="middle" baseline-shift="30%" alignment-baseline="alphabetic" font-family="Roboto, sans-serif" font-size="14" style="fill: black;" transform="rotate(-26.980306943145195 941.1000061035156 31.8499755859375)">CAPTURED</text></g><g id="relationshiptype_Rel89" class="relationshipType"><path class="relationshipLine arrow" d="M278.05048972505085,766.8933875715543C234.8748002811923,798.7586642430028,191.69911083733382,830.6239409144513,158.08481066194403,870.5409152489278C124.47051048655423,910.4578895834044,100.41759957963309,958.426561580909,76.36468867271195,1006.3952335784138" marker-end="url(#canvasArrow)" style="fill: none; stroke: black; stroke-width: 3;"/><title class="relationshipTypeTooltip">USES_VOCABULARY</title><text class="displayText" x="156.79653903585955" y="872.0707375318829" text-anchor="middle" baseline-shift="30%" alignment-baseline="alphabetic" font-family="Roboto, sans-serif" font-size="14" style="fill: black;" transform="rotate(-49.89908741570784 156.79653903585955 872.0707375318829)">USES_VOCABULARY</text></g><g id="relationshiptype_Rel62" class="relationshipType"><path class="relationshipLine arrow" d="M852.2668998115585,-182.75639056024846C858.8425912627736,-108.93260059101004,865.4182827139884,-35.10881062177164,871.9939741652033,38.714979347466766C878.5696656164182,112.53876931670517,885.1453570676331,186.36255928594358,891.7210485188481,260.186349255182" marker-end="url(#canvasArrow)" style="fill: none; stroke: black; stroke-width: 3;"/><title class="relationshipTypeTooltip">HAS_MEASUREMENT</title><text class="displayText" x="872.1714172363281" y="40.70709228515625" text-anchor="middle" baseline-shift="30%" alignment-baseline="alphabetic" font-family="Roboto, sans-serif" font-size="14" style="fill: black;" transform="rotate(84.90993775996165 872.1714172363281 40.70709228515625)">HAS_MEASUREMENT</text></g><g id="relationshiptype_Rel87" class="relationshipType"><path class="relationshipLine arrow" d="M1688.0136936903914,347.3881803166684C1471.8853923309143,406.6491687097675,1255.7570909714373,465.9101571028665,1039.6287896119602,525.1711454959654C823.5004882524833,584.4321338890644,607.3721868930062,643.6931222821635,391.2438855335292,702.9541106752625" marker-end="url(#canvasArrow)" style="fill: none; stroke: black; stroke-width: 3;"/><title class="relationshipTypeTooltip">HAS_CONCEPT</title><text class="displayText" x="1037.6999816894531" y="525.7000122070312" text-anchor="middle" baseline-shift="30%" alignment-baseline="alphabetic" font-family="Roboto, sans-serif" font-size="14" style="fill: black;" transform="rotate(-15.333285418454295 1037.6999816894531 525.7000122070312)">HAS_CONCEPT</text></g><g id="relationshiptype_Rel74" class="relationshipType"><path class="relationshipLine arrow" d="M844.2037693386898,365.6273317132056C767.1097982635254,418.39405297132055,690.015827188361,471.16077422943545,612.9218561131966,523.9274954875505C535.8278850380322,576.6942167456655,458.73391396286775,629.4609380037804,381.6399428877034,682.2276592618953" marker-end="url(#canvasArrow)" style="fill: none; stroke: black; stroke-width: 3;"/><title class="relationshipTypeTooltip">HAS_CONCEPT</title><text class="displayText" x="611.2714233398438" y="525.05712890625" text-anchor="middle" baseline-shift="30%" alignment-baseline="alphabetic" font-family="Roboto, sans-serif" font-size="14" style="fill: black;" transform="rotate(-34.38956424864375 611.2714233398438 525.05712890625)">HAS_CONCEPT</text></g><g id="relationshiptype_Rel57" class="relationshipType"><path class="relationshipLine arrow" d="M2175.2735443006823,1078.6263580430677C2163.7843771559137,1093.240399537342,2152.295210011145,1107.8544410316165,2140.3989058356015,1099.6392795882396C2128.5026016600577,1091.4241181448626,2116.199160453739,1060.3797537638338,2118.1814785046554,1046.0016652048312C2120.163796555572,1031.6235766458285,2136.4318738637235,1033.9117639088518,2152.699951171875,1036.199951171875" marker-end="url(#canvasArrow)" style="fill: none; stroke: black; stroke-width: 3;"/><title class="relationshipTypeTooltip">NEXT</title><text class="displayText" x="2121.899155910038" y="1075.8819398554563" text-anchor="middle" baseline-shift="30%" alignment-baseline="alphabetic" font-family="Roboto, sans-serif" font-size="14" style="fill: black;" transform="rotate(-112.4999999999999 2121.899155910038 1075.8819398554563)">NEXT</text></g><g id="relationshiptype_Rel64" class="relationshipType"><path class="relationshipLine arrow" d="M783.6303606375666,-230.9952603263453C615.5983926068567,-186.88280520204694,447.56642457614663,-142.77035007774856,279.5344565454366,-98.6578949534502C111.50248851472664,-54.54543982915183,-56.52947951598335,-10.432984704853467,-224.56144754669333,33.6794704194449" marker-end="url(#canvasArrow)" style="fill: none; stroke: black; stroke-width: 3;"/><title class="relationshipTypeTooltip">HAS_RACE</title><text class="displayText" x="277.6000061035156" y="-98.15005493164062" text-anchor="middle" baseline-shift="30%" alignment-baseline="alphabetic" font-family="Roboto, sans-serif" font-size="14" style="fill: black;" transform="rotate(-14.709600154914312 277.6000061035156 -98.15005493164062)">HAS_RACE</text></g><g id="relationshiptype_Rel81" class="relationshipType"><path class="relationshipLine arrow" d="M435.2544523568847,343.8254175609679C722.4485576200501,455.8746270873457,1009.6426628832153,567.9238366137234,1296.8367681463806,679.9730461401012C1584.0308734095458,792.022255666479,1871.2249786727111,904.0714651928567,2158.4190839358766,1016.1206747192346" marker-end="url(#canvasArrow)" style="fill: none; stroke: black; stroke-width: 3;"/><title class="relationshipTypeTooltip">ASSOCIATED_DURING_VISIT</title><text class="displayText" x="1298.6999816894531" y="680.6999816894531" text-anchor="middle" baseline-shift="30%" alignment-baseline="alphabetic" font-family="Roboto, sans-serif" font-size="14" style="fill: black;" transform="rotate(21.313317321070702 1298.6999816894531 680.6999816894531)">ASSOCIATED_DURING_VISIT</text></g><g id="nodelabel_Node49" class="nodeLabel"><circle class="hoverCircle" cy="559.2000122070312" cx="-123.29998779296875" r="80" style="opacity: 0; fill: lightgray;"/><circle class="displayCircle" cy="559.2000122070312" cx="-123.29998779296875" r="60" style="fill: rgb(255, 193, 7); stroke: rgb(166, 118, 0); stroke-width: 4;"/><text class="displayText" x="-123.29998779296875" y="559.2000122070312" pointer-events="none" text-anchor="middle" alignment-baseline="central" font-family="Roboto, sans-serif" font-size="14" style="fill: black;"><tspan x="-123.29998779296875" y="559.2000122070312" dy="0.34em">Domain</tspan></text><g class="annotation" transform="translate(-397.09686279296875,530.0000122070312)"><path class="annotationBubble" stroke-width="2" d="M10,0L190.796875,0,C193.96354166666669,0.16666666666666674,197.13020833333334,0.3333333333333335,198.796875,2C200.46354166666666,3.6666666666666665,200.63020833333331,6.833333333333333,200.796875,10,L200.796875,21.2L208.796875,29.2L200.796875,37.2L200.796875,48.4,C200.63020833333331,51.56666666666666,200.46354166666666,54.733333333333334,198.796875,56.4C197.13020833333334,58.06666666666666,193.96354166666669,58.233333333333334,190.796875,58.4,L10,58.4,C6.833333333333333,58.233333333333334,3.6666666666666665,58.06666666666667,2,56.4C0.3333333333333333,54.73333333333333,0.16666666666666666,51.56666666666666,0,48.4,L0,10,C0.16666666666666674,6.833333333333333,0.3333333333333335,3.6666666666666665,2,2C3.6666666666666665,0.3333333333333333,6.833333333333333,0.16666666666666666,10,0Z" style="fill: white; stroke: black;"/><text class="annotationText" x="10" y="22" pointer-events="none" text-anchor="middle" alignment-baseline="central" font-family="Roboto, sans-serif" font-size="14" style="fill: black;"><tspan x="10" text-anchor="start" y="24" dy="0em">domainId : String (Integer)</tspan><tspan x="10" text-anchor="start" y="24" dy="1.2em">domainName : String (String)</tspan></text></g></g><g id="nodelabel_Node26" class="nodeLabel"><circle class="hoverCircle" cy="337.20001220703125" cx="-15.29998779296875" r="80" style="opacity: 0; fill: lightgray;"/><circle class="displayCircle" cy="337.20001220703125" cx="-15.29998779296875" r="60" style="fill: rgb(205, 220, 57); stroke: rgb(122, 142, 0); stroke-width: 4;"/><text class="displayText" x="-15.29998779296875" y="337.20001220703125" pointer-events="none" text-anchor="middle" alignment-baseline="central" font-family="Roboto, sans-serif" font-size="14" style="fill: black;"><tspan x="-15.29998779296875" y="337.20001220703125" dy="0.00em">Observation</tspan><tspan x="-15.29998779296875" y="337.20001220703125" dy="1.10em">Period</tspan></text><g class="annotation" transform="translate(-354.03048325759437,387.1619529841568)"><path class="annotationBubble" stroke-width="2" d="M10,0L278.7685546875,0,L282.7685546875,0L292.7685546875,-4L288.7685546875,6L288.7685546875,10,L288.7685546875,67.6,C288.60188802083337,70.76666666666665,288.4352213541667,73.93333333333332,286.7685546875,75.6C285.1018880208333,77.26666666666667,281.93522135416663,77.43333333333334,278.7685546875,77.6,L10,77.6,C6.833333333333333,77.43333333333332,3.6666666666666665,77.26666666666665,2,75.6C0.3333333333333333,73.93333333333334,0.16666666666666666,70.76666666666667,0,67.6,L0,10,C0.16666666666666674,6.833333333333333,0.3333333333333335,3.6666666666666665,2,2C3.6666666666666665,0.3333333333333333,6.833333333333333,0.16666666666666666,10,0Z" style="fill: white; stroke: black;"/><text class="annotationText" x="10" y="22" pointer-events="none" text-anchor="middle" alignment-baseline="central" font-family="Roboto, sans-serif" font-size="14" style="fill: black;"><tspan x="10" text-anchor="start" y="24" dy="0em">observationPeriodEndDate : String (String)</tspan><tspan x="10" text-anchor="start" y="24" dy="1.2em">observationPeriodId : String (String)</tspan><tspan x="10" text-anchor="start" y="24" dy="2.4em">observationPeriodStartDate : String (String)</tspan></text></g></g><g id="nodelabel_Node34" class="nodeLabel"><circle class="hoverCircle" cy="51.199951171875" cx="-291.29998779296875" r="80" style="opacity: 0; fill: lightgray;"/><circle class="displayCircle" cy="51.199951171875" cx="-291.29998779296875" r="60" style="fill: rgb(255, 193, 7); stroke: rgb(166, 118, 0); stroke-width: 4;"/><text class="displayText" x="-291.29998779296875" y="51.199951171875" pointer-events="none" text-anchor="middle" alignment-baseline="central" font-family="Roboto, sans-serif" font-size="14" style="fill: black;"><tspan x="-291.29998779296875" y="51.199951171875" dy="0.34em">Race</tspan></text><g class="annotation" transform="translate(-597.3009643554688,21.999951171875)"><path class="annotationBubble" stroke-width="2" d="M10,0L223.0009765625,0,C226.16764322916669,0.16666666666666674,229.33430989583334,0.3333333333333335,231.0009765625,2C232.66764322916666,3.6666666666666665,232.83430989583331,6.833333333333333,233.0009765625,10,L233.0009765625,21.2L241.0009765625,29.2L233.0009765625,37.2L233.0009765625,48.4,C232.83430989583331,51.56666666666666,232.66764322916666,54.733333333333334,231.0009765625,56.4C229.33430989583334,58.06666666666666,226.16764322916669,58.233333333333334,223.0009765625,58.4,L10,58.4,C6.833333333333333,58.233333333333334,3.6666666666666665,58.06666666666667,2,56.4C0.3333333333333333,54.73333333333333,0.16666666666666666,51.56666666666666,0,48.4,L0,10,C0.16666666666666674,6.833333333333333,0.3333333333333335,3.6666666666666665,2,2C3.6666666666666665,0.3333333333333333,6.833333333333333,0.16666666666666666,10,0Z" style="fill: white; stroke: black;"/><text class="annotationText" x="10" y="22" pointer-events="none" text-anchor="middle" alignment-baseline="central" font-family="Roboto, sans-serif" font-size="14" style="fill: black;"><tspan x="10" text-anchor="start" y="24" dy="0em">raceConceptId : String (String)</tspan><tspan x="10" text-anchor="start" y="24" dy="1.2em">raceConceptName : String (String)</tspan></text></g></g><g id="nodelabel_Node16" class="nodeLabel"><circle class="hoverCircle" cy="332.20001220703125" cx="2196.699951171875" r="80" style="opacity: 0; fill: lightgray;"/><circle class="displayCircle" cy="332.20001220703125" cx="2196.699951171875" r="60" style="fill: rgb(205, 220, 57); stroke: rgb(122, 142, 0); stroke-width: 4;"/><text class="displayText" x="2196.699951171875" y="332.20001220703125" pointer-events="none" text-anchor="middle" alignment-baseline="central" font-family="Roboto, sans-serif" font-size="14" style="fill: black;"><tspan x="2196.699951171875" y="332.20001220703125" dy="0.34em">DrugExposure</tspan></text><g class="annotation" transform="translate(2246.6618919490006,108.63807142990566)"><path class="annotationBubble" stroke-width="2" d="M10,0L302.537109375,0,C305.70377604166663,0.16666666666666674,308.8704427083333,0.3333333333333335,310.537109375,2C312.2037760416667,3.6666666666666665,312.37044270833337,6.833333333333333,312.537109375,10,L312.537109375,163.6,C312.37044270833337,166.76666666666665,312.2037760416667,169.93333333333334,310.537109375,171.6C308.8704427083333,173.26666666666665,305.70377604166663,173.43333333333334,302.537109375,173.6,L10,173.6,L6,173.6L-4,177.6L0,167.6L0,163.6,L0,10,C0.16666666666666674,6.833333333333333,0.3333333333333335,3.6666666666666665,2,2C3.6666666666666665,0.3333333333333333,6.833333333333333,0.16666666666666666,10,0Z" style="fill: white; stroke: black;"/><text class="annotationText" x="10" y="22" pointer-events="none" text-anchor="middle" alignment-baseline="central" font-family="Roboto, sans-serif" font-size="14" style="fill: black;"><tspan x="10" text-anchor="start" y="24" dy="0em">drugExposureEndDatetime : String (DateTime)</tspan><tspan x="10" text-anchor="start" y="24" dy="1.2em">drugExposureId : String (Integer)</tspan><tspan x="10" text-anchor="start" y="24" dy="2.4em">drugExposureStartDatetime : String (DateTime)</tspan><tspan x="10" text-anchor="start" y="24" dy="3.5999999999999996em">drugTypeConceptId : String (Integer)</tspan><tspan x="10" text-anchor="start" y="24" dy="4.8em">drugTypeConceptName : String (String)</tspan><tspan x="10" text-anchor="start" y="24" dy="6em">routeConceptId : String (Integer)</tspan><tspan x="10" text-anchor="start" y="24" dy="7.199999999999999em">routeConceptName : String (String)</tspan><tspan x="10" text-anchor="start" y="24" dy="8.4em">stopReason : String (String)</tspan></text></g></g><g id="nodelabel_Node5" class="nodeLabel"><circle class="hoverCircle" cy="328.91424560546875" cx="897.8428344726562" r="80" style="opacity: 0; fill: lightgray;"/><circle class="displayCircle" cy="328.91424560546875" cx="897.8428344726562" r="60" style="fill: rgb(205, 220, 57); stroke: rgb(122, 142, 0); stroke-width: 4;"/><text class="displayText" x="897.8428344726562" y="328.91424560546875" pointer-events="none" text-anchor="middle" alignment-baseline="central" font-family="Roboto, sans-serif" font-size="14" style="fill: black;"><tspan x="897.8428344726562" y="328.91424560546875" dy="0.34em">Measurement</tspan></text><g class="annotation" transform="translate(545.5420532226562,213.31424560546878)"><path class="annotationBubble" stroke-width="2" d="M10,0L269.30078125,0,C272.46744791666663,0.16666666666666674,275.6341145833333,0.3333333333333335,277.30078125,2C278.9674479166667,3.6666666666666665,279.13411458333337,6.833333333333333,279.30078125,10,L279.30078125,107.59999999999998L287.30078125,115.59999999999998L279.30078125,123.59999999999998L279.30078125,221.19999999999996,C279.13411458333337,224.36666666666662,278.9674479166667,227.53333333333327,277.30078125,229.19999999999996C275.6341145833333,230.86666666666665,272.46744791666663,231.0333333333333,269.30078125,231.19999999999996,L10,231.19999999999996,C6.833333333333333,231.0333333333333,3.6666666666666665,230.86666666666662,2,229.19999999999996C0.3333333333333333,227.5333333333333,0.16666666666666666,224.36666666666662,0,221.19999999999996,L0,10,C0.16666666666666674,6.833333333333333,0.3333333333333335,3.6666666666666665,2,2C3.6666666666666665,0.3333333333333333,6.833333333333333,0.16666666666666666,10,0Z" style="fill: white; stroke: black;"/><text class="annotationText" x="10" y="22" pointer-events="none" text-anchor="middle" alignment-baseline="central" font-family="Roboto, sans-serif" font-size="14" style="fill: black;"><tspan x="10" text-anchor="start" y="24" dy="0em">measurementDatetime : String (Datetime)</tspan><tspan x="10" text-anchor="start" y="24" dy="1.2em">measurementId : String (Integer)</tspan><tspan x="10" text-anchor="start" y="24" dy="2.4em">operatorConceptId : String (String)</tspan><tspan x="10" text-anchor="start" y="24" dy="3.5999999999999996em">operatorConceptName : String (String)</tspan><tspan x="10" text-anchor="start" y="24" dy="4.8em">rangeHigh : String (Float)</tspan><tspan x="10" text-anchor="start" y="24" dy="6em">rangeLow : String (Float)</tspan><tspan x="10" text-anchor="start" y="24" dy="7.199999999999999em">unitConceptId : String (String)</tspan><tspan x="10" text-anchor="start" y="24" dy="8.4em">unitConceptName : String (String)</tspan><tspan x="10" text-anchor="start" y="24" dy="9.6em">valueAsConceptId : String (String)</tspan><tspan x="10" text-anchor="start" y="24" dy="10.799999999999999em">valueAsConceptName : String (String)</tspan><tspan x="10" text-anchor="start" y="24" dy="12em">valueAsNumber : String (String)</tspan></text></g></g><g id="relationshiptype_Rel72" class="relationshipType"><path class="relationshipLine arrow" d="M787.6701610332641,-219.85860580667872C640.9168256871093,-150.90591411404745,494.16349034095447,-81.95322242141617,347.41015499479977,-13.00053072878488C200.65681964864504,55.9521609638464,53.903484302490256,124.90485265647769,-92.84985104366453,193.85754434910896" marker-end="url(#canvasArrow)" style="fill: none; stroke: black; stroke-width: 3;"/><title class="relationshipTypeTooltip">HAS_ETHNICITY</title><text class="displayText" x="345.6000061035156" y="-12.1500244140625" text-anchor="middle" baseline-shift="30%" alignment-baseline="alphabetic" font-family="Roboto, sans-serif" font-size="14" style="fill: black;" transform="rotate(-25.166688498216956 345.6000061035156 -12.1500244140625)">HAS_ETHNICITY</text></g><g id="nodelabel_Node31" class="nodeLabel"><circle class="hoverCircle" cy="-256.50006103515625" cx="1507.5" r="80" style="opacity: 0; fill: lightgray;"/><circle class="displayCircle" cy="-256.50006103515625" cx="1507.5" r="60" style="fill: rgb(255, 235, 59); stroke: rgb(168, 156, 0); stroke-width: 4;"/><text class="displayText" x="1507.5" y="-256.50006103515625" pointer-events="none" text-anchor="middle" alignment-baseline="central" font-family="Roboto, sans-serif" font-size="14" style="fill: black;"><tspan x="1507.5" y="-256.50006103515625" dy="0.34em">Provider</tspan></text><g class="annotation" transform="translate(1414.4638671875,-368.70006103515624)"><path class="annotationBubble" stroke-width="2" d="M10,0L176.072265625,0,C179.23893229166669,0.16666666666666674,182.40559895833334,0.3333333333333335,184.072265625,2C185.73893229166666,3.6666666666666665,185.90559895833331,6.833333333333333,186.072265625,10,L186.072265625,29.200000000000003,C185.90559895833331,32.366666666666674,185.73893229166666,35.53333333333334,184.072265625,37.2C182.40559895833334,38.86666666666667,179.23893229166669,39.03333333333333,176.072265625,39.2,L101.0361328125,39.2L93.0361328125,47.2L85.0361328125,39.2L10,39.2,C6.833333333333333,39.03333333333334,3.6666666666666665,38.866666666666674,2,37.2C0.3333333333333333,35.53333333333333,0.16666666666666666,32.36666666666667,0,29.200000000000003,L0,10,C0.16666666666666674,6.833333333333333,0.3333333333333335,3.6666666666666665,2,2C3.6666666666666665,0.3333333333333333,6.833333333333333,0.16666666666666666,10,0Z" style="fill: white; stroke: black;"/><text class="annotationText" x="10" y="22" pointer-events="none" text-anchor="middle" alignment-baseline="central" font-family="Roboto, sans-serif" font-size="14" style="fill: black;"><tspan x="10" text-anchor="start" y="24" dy="0em">providerId : String (Integer)</tspan></text></g></g><g id="nodelabel_Node24" class="nodeLabel"><circle class="hoverCircle" cy="-247.50006103515625" cx="846.5" r="80" style="opacity: 0; fill: lightgray;"/><circle class="displayCircle" cy="-247.50006103515625" cx="846.5" r="60" style="fill: rgb(255, 235, 59); stroke: rgb(168, 156, 0); stroke-width: 4;"/><text class="displayText" x="846.5" y="-247.50006103515625" pointer-events="none" text-anchor="middle" alignment-baseline="central" font-family="Roboto, sans-serif" font-size="14" style="fill: black;"><tspan x="846.5" y="-247.50006103515625" dy="0.34em">Person</tspan></text><g class="annotation" transform="translate(753.18017578125,-378.9000610351562)"><path class="annotationBubble" stroke-width="2" d="M10,0L176.6396484375,0,C179.80631510416669,0.16666666666666674,182.97298177083334,0.3333333333333335,184.6396484375,2C186.30631510416666,3.6666666666666665,186.47298177083331,6.833333333333333,186.6396484375,10,L186.6396484375,48.4,C186.47298177083331,51.56666666666666,186.30631510416666,54.733333333333334,184.6396484375,56.4C182.97298177083334,58.06666666666666,179.80631510416669,58.233333333333334,176.6396484375,58.4,L101.31982421875,58.4L93.31982421875,66.4L85.31982421875,58.4L10,58.4,C6.833333333333333,58.233333333333334,3.6666666666666665,58.06666666666667,2,56.4C0.3333333333333333,54.73333333333333,0.16666666666666666,51.56666666666666,0,48.4,L0,10,C0.16666666666666674,6.833333333333333,0.3333333333333335,3.6666666666666665,2,2C3.6666666666666665,0.3333333333333333,6.833333333333333,0.16666666666666666,10,0Z" style="fill: white; stroke: black;"/><text class="annotationText" x="10" y="22" pointer-events="none" text-anchor="middle" alignment-baseline="central" font-family="Roboto, sans-serif" font-size="14" style="fill: black;"><tspan x="10" text-anchor="start" y="24" dy="0em">personId : String (String)</tspan><tspan x="10" text-anchor="start" y="24" dy="1.2em">yearOfBirth : String (String)</tspan></text></g></g><g id="nodelabel_Node2" class="nodeLabel"><circle class="hoverCircle" cy="330.20001220703125" cx="1750.699951171875" r="80" style="opacity: 0; fill: lightgray;"/><circle class="displayCircle" cy="330.20001220703125" cx="1750.699951171875" r="60" style="fill: rgb(205, 220, 57); stroke: rgb(122, 142, 0); stroke-width: 4;"/><text class="displayText" x="1750.699951171875" y="330.20001220703125" pointer-events="none" text-anchor="middle" alignment-baseline="central" font-family="Roboto, sans-serif" font-size="14" style="fill: black;"><tspan x="1750.699951171875" y="330.20001220703125" dy="0.34em">Observation</tspan></text><g class="annotation" transform="translate(1800.6618919490006,221.83807142990565)"><path class="annotationBubble" stroke-width="2" d="M10,0L208.7001953125,0,C211.86686197916669,0.16666666666666674,215.03352864583334,0.3333333333333335,216.7001953125,2C218.36686197916666,3.6666666666666665,218.53352864583331,6.833333333333333,218.7001953125,10,L218.7001953125,48.4,C218.53352864583331,51.56666666666666,218.36686197916666,54.733333333333334,216.7001953125,56.4C215.03352864583334,58.06666666666666,211.86686197916669,58.233333333333334,208.7001953125,58.4,L10,58.4,L6,58.4L-4,62.4L0,52.4L0,48.4,L0,10,C0.16666666666666674,6.833333333333333,0.3333333333333335,3.6666666666666665,2,2C3.6666666666666665,0.3333333333333333,6.833333333333333,0.16666666666666666,10,0Z" style="fill: white; stroke: black;"/><text class="annotationText" x="10" y="22" pointer-events="none" text-anchor="middle" alignment-baseline="central" font-family="Roboto, sans-serif" font-size="14" style="fill: black;"><tspan x="10" text-anchor="start" y="24" dy="0em">observationDate : String (String)</tspan><tspan x="10" text-anchor="start" y="24" dy="1.2em">observationId : String (String)</tspan></text></g></g><g id="nodelabel_Node29" class="nodeLabel"><circle class="hoverCircle" cy="325.199951171875" cx="1312.699951171875" r="80" style="opacity: 0; fill: lightgray;"/><circle class="displayCircle" cy="325.199951171875" cx="1312.699951171875" r="60" style="fill: rgb(205, 220, 57); stroke: rgb(122, 142, 0); stroke-width: 4;"/><text class="displayText" x="1312.699951171875" y="325.199951171875" pointer-events="none" text-anchor="middle" alignment-baseline="central" font-family="Roboto, sans-serif" font-size="14" style="fill: black;"><tspan x="1312.699951171875" y="325.199951171875" dy="0.00em">Procedure</tspan><tspan x="1312.699951171875" y="325.199951171875" dy="1.10em">Occurrence</tspan></text><g class="annotation" transform="translate(1362.6618919490006,216.8380103947494)"><path class="annotationBubble" stroke-width="2" d="M10,0L259.716796875,0,C262.88346354166663,0.16666666666666674,266.0501302083333,0.3333333333333335,267.716796875,2C269.3834635416667,3.6666666666666665,269.55013020833337,6.833333333333333,269.716796875,10,L269.716796875,48.4,C269.55013020833337,51.56666666666666,269.3834635416667,54.733333333333334,267.716796875,56.4C266.0501302083333,58.06666666666666,262.88346354166663,58.233333333333334,259.716796875,58.4,L10,58.4,L6,58.4L-4,62.4L0,52.4L0,48.4,L0,10,C0.16666666666666674,6.833333333333333,0.3333333333333335,3.6666666666666665,2,2C3.6666666666666665,0.3333333333333333,6.833333333333333,0.16666666666666666,10,0Z" style="fill: white; stroke: black;"/><text class="annotationText" x="10" y="22" pointer-events="none" text-anchor="middle" alignment-baseline="central" font-family="Roboto, sans-serif" font-size="14" style="fill: black;"><tspan x="10" text-anchor="start" y="24" dy="0em">procedureDatetime : String (DateTime)</tspan><tspan x="10" text-anchor="start" y="24" dy="1.2em">procedureOccurrenceId : String (Integer)</tspan></text></g></g><g id="nodelabel_Node3" class="nodeLabel"><circle class="hoverCircle" cy="-164.1500701904297" cx="-331.0999450683594" r="80" style="opacity: 0; fill: lightgray;"/><circle class="displayCircle" cy="-164.1500701904297" cx="-331.0999450683594" r="60" style="fill: rgb(255, 193, 7); stroke: rgb(166, 118, 0); stroke-width: 4;"/><text class="displayText" x="-331.0999450683594" y="-164.1500701904297" pointer-events="none" text-anchor="middle" alignment-baseline="central" font-family="Roboto, sans-serif" font-size="14" style="fill: black;"><tspan x="-331.0999450683594" y="-164.1500701904297" dy="0.34em">Gender</tspan></text><g class="annotation" transform="translate(-653.0491638183594,-193.35007019042968)"><path class="annotationBubble" stroke-width="2" d="M10,0L238.94921875,0,C242.11588541666669,0.16666666666666674,245.28255208333334,0.3333333333333335,246.94921875,2C248.61588541666666,3.6666666666666665,248.78255208333331,6.833333333333333,248.94921875,10,L248.94921875,21.2L256.94921875,29.2L248.94921875,37.2L248.94921875,48.4,C248.78255208333331,51.56666666666666,248.61588541666666,54.733333333333334,246.94921875,56.4C245.28255208333334,58.06666666666666,242.11588541666669,58.233333333333334,238.94921875,58.4,L10,58.4,C6.833333333333333,58.233333333333334,3.6666666666666665,58.06666666666667,2,56.4C0.3333333333333333,54.73333333333333,0.16666666666666666,51.56666666666666,0,48.4,L0,10,C0.16666666666666674,6.833333333333333,0.3333333333333335,3.6666666666666665,2,2C3.6666666666666665,0.3333333333333333,6.833333333333333,0.16666666666666666,10,0Z" style="fill: white; stroke: black;"/><text class="annotationText" x="10" y="22" pointer-events="none" text-anchor="middle" alignment-baseline="central" font-family="Roboto, sans-serif" font-size="14" style="fill: black;"><tspan x="10" text-anchor="start" y="24" dy="0em">genderConceptId : String (String)</tspan><tspan x="10" text-anchor="start" y="24" dy="1.2em">genderConceptName : String (String)</tspan></text></g></g><g id="nodelabel_Node46" class="nodeLabel"><circle class="hoverCircle" cy="1041.199951171875" cx="2222.699951171875" r="80" style="opacity: 0; fill: lightgray;"/><circle class="displayCircle" cy="1041.199951171875" cx="2222.699951171875" r="60" style="fill: rgb(205, 220, 57); stroke: rgb(122, 142, 0); stroke-width: 4;"/><text class="displayText" x="2222.699951171875" y="1041.199951171875" pointer-events="none" text-anchor="middle" alignment-baseline="central" font-family="Roboto, sans-serif" font-size="14" style="fill: black;"><tspan x="2222.699951171875" y="1041.199951171875" dy="0.34em">VisitOccurrence</tspan></text><g class="annotation" transform="translate(2272.6618919490006,1091.1618919490006)"><path class="annotationBubble" stroke-width="2" d="M10,0L215.0576171875,0,C218.22428385416669,0.16666666666666674,221.39095052083334,0.3333333333333335,223.0576171875,2C224.72428385416666,3.6666666666666665,224.89095052083331,6.833333333333333,225.0576171875,10,L225.0576171875,67.6,C224.89095052083331,70.76666666666665,224.72428385416666,73.93333333333332,223.0576171875,75.6C221.39095052083334,77.26666666666667,218.22428385416669,77.43333333333334,215.0576171875,77.6,L10,77.6,C6.833333333333333,77.43333333333332,3.6666666666666665,77.26666666666665,2,75.6C0.3333333333333333,73.93333333333334,0.16666666666666666,70.76666666666667,0,67.6,L0,10,L0,6L-4,-4L6,0L10,0Z" style="fill: white; stroke: black;"/><text class="annotationText" x="10" y="22" pointer-events="none" text-anchor="middle" alignment-baseline="central" font-family="Roboto, sans-serif" font-size="14" style="fill: black;"><tspan x="10" text-anchor="start" y="24" dy="0em">visitEndDate : String (String)</tspan><tspan x="10" text-anchor="start" y="24" dy="1.2em">visitOccurrenceId : String (String)</tspan><tspan x="10" text-anchor="start" y="24" dy="2.4em">visitStartDate : String (String)</tspan></text></g></g><g id="nodelabel_Node55" class="nodeLabel"><circle class="hoverCircle" cy="877.2000122070312" cx="-165.29998779296875" r="80" style="opacity: 0; fill: lightgray;"/><circle class="displayCircle" cy="877.2000122070312" cx="-165.29998779296875" r="60" style="fill: rgb(255, 193, 7); stroke: rgb(166, 118, 0); stroke-width: 4;"/><text class="displayText" x="-165.29998779296875" y="877.2000122070312" pointer-events="none" text-anchor="middle" alignment-baseline="central" font-family="Roboto, sans-serif" font-size="14" style="fill: black;"><tspan x="-165.29998779296875" y="877.2000122070312" dy="0.34em">ConceptClass</tspan></text><g class="annotation" transform="translate(-476.98162841796875,848.0000122070312)"><path class="annotationBubble" stroke-width="2" d="M10,0L228.681640625,0,C231.84830729166669,0.16666666666666674,235.01497395833334,0.3333333333333335,236.681640625,2C238.34830729166666,3.6666666666666665,238.51497395833331,6.833333333333333,238.681640625,10,L238.681640625,21.2L246.681640625,29.2L238.681640625,37.2L238.681640625,48.4,C238.51497395833331,51.56666666666666,238.34830729166666,54.733333333333334,236.681640625,56.4C235.01497395833334,58.06666666666666,231.84830729166669,58.233333333333334,228.681640625,58.4,L10,58.4,C6.833333333333333,58.233333333333334,3.6666666666666665,58.06666666666667,2,56.4C0.3333333333333333,54.73333333333333,0.16666666666666666,51.56666666666666,0,48.4,L0,10,C0.16666666666666674,6.833333333333333,0.3333333333333335,3.6666666666666665,2,2C3.6666666666666665,0.3333333333333333,6.833333333333333,0.16666666666666666,10,0Z" style="fill: white; stroke: black;"/><text class="annotationText" x="10" y="22" pointer-events="none" text-anchor="middle" alignment-baseline="central" font-family="Roboto, sans-serif" font-size="14" style="fill: black;"><tspan x="10" text-anchor="start" y="24" dy="0em">conceptClassId : String (Integer)</tspan><tspan x="10" text-anchor="start" y="24" dy="1.2em">conceptClassName : String (String)</tspan></text></g></g><g id="nodelabel_Node51" class="nodeLabel"><circle class="hoverCircle" cy="1063.199951171875" cx="36.70001220703125" r="80" style="opacity: 0; fill: lightgray;"/><circle class="displayCircle" cy="1063.199951171875" cx="36.70001220703125" r="60" style="fill: rgb(255, 193, 7); stroke: rgb(166, 118, 0); stroke-width: 4;"/><text class="displayText" x="36.70001220703125" y="1063.199951171875" pointer-events="none" text-anchor="middle" alignment-baseline="central" font-family="Roboto, sans-serif" font-size="14" style="fill: black;"><tspan x="36.70001220703125" y="1063.199951171875" dy="0.34em">Vocabulary</tspan></text><g class="annotation" transform="translate(-260.48165513259437,1113.1618919490006)"><path class="annotationBubble" stroke-width="2" d="M10,0L237.2197265625,0,L241.2197265625,0L251.2197265625,-4L247.2197265625,6L247.2197265625,10,L247.2197265625,86.8,C247.05305989583331,89.96666666666667,246.88639322916666,93.13333333333334,245.2197265625,94.8C243.55305989583334,96.46666666666665,240.38639322916669,96.63333333333333,237.2197265625,96.8,L10,96.8,C6.833333333333333,96.63333333333333,3.6666666666666665,96.46666666666667,2,94.8C0.3333333333333333,93.13333333333333,0.16666666666666666,89.96666666666667,0,86.8,L0,10,C0.16666666666666674,6.833333333333333,0.3333333333333335,3.6666666666666665,2,2C3.6666666666666665,0.3333333333333333,6.833333333333333,0.16666666666666666,10,0Z" style="fill: white; stroke: black;"/><text class="annotationText" x="10" y="22" pointer-events="none" text-anchor="middle" alignment-baseline="central" font-family="Roboto, sans-serif" font-size="14" style="fill: black;"><tspan x="10" text-anchor="start" y="24" dy="0em">vocabularyId : String (Integer)</tspan><tspan x="10" text-anchor="start" y="24" dy="1.2em">vocabularyName : String (String)</tspan><tspan x="10" text-anchor="start" y="24" dy="2.4em">vocabularyReference : String (String)</tspan><tspan x="10" text-anchor="start" y="24" dy="3.5999999999999996em">vocabularyVersion : String (String)</tspan></text></g></g><g id="nodelabel_Node39" class="nodeLabel"><circle class="hoverCircle" cy="721.2000122070312" cx="324.70001220703125" r="80" style="opacity: 0; fill: lightgray;"/><circle class="displayCircle" cy="721.2000122070312" cx="324.70001220703125" r="60" style="fill: rgb(255, 193, 7); stroke: rgb(166, 118, 0); stroke-width: 4;"/><text class="displayText" x="324.70001220703125" y="721.2000122070312" pointer-events="none" text-anchor="middle" alignment-baseline="central" font-family="Roboto, sans-serif" font-size="14" style="fill: black;"><tspan x="324.70001220703125" y="721.2000122070312" dy="0.34em">Concept</tspan></text><g class="annotation" transform="translate(374.66195298415687,771.1619529841569)"><path class="annotationBubble" stroke-width="2" d="M10,0L228.1416015625,0,C231.30826822916669,0.16666666666666674,234.47493489583334,0.3333333333333335,236.1416015625,2C237.80826822916666,3.6666666666666665,237.97493489583331,6.833333333333333,238.1416015625,10,L238.1416015625,144.4,C237.97493489583331,147.56666666666666,237.80826822916666,150.73333333333332,236.1416015625,152.4C234.47493489583334,154.0666666666667,231.30826822916669,154.23333333333335,228.1416015625,154.4,L10,154.4,C6.833333333333333,154.23333333333335,3.6666666666666665,154.06666666666666,2,152.4C0.3333333333333333,150.73333333333335,0.16666666666666666,147.56666666666666,0,144.4,L0,10,L0,6L-4,-4L6,0L10,0Z" style="fill: white; stroke: black;"/><text class="annotationText" x="10" y="22" pointer-events="none" text-anchor="middle" alignment-baseline="central" font-family="Roboto, sans-serif" font-size="14" style="fill: black;"><tspan x="10" text-anchor="start" y="24" dy="0em">conceptCode : String (String)</tspan><tspan x="10" text-anchor="start" y="24" dy="1.2em">conceptId : String (Integer)</tspan><tspan x="10" text-anchor="start" y="24" dy="2.4em">conceptName : String (String)</tspan><tspan x="10" text-anchor="start" y="24" dy="3.5999999999999996em">invalidReason : String (String)</tspan><tspan x="10" text-anchor="start" y="24" dy="4.8em">standardConcept : String (Boolean)</tspan><tspan x="10" text-anchor="start" y="24" dy="6em">validEndDate : String (Date)</tspan><tspan x="10" text-anchor="start" y="24" dy="7.199999999999999em">validStartDate : String (Date)</tspan></text></g></g><g id="nodelabel_Node36" class="nodeLabel"><circle class="hoverCircle" cy="320.20001220703125" cx="374.70001220703125" r="80" style="opacity: 0; fill: lightgray;"/><circle class="displayCircle" cy="320.20001220703125" cx="374.70001220703125" r="60" style="fill: rgb(205, 220, 57); stroke: rgb(122, 142, 0); stroke-width: 4;"/><text class="displayText" x="374.70001220703125" y="320.20001220703125" pointer-events="none" text-anchor="middle" alignment-baseline="central" font-family="Roboto, sans-serif" font-size="14" style="fill: black;"><tspan x="374.70001220703125" y="320.20001220703125" dy="0.00em">Condition</tspan><tspan x="374.70001220703125" y="320.20001220703125" dy="1.10em">Occurrence</tspan></text><g class="annotation" transform="translate(44.00079345703125,281.40001220703124)"><path class="annotationBubble" stroke-width="2" d="M10,0L247.69921875,0,C250.86588541666666,0.16666666666666674,254.03255208333331,0.3333333333333335,255.69921875,2C257.3658854166667,3.6666666666666665,257.53255208333337,6.833333333333333,257.69921875,10,L257.69921875,30.799999999999997L265.69921875,38.8L257.69921875,46.8L257.69921875,67.6,C257.5325520833333,70.76666666666665,257.36588541666663,73.93333333333332,255.69921875,75.6C254.03255208333334,77.26666666666667,250.86588541666669,77.43333333333334,247.69921875,77.6,L10,77.6,C6.833333333333333,77.43333333333332,3.6666666666666665,77.26666666666665,2,75.6C0.3333333333333333,73.93333333333334,0.16666666666666666,70.76666666666667,0,67.6,L0,10,C0.16666666666666674,6.833333333333333,0.3333333333333335,3.6666666666666665,2,2C3.6666666666666665,0.3333333333333333,6.833333333333333,0.16666666666666666,10,0Z" style="fill: white; stroke: black;"/><text class="annotationText" x="10" y="22" pointer-events="none" text-anchor="middle" alignment-baseline="central" font-family="Roboto, sans-serif" font-size="14" style="fill: black;"><tspan x="10" text-anchor="start" y="24" dy="0em">conditionEndDatetime : String (Date)</tspan><tspan x="10" text-anchor="start" y="24" dy="1.2em">conditionOccurrenceId : String (String)</tspan><tspan x="10" text-anchor="start" y="24" dy="2.4em">conditionStartDatetime : String (Date)</tspan></text></g></g><g id="nodelabel_Node32" class="nodeLabel"><circle class="hoverCircle" cy="223.20001220703125" cx="-155.29998779296875" r="80" style="opacity: 0; fill: lightgray;"/><circle class="displayCircle" cy="223.20001220703125" cx="-155.29998779296875" r="60" style="fill: rgb(255, 193, 7); stroke: rgb(166, 118, 0); stroke-width: 4;"/><text class="displayText" x="-155.29998779296875" y="223.20001220703125" pointer-events="none" text-anchor="middle" alignment-baseline="central" font-family="Roboto, sans-serif" font-size="14" style="fill: black;"><tspan x="-155.29998779296875" y="223.20001220703125" dy="0.34em">Ethnicity</tspan></text><g class="annotation" transform="translate(-463.91134263259437,273.1619529841568)"><path class="annotationBubble" stroke-width="2" d="M10,0L248.6494140625,0,L252.6494140625,0L262.6494140625,-4L258.6494140625,6L258.6494140625,10,L258.6494140625,48.4,C258.4827473958333,51.56666666666666,258.31608072916663,54.733333333333334,256.6494140625,56.4C254.98274739583334,58.06666666666666,251.81608072916669,58.233333333333334,248.6494140625,58.4,L10,58.4,C6.833333333333333,58.233333333333334,3.6666666666666665,58.06666666666667,2,56.4C0.3333333333333333,54.73333333333333,0.16666666666666666,51.56666666666666,0,48.4,L0,10,C0.16666666666666674,6.833333333333333,0.3333333333333335,3.6666666666666665,2,2C3.6666666666666665,0.3333333333333333,6.833333333333333,0.16666666666666666,10,0Z" style="fill: white; stroke: black;"/><text class="annotationText" x="10" y="22" pointer-events="none" text-anchor="middle" alignment-baseline="central" font-family="Roboto, sans-serif" font-size="14" style="fill: black;"><tspan x="10" text-anchor="start" y="24" dy="0em">ethnicityConceptId : String (String)</tspan><tspan x="10" text-anchor="start" y="24" dy="1.2em">ethnicityConceptName : String (String)</tspan></text></g></g></g><text font-family="Roboto, sans-serif" font-size="14"><tspan id="textDimensionHelper"/></text></svg>